AnekOdia-CondensedThin.ufo
<glyph name="d" format="2">
  <advance width="617"/>
  <unicode hex="0064"/>
  <anchor x="309" y="0" name="bottom"/>
  <anchor x="309" y="495" name="center"/>
  <anchor x="309" y="1334" name="top"/>
  <anchor x="657" y="1334" name="topright"/>
  <outline>
    <contour>
      <point x="284" y="-13" type="curve" smooth="yes"/>
      <point x="397" y="-13"/>
      <point x="460" y="62"/>
      <point x="481" y="185" type="curve"/>
      <point x="494" y="185" type="line"/>
      <point x="474" y="230" type="line"/>
      <point x="449" y="93"/>
      <point x="391" y="20"/>
      <point x="290" y="20" type="curve" smooth="yes"/>
      <point x="174" y="20"/>
      <point x="126" y="105"/>
      <point x="126" y="259" type="curve" smooth="yes"/>
      <point x="126" y="730" type="line" smooth="yes"/>
      <point x="126" y="885"/>
      <point x="179" y="970"/>
      <point x="291" y="970" type="curve" smooth="yes"/>
      <point x="405" y="970"/>
      <point x="466" y="881"/>
      <point x="472" y="743" type="curve"/>
      <point x="494" y="782" type="line"/>
      <point x="483" y="782" type="line"/>
      <point x="479" y="905"/>
      <point x="417" y="1003"/>
      <point x="291" y="1003" type="curve" smooth="yes"/>
      <point x="153" y="1003"/>
      <point x="89" y="907"/>
      <point x="89" y="730" type="curve" smooth="yes"/>
      <point x="89" y="258" type="line" smooth="yes"/>
      <point x="89" y="81"/>
      <point x="152" y="-13"/>
    </contour>
    <contour>
      <point x="471" y="0" type="line"/>
      <point x="507" y="0" type="line"/>
      <point x="507" y="1334" type="line"/>
      <point x="470" y="1334" type="line"/>
      <point x="470" y="1025" type="line"/>
      <point x="474" y="813" type="line"/>
      <point x="472" y="795" type="line"/>
      <point x="472" y="189" type="line"/>
      <point x="475" y="173" type="line"/>
    </contour>
  </outline>
</glyph>
<glyph name="Candrabindu.or" format="2">
  <unicode hex="0B01"/>
  <anchor x="-210" y="1449" name="_top2"/>
  <outline>
    <contour>
      <point x="-210" y="1656" type="curve" smooth="yes"/>
      <point x="-230" y="1656"/>
      <point x="-238" y="1677"/>
      <point x="-238" y="1721" type="curve" smooth="yes"/>
      <point x="-238" y="1735" type="line" smooth="yes"/>
      <point x="-238" y="1780"/>
      <point x="-230" y="1800"/>
      <point x="-210" y="1800" type="curve" smooth="yes"/>
      <point x="-190" y="1800"/>
      <point x="-183" y="1780"/>
      <point x="-183" y="1735" type="curve" smooth="yes"/>
      <point x="-183" y="1721" type="line" smooth="yes"/>
      <point x="-183" y="1677"/>
      <point x="-190" y="1656"/>
    </contour>
    <contour>
      <point x="-74" y="1717" type="line"/>
      <point x="-41" y="1717" type="line"/>
      <point x="-41" y="1703"/>
      <point x="-41" y="1694"/>
      <point x="-41" y="1685" type="curve" smooth="yes"/>
      <point x="-41" y="1513"/>
      <point x="-97" y="1449"/>
      <point x="-210" y="1449" type="curve" smooth="yes"/>
      <point x="-322" y="1449"/>
      <point x="-379" y="1513"/>
      <point x="-379" y="1685" type="curve" smooth="yes"/>
      <point x="-379" y="1694"/>
      <point x="-379" y="1703"/>
      <point x="-379" y="1717" type="curve"/>
      <point x="-346" y="1717" type="line"/>
      <point x="-346" y="1690" type="line" smooth="yes"/>
      <point x="-346" y="1534"/>
      <point x="-299" y="1481"/>
      <point x="-210" y="1481" type="curve" smooth="yes"/>
      <point x="-119" y="1481"/>
      <point x="-74" y="1534"/>
      <point x="-74" y="1690" type="curve" smooth="yes"/>
    </contour>
  </outline>
</glyph>
<glyph name="Anusvara.or" format="2">
  <advance width="302"/>
  <unicode hex="0B02"/>
  <outline>
    <contour>
      <point x="151" y="851" type="curve" smooth="yes"/>
      <point x="238" y="851"/>
      <point x="282" y="908"/>
      <point x="282" y="1015" type="curve" smooth="yes"/>
      <point x="282" y="1200" type="line" smooth="yes"/>
      <point x="282" y="1307"/>
      <point x="238" y="1364"/>
      <point x="151" y="1364" type="curve" smooth="yes"/>
      <point x="64" y="1364"/>
      <point x="20" y="1307"/>
      <point x="20" y="1200" type="curve" smooth="yes"/>
      <point x="20" y="1015" type="line" smooth="yes"/>
      <point x="20" y="908"/>
      <point x="64" y="851"/>
    </contour>
    <contour>
      <point x="151" y="882" type="curve" smooth="yes"/>
      <point x="86" y="882"/>
      <point x="54" y="929"/>
      <point x="54" y="1015" type="curve" smooth="yes"/>
      <point x="54" y="1200" type="line" smooth="yes"/>
      <point x="54" y="1286"/>
      <point x="86" y="1333"/>
      <point x="151" y="1333" type="curve" smooth="yes"/>
      <point x="216" y="1333"/>
      <point x="248" y="1286"/>
      <point x="248" y="1200" type="curve" smooth="yes"/>
      <point x="248" y="1015" type="line" smooth="yes"/>
      <point x="248" y="929"/>
      <point x="216" y="882"/>
    </contour>
  </outline>
</glyph>
<glyph name="Visarga.or" format="2">
  <advance width="509"/>
  <unicode hex="0B03"/>
  <outline>
    <contour>
      <point x="256" y="-9" type="curve" smooth="yes"/>
      <point x="367" y="-9"/>
      <point x="425" y="71"/>
      <point x="425" y="215" type="curve" smooth="yes"/>
      <point x="425" y="325" type="line"/>
      <point x="425" y="474"/>
      <point x="366" y="572"/>
      <point x="265" y="683" type="curve"/>
      <point x="258" y="691" type="line"/>
      <point x="166" y="790"/>
      <point x="119" y="872"/>
      <point x="119" y="1027" type="curve" smooth="yes"/>
      <point x="119" y="1137" type="line" smooth="yes"/>
      <point x="119" y="1263"/>
      <point x="161" y="1328"/>
      <point x="254" y="1328" type="curve" smooth="yes"/>
      <point x="344" y="1328"/>
      <point x="388" y="1262"/>
      <point x="388" y="1137" type="curve" smooth="yes"/>
      <point x="388" y="1027" type="line" smooth="yes"/>
      <point x="388" y="881"/>
      <point x="337" y="801"/>
      <point x="242" y="689" type="curve"/>
      <point x="233" y="680" type="line"/>
      <point x="137" y="568"/>
      <point x="86" y="479"/>
      <point x="86" y="325" type="curve" smooth="yes"/>
      <point x="86" y="215" type="line" smooth="yes"/>
      <point x="86" y="70"/>
      <point x="142" y="-9"/>
    </contour>
    <contour>
      <point x="256" y="22" type="curve" smooth="yes"/>
      <point x="163" y="22"/>
      <point x="121" y="87"/>
      <point x="121" y="213" type="curve" smooth="yes"/>
      <point x="121" y="323" type="line" smooth="yes"/>
      <point x="121" y="460"/>
      <point x="164" y="547"/>
      <point x="251" y="653" type="curve" smooth="yes"/>
      <point x="262" y="666" type="line"/>
      <point x="362" y="779"/>
      <point x="423" y="871"/>
      <point x="423" y="1025" type="curve" smooth="yes"/>
      <point x="423" y="1135" type="line" smooth="yes"/>
      <point x="423" y="1279"/>
      <point x="365" y="1359"/>
      <point x="254" y="1359" type="curve" smooth="yes"/>
      <point x="140" y="1359"/>
      <point x="84" y="1280"/>
      <point x="84" y="1135" type="curve" smooth="yes"/>
      <point x="84" y="1025" type="line" smooth="yes"/>
      <point x="84" y="862"/>
      <point x="137" y="772"/>
      <point x="233" y="672" type="curve"/>
      <point x="244" y="659" type="line"/>
      <point x="335" y="553"/>
      <point x="390" y="469"/>
      <point x="390" y="323" type="curve" smooth="yes"/>
      <point x="390" y="213" type="line" smooth="yes"/>
      <point x="390" y="88"/>
      <point x="346" y="22"/>
    </contour>
  </outline>
</glyph>
<glyph name="VowelA.or" format="2">
  <advance width="894"/>
  <unicode hex="0B05"/>
  <anchor x="739" y="1449" name="top2"/>
  <outline>
    <contour>
      <point x="739" y="0" type="line"/>
      <point x="774" y="0" type="line"/>
      <point x="774" y="1358" type="line"/>
      <point x="739" y="1358" type="line"/>
      <point x="739" y="219" type="line"/>
      <point x="741" y="212" type="line"/>
    </contour>
    <contour>
      <point x="424" y="-9" type="curve" smooth="yes"/>
      <point x="612" y="-9"/>
      <point x="738" y="92"/>
      <point x="754" y="256" type="curve"/>
      <point x="765" y="267" type="line"/>
      <point x="745" y="282" type="line"/>
      <point x="711" y="105"/>
      <point x="588" y="24"/>
      <point x="427" y="24" type="curve" smooth="yes"/>
      <point x="213" y="24"/>
      <point x="127" y="129"/>
      <point x="127" y="296" type="curve" smooth="yes"/>
      <point x="127" y="326" type="line" smooth="yes"/>
      <point x="127" y="453"/>
      <point x="175" y="526"/>
      <point x="285" y="578" type="curve" smooth="yes"/>
      <point x="394" y="629" type="line" smooth="yes"/>
      <point x="536" y="696"/>
      <point x="580" y="756"/>
      <point x="580" y="916" type="curve" smooth="yes"/>
      <point x="580" y="1196" type="line" smooth="yes"/>
      <point x="580" y="1304"/>
      <point x="540" y="1360"/>
      <point x="459" y="1360" type="curve" smooth="yes"/>
      <point x="392" y="1360"/>
      <point x="347" y="1321"/>
      <point x="340" y="1243" type="curve"/>
      <point x="344" y="1243" type="line"/>
      <point x="338" y="1321"/>
      <point x="292" y="1360"/>
      <point x="229" y="1360" type="curve" smooth="yes"/>
      <point x="146" y="1360"/>
      <point x="105" y="1303"/>
      <point x="105" y="1194" type="curve" smooth="yes"/>
      <point x="105" y="982" type="line" smooth="yes"/>
      <point x="105" y="909"/>
      <point x="115" y="862"/>
      <point x="135" y="804" type="curve"/>
      <point x="169" y="797" type="line"/>
      <point x="149" y="859"/>
      <point x="138" y="908"/>
      <point x="138" y="981" type="curve" smooth="yes"/>
      <point x="138" y="1194" type="line" smooth="yes"/>
      <point x="138" y="1277"/>
      <point x="162" y="1329"/>
      <point x="228" y="1329" type="curve" smooth="yes"/>
      <point x="294" y="1329"/>
      <point x="326" y="1282"/>
      <point x="326" y="1193" type="curve" smooth="yes"/>
      <point x="326" y="850" type="line"/>
      <point x="359" y="850" type="line"/>
      <point x="359" y="1193" type="line" smooth="yes"/>
      <point x="359" y="1282"/>
      <point x="392" y="1329"/>
      <point x="455" y="1329" type="curve" smooth="yes"/>
      <point x="523" y="1329"/>
      <point x="547" y="1280"/>
      <point x="547" y="1196" type="curve" smooth="yes"/>
      <point x="547" y="916" type="line" smooth="yes"/>
      <point x="547" y="773"/>
      <point x="509" y="722"/>
      <point x="377" y="659" type="curve" smooth="yes"/>
      <point x="269" y="607" type="line" smooth="yes"/>
      <point x="146" y="548"/>
      <point x="90" y="466"/>
      <point x="90" y="326" type="curve" smooth="yes"/>
      <point x="90" y="293" type="line" smooth="yes"/>
      <point x="90" y="107"/>
      <point x="192" y="-9"/>
    </contour>
  </outline>
</glyph>
<glyph name="VowelI.or" format="2">
  <advance width="1007"/>
  <unicode hex="0B07"/>
  <anchor x="750" y="1449" name="top2"/>
  <outline>
    <contour>
      <point x="1050" y="-90" type="line"/>
      <point x="1050" y="-53" type="line"/>
      <point x="836" y="31" type="line"/>
      <point x="844" y="13" type="line"/>
      <point x="892" y="72"/>
      <point x="897" y="153"/>
      <point x="897" y="241" type="curve" smooth="yes"/>
      <point x="897" y="951" type="line" smooth="yes"/>
      <point x="897" y="1221"/>
      <point x="767" y="1378"/>
      <point x="492" y="1378" type="curve" smooth="yes"/>
      <point x="220" y="1378"/>
      <point x="84" y="1225"/>
      <point x="84" y="958" type="curve" smooth="yes"/>
      <point x="84" y="792" type="line" smooth="yes"/>
      <point x="84" y="657"/>
      <point x="107" y="575"/>
      <point x="182" y="532" type="curve"/>
      <point x="188" y="567" type="line"/>
      <point x="136" y="607"/>
      <point x="119" y="673"/>
      <point x="119" y="791" type="curve" smooth="yes"/>
      <point x="119" y="958" type="line" smooth="yes"/>
      <point x="119" y="1202"/>
      <point x="240" y="1347"/>
      <point x="490" y="1347" type="curve" smooth="yes"/>
      <point x="744" y="1347"/>
      <point x="862" y="1200"/>
      <point x="862" y="951" type="curve" smooth="yes"/>
      <point x="862" y="241" type="line" smooth="yes"/>
      <point x="862" y="165"/>
      <point x="866" y="82"/>
      <point x="806" y="11" type="curve"/>
    </contour>
    <contour>
      <point x="316" y="20" type="curve" smooth="yes"/>
      <point x="243" y="20"/>
      <point x="214" y="74"/>
      <point x="214" y="169" type="curve" smooth="yes"/>
      <point x="214" y="552" type="line" smooth="yes"/>
      <point x="214" y="652"/>
      <point x="243" y="708"/>
      <point x="316" y="708" type="curve" smooth="yes"/>
      <point x="386" y="708"/>
      <point x="423" y="652"/>
      <point x="423" y="552" type="curve" smooth="yes"/>
      <point x="423" y="177" type="line" smooth="yes"/>
      <point x="423" y="74"/>
      <point x="386" y="20"/>
    </contour>
    <contour>
      <point x="316" y="-11" type="curve" smooth="yes"/>
      <point x="386" y="-11"/>
      <point x="434" y="33"/>
      <point x="441" y="123" type="curve"/>
      <point x="437" y="123" type="line"/>
      <point x="446" y="33"/>
      <point x="489" y="-11"/>
      <point x="568" y="-11" type="curve" smooth="yes"/>
      <point x="656" y="-11"/>
      <point x="700" y="48"/>
      <point x="700" y="167" type="curve" smooth="yes"/>
      <point x="700" y="561" type="line" smooth="yes"/>
      <point x="700" y="679"/>
      <point x="656" y="739"/>
      <point x="566" y="739" type="curve" smooth="yes"/>
      <point x="489" y="739"/>
      <point x="446" y="696"/>
      <point x="437" y="606" type="curve"/>
      <point x="441" y="606" type="line"/>
      <point x="434" y="696"/>
      <point x="386" y="739"/>
      <point x="318" y="739" type="curve" smooth="yes"/>
      <point x="226" y="739"/>
      <point x="179" y="680"/>
      <point x="179" y="549" type="curve"/>
      <point x="179" y="557" type="line"/>
      <point x="179" y="545"/>
      <point x="179" y="542"/>
      <point x="179" y="533" type="curve"/>
      <point x="179" y="167" type="line" smooth="yes"/>
      <point x="179" y="48"/>
      <point x="222" y="-11"/>
    </contour>
    <contour>
      <point x="564" y="20" type="curve" smooth="yes"/>
      <point x="492" y="20"/>
      <point x="456" y="74"/>
      <point x="456" y="177" type="curve" smooth="yes"/>
      <point x="456" y="552" type="line" smooth="yes"/>
      <point x="456" y="652"/>
      <point x="492" y="708"/>
      <point x="562" y="708" type="curve" smooth="yes"/>
      <point x="639" y="708"/>
      <point x="665" y="654"/>
      <point x="665" y="561" type="curve" smooth="yes"/>
      <point x="665" y="167" type="line" smooth="yes"/>
      <point x="665" y="74"/>
      <point x="639" y="20"/>
    </contour>
  </outline>
</glyph>
<glyph name="VowelIi.or" format="2">
  <advance width="990"/>
  <unicode hex="0B08"/>
  <anchor x="757" y="1449" name="top2"/>
  <outline>
    <contour>
      <point x="1033" y="-90" type="line"/>
      <point x="1033" y="-53" type="line"/>
      <point x="819" y="31" type="line"/>
      <point x="827" y="13" type="line"/>
      <point x="875" y="72"/>
      <point x="880" y="153"/>
      <point x="880" y="241" type="curve" smooth="yes"/>
      <point x="880" y="1000" type="line" smooth="yes"/>
      <point x="880" y="1240"/>
      <point x="774" y="1378"/>
      <point x="541" y="1378" type="curve" smooth="yes"/>
      <point x="329" y="1378"/>
      <point x="214" y="1271"/>
      <point x="214" y="1083" type="curve" smooth="yes"/>
      <point x="214" y="1047"/>
      <point x="221" y="1015"/>
      <point x="228" y="999" type="curve"/>
      <point x="261" y="1005" type="line"/>
      <point x="254" y="1020"/>
      <point x="249" y="1049"/>
      <point x="249" y="1083" type="curve" smooth="yes"/>
      <point x="249" y="1256"/>
      <point x="349" y="1347"/>
      <point x="539" y="1347" type="curve" smooth="yes"/>
      <point x="752" y="1347"/>
      <point x="845" y="1218"/>
      <point x="845" y="1000" type="curve" smooth="yes"/>
      <point x="845" y="241" type="line" smooth="yes"/>
      <point x="845" y="165"/>
      <point x="849" y="82"/>
      <point x="789" y="11" type="curve"/>
    </contour>
    <contour>
      <point x="293" y="20" type="curve" smooth="yes"/>
      <point x="219" y="20"/>
      <point x="189" y="70"/>
      <point x="189" y="159" type="curve" smooth="yes"/>
      <point x="189" y="572" type="line" smooth="yes"/>
      <point x="189" y="666"/>
      <point x="219" y="718"/>
      <point x="293" y="718" type="curve" smooth="yes"/>
      <point x="364" y="718"/>
      <point x="402" y="666"/>
      <point x="402" y="572" type="curve" smooth="yes"/>
      <point x="402" y="167" type="line" smooth="yes"/>
      <point x="402" y="71"/>
      <point x="364" y="20"/>
    </contour>
    <contour>
      <point x="293" y="-11" type="curve" smooth="yes"/>
      <point x="364" y="-11"/>
      <point x="413" y="30"/>
      <point x="420" y="113" type="curve"/>
      <point x="416" y="113" type="line"/>
      <point x="425" y="30"/>
      <point x="469" y="-11"/>
      <point x="549" y="-11" type="curve" smooth="yes"/>
      <point x="638" y="-11"/>
      <point x="683" y="45"/>
      <point x="683" y="157" type="curve" smooth="yes"/>
      <point x="683" y="581" type="line" smooth="yes"/>
      <point x="683" y="692"/>
      <point x="638" y="749"/>
      <point x="547" y="749" type="curve" smooth="yes"/>
      <point x="469" y="749"/>
      <point x="425" y="709"/>
      <point x="416" y="626" type="curve"/>
      <point x="420" y="626" type="line"/>
      <point x="413" y="709"/>
      <point x="364" y="749"/>
      <point x="295" y="749" type="curve" smooth="yes"/>
      <point x="202" y="749"/>
      <point x="154" y="693"/>
      <point x="154" y="569" type="curve"/>
      <point x="154" y="557" type="line"/>
      <point x="154" y="550"/>
      <point x="154" y="548"/>
      <point x="154" y="543" type="curve"/>
      <point x="154" y="157" type="line" smooth="yes"/>
      <point x="154" y="45"/>
      <point x="198" y="-11"/>
    </contour>
    <contour>
      <point x="158" y="567" type="curve"/>
      <point x="168" y="600" type="line"/>
      <point x="123" y="634"/>
      <point x="95" y="683"/>
      <point x="95" y="765" type="curve" smooth="yes"/>
      <point x="95" y="799" type="line" smooth="yes"/>
      <point x="95" y="931"/>
      <point x="175" y="992"/>
      <point x="294" y="992" type="curve" smooth="yes"/>
      <point x="301" y="992" type="line" smooth="yes"/>
      <point x="347" y="992"/>
      <point x="387" y="983"/>
      <point x="415" y="972" type="curve"/>
      <point x="411" y="1003" type="line"/>
      <point x="389" y="1012"/>
      <point x="349" y="1023"/>
      <point x="303" y="1023" type="curve" smooth="yes"/>
      <point x="294" y="1023" type="line" smooth="yes"/>
      <point x="157" y="1023"/>
      <point x="60" y="944"/>
      <point x="60" y="799" type="curve" smooth="yes"/>
      <point x="60" y="765" type="line" smooth="yes"/>
      <point x="60" y="665"/>
      <point x="101" y="604"/>
    </contour>
    <contour>
      <point x="545" y="20" type="curve" smooth="yes"/>
      <point x="472" y="20"/>
      <point x="435" y="71"/>
      <point x="435" y="167" type="curve" smooth="yes"/>
      <point x="435" y="572" type="line" smooth="yes"/>
      <point x="435" y="666"/>
      <point x="472" y="718"/>
      <point x="543" y="718" type="curve" smooth="yes"/>
      <point x="621" y="718"/>
      <point x="648" y="668"/>
      <point x="648" y="581" type="curve" smooth="yes"/>
      <point x="648" y="157" type="line" smooth="yes"/>
      <point x="648" y="70"/>
      <point x="621" y="20"/>
    </contour>
  </outline>
</glyph>
<glyph name="VowelU.or" format="2">
  <advance width="939"/>
  <unicode hex="0B09"/>
  <anchor x="694" y="1449" name="top2"/>
  <outline>
    <contour>
      <point x="982" y="-90" type="line"/>
      <point x="982" y="-53" type="line"/>
      <point x="744" y="31" type="line"/>
      <point x="755" y="15" type="line"/>
      <point x="822" y="79"/>
      <point x="829" y="153"/>
      <point x="829" y="241" type="curve" smooth="yes"/>
      <point x="829" y="953" type="line" smooth="yes"/>
      <point x="829" y="1228"/>
      <point x="705" y="1378"/>
      <point x="459" y="1378" type="curve" smooth="yes"/>
      <point x="212" y="1378"/>
      <point x="84" y="1232"/>
      <point x="84" y="975" type="curve" smooth="yes"/>
      <point x="84" y="822" type="line" smooth="yes"/>
      <point x="84" y="673"/>
      <point x="125" y="570"/>
      <point x="233" y="510" type="curve"/>
      <point x="241" y="543" type="line"/>
      <point x="149" y="600"/>
      <point x="119" y="687"/>
      <point x="119" y="823" type="curve" smooth="yes"/>
      <point x="119" y="975" type="line" smooth="yes"/>
      <point x="119" y="1208"/>
      <point x="232" y="1347"/>
      <point x="458" y="1347" type="curve" smooth="yes"/>
      <point x="683" y="1347"/>
      <point x="794" y="1206"/>
      <point x="794" y="953" type="curve" smooth="yes"/>
      <point x="794" y="241" type="line" smooth="yes"/>
      <point x="794" y="166"/>
      <point x="792" y="83"/>
      <point x="711" y="13" type="curve"/>
    </contour>
    <contour>
      <point x="418" y="-13" type="curve" smooth="yes"/>
      <point x="546" y="-13"/>
      <point x="609" y="67"/>
      <point x="609" y="226" type="curve" smooth="yes"/>
      <point x="609" y="410" type="line" smooth="yes"/>
      <point x="609" y="523"/>
      <point x="574" y="580"/>
      <point x="517" y="605" type="curve"/>
      <point x="517" y="609" type="line"/>
      <point x="507" y="574" type="line"/>
      <point x="553" y="552"/>
      <point x="574" y="500"/>
      <point x="574" y="410" type="curve" smooth="yes"/>
      <point x="574" y="226" type="line" smooth="yes"/>
      <point x="574" y="89"/>
      <point x="524" y="18"/>
      <point x="418" y="18" type="curve" smooth="yes"/>
      <point x="309" y="18"/>
      <point x="262" y="89"/>
      <point x="262" y="226" type="curve" smooth="yes"/>
      <point x="262" y="513" type="line" smooth="yes"/>
      <point x="262" y="620"/>
      <point x="288" y="686"/>
      <point x="349" y="719" type="curve"/>
      <point x="349" y="756" type="line"/>
      <point x="264" y="716"/>
      <point x="227" y="640"/>
      <point x="227" y="513" type="curve"/>
      <point x="227" y="504" type="line"/>
      <point x="227" y="497"/>
      <point x="227" y="491"/>
      <point x="227" y="486" type="curve" smooth="yes"/>
      <point x="227" y="226" type="line" smooth="yes"/>
      <point x="227" y="69"/>
      <point x="290" y="-13"/>
    </contour>
    <contour>
      <point x="380" y="388" type="line"/>
      <point x="511" y="574" type="line"/>
      <point x="518" y="587" type="line"/>
      <point x="625" y="743" type="line"/>
      <point x="625" y="799" type="line"/>
      <point x="380" y="442" type="line"/>
    </contour>
  </outline>
</glyph>
<glyph name="VowelUu.or" format="2">
  <advance width="942"/>
  <unicode hex="0B0A"/>
  <anchor x="699" y="1449" name="top2"/>
  <outline>
    <contour>
      <point x="920" y="-92" type="line"/>
      <point x="920" y="-55" type="line"/>
      <point x="700" y="45" type="line"/>
      <point x="693" y="31" type="line"/>
      <point x="708" y="34" type="line"/>
      <point x="822" y="34"/>
      <point x="866" y="98"/>
      <point x="866" y="199" type="curve" smooth="yes"/>
      <point x="866" y="390" type="line" smooth="yes"/>
      <point x="866" y="492"/>
      <point x="830" y="551"/>
      <point x="729" y="556" type="curve"/>
      <point x="733" y="545" type="line"/>
      <point x="803" y="560"/>
      <point x="832" y="615"/>
      <point x="832" y="719" type="curve" smooth="yes"/>
      <point x="832" y="958" type="line" smooth="yes"/>
      <point x="832" y="1229"/>
      <point x="704" y="1378"/>
      <point x="461" y="1378" type="curve" smooth="yes"/>
      <point x="214" y="1378"/>
      <point x="84" y="1233"/>
      <point x="84" y="980" type="curve" smooth="yes"/>
      <point x="84" y="823" type="line" smooth="yes"/>
      <point x="84" y="687"/>
      <point x="117" y="592"/>
      <point x="200" y="530" type="curve"/>
      <point x="208" y="565" type="line"/>
      <point x="143" y="622"/>
      <point x="119" y="702"/>
      <point x="119" y="824" type="curve" smooth="yes"/>
      <point x="119" y="980" type="line" smooth="yes"/>
      <point x="119" y="1209"/>
      <point x="234" y="1347"/>
      <point x="459" y="1347" type="curve" smooth="yes"/>
      <point x="682" y="1347"/>
      <point x="797" y="1207"/>
      <point x="797" y="958" type="curve" smooth="yes"/>
      <point x="797" y="719" type="line" smooth="yes"/>
      <point x="797" y="617"/>
      <point x="769" y="568"/>
      <point x="705" y="562" type="curve" smooth="yes"/>
      <point x="682" y="560" type="line"/>
      <point x="682" y="534" type="line"/>
      <point x="714" y="533" type="line" smooth="yes"/>
      <point x="805" y="530"/>
      <point x="833" y="477"/>
      <point x="833" y="390" type="curve" smooth="yes"/>
      <point x="833" y="199" type="line" smooth="yes"/>
      <point x="833" y="111"/>
      <point x="800" y="57"/>
      <point x="689" y="57" type="curve" smooth="yes"/>
      <point x="671" y="57" type="line"/>
      <point x="671" y="31" type="line"/>
    </contour>
    <contour>
      <point x="388" y="-13" type="curve" smooth="yes"/>
      <point x="516" y="-13"/>
      <point x="579" y="67"/>
      <point x="579" y="226" type="curve" smooth="yes"/>
      <point x="579" y="410" type="line" smooth="yes"/>
      <point x="579" y="523"/>
      <point x="544" y="580"/>
      <point x="487" y="605" type="curve"/>
      <point x="487" y="609" type="line"/>
      <point x="477" y="574" type="line"/>
      <point x="523" y="552"/>
      <point x="544" y="500"/>
      <point x="544" y="410" type="curve" smooth="yes"/>
      <point x="544" y="226" type="line" smooth="yes"/>
      <point x="544" y="89"/>
      <point x="494" y="18"/>
      <point x="388" y="18" type="curve" smooth="yes"/>
      <point x="279" y="18"/>
      <point x="232" y="89"/>
      <point x="232" y="226" type="curve" smooth="yes"/>
      <point x="232" y="513" type="line" smooth="yes"/>
      <point x="232" y="620"/>
      <point x="258" y="686"/>
      <point x="319" y="719" type="curve"/>
      <point x="319" y="756" type="line"/>
      <point x="234" y="716"/>
      <point x="197" y="640"/>
      <point x="197" y="513" type="curve"/>
      <point x="197" y="504" type="line"/>
      <point x="197" y="497"/>
      <point x="197" y="491"/>
      <point x="197" y="486" type="curve" smooth="yes"/>
      <point x="197" y="226" type="line" smooth="yes"/>
      <point x="197" y="69"/>
      <point x="260" y="-13"/>
    </contour>
    <contour>
      <point x="350" y="388" type="line"/>
      <point x="481" y="574" type="line"/>
      <point x="488" y="587" type="line"/>
      <point x="595" y="743" type="line"/>
      <point x="595" y="799" type="line"/>
      <point x="350" y="442" type="line"/>
    </contour>
  </outline>
</glyph>
<glyph name="VowelVocalicR.or" format="2">
  <advance width="921"/>
  <unicode hex="0B0B"/>
  <anchor x="448" y="1646" name="top1"/>
  <anchor x="685" y="1449" name="top2"/>
  <outline>
    <contour>
      <point x="899" y="-92" type="line"/>
      <point x="899" y="-55" type="line"/>
      <point x="679" y="45" type="line"/>
      <point x="672" y="31" type="line"/>
      <point x="687" y="34" type="line"/>
      <point x="801" y="34"/>
      <point x="845" y="98"/>
      <point x="845" y="199" type="curve" smooth="yes"/>
      <point x="845" y="390" type="line" smooth="yes"/>
      <point x="845" y="492"/>
      <point x="809" y="551"/>
      <point x="708" y="556" type="curve"/>
      <point x="712" y="545" type="line"/>
      <point x="782" y="560"/>
      <point x="811" y="615"/>
      <point x="811" y="719" type="curve" smooth="yes"/>
      <point x="811" y="964" type="line" smooth="yes"/>
      <point x="811" y="1233"/>
      <point x="689" y="1378"/>
      <point x="450" y="1378" type="curve" smooth="yes"/>
      <point x="208" y="1378"/>
      <point x="84" y="1237"/>
      <point x="84" y="986" type="curve" smooth="yes"/>
      <point x="84" y="822" type="line" smooth="yes"/>
      <point x="84" y="680"/>
      <point x="122" y="582"/>
      <point x="226" y="527" type="curve"/>
      <point x="237" y="558" type="line"/>
      <point x="151" y="608"/>
      <point x="119" y="697"/>
      <point x="119" y="823" type="curve" smooth="yes"/>
      <point x="119" y="986" type="line" smooth="yes"/>
      <point x="119" y="1211"/>
      <point x="229" y="1347"/>
      <point x="448" y="1347" type="curve" smooth="yes"/>
      <point x="667" y="1347"/>
      <point x="776" y="1211"/>
      <point x="776" y="964" type="curve" smooth="yes"/>
      <point x="776" y="719" type="line" smooth="yes"/>
      <point x="776" y="617"/>
      <point x="748" y="568"/>
      <point x="684" y="562" type="curve" smooth="yes"/>
      <point x="661" y="560" type="line"/>
      <point x="661" y="534" type="line"/>
      <point x="693" y="533" type="line" smooth="yes"/>
      <point x="784" y="530"/>
      <point x="812" y="477"/>
      <point x="812" y="390" type="curve" smooth="yes"/>
      <point x="812" y="199" type="line" smooth="yes"/>
      <point x="812" y="111"/>
      <point x="779" y="57"/>
      <point x="668" y="57" type="curve" smooth="yes"/>
      <point x="650" y="57" type="line"/>
      <point x="650" y="31" type="line"/>
    </contour>
    <contour>
      <point x="383" y="-13" type="curve" smooth="yes"/>
      <point x="497" y="-13"/>
      <point x="555" y="61"/>
      <point x="555" y="203" type="curve" smooth="yes"/>
      <point x="555" y="531" type="line" smooth="yes"/>
      <point x="555" y="673"/>
      <point x="497" y="749"/>
      <point x="383" y="749" type="curve" smooth="yes"/>
      <point x="269" y="749"/>
      <point x="211" y="670"/>
      <point x="211" y="531" type="curve"/>
      <point x="211" y="520" type="line"/>
      <point x="211" y="514"/>
      <point x="211" y="510"/>
      <point x="211" y="504" type="curve" smooth="yes"/>
      <point x="211" y="203" type="line" smooth="yes"/>
      <point x="211" y="61"/>
      <point x="269" y="-13"/>
    </contour>
    <contour>
      <point x="383" y="18" type="curve" smooth="yes"/>
      <point x="286" y="18"/>
      <point x="246" y="83"/>
      <point x="246" y="203" type="curve" smooth="yes"/>
      <point x="246" y="531" type="line" smooth="yes"/>
      <point x="246" y="651"/>
      <point x="286" y="718"/>
      <point x="383" y="718" type="curve" smooth="yes"/>
      <point x="475" y="718"/>
      <point x="520" y="651"/>
      <point x="520" y="531" type="curve" smooth="yes"/>
      <point x="520" y="203" type="line" smooth="yes"/>
      <point x="520" y="83"/>
      <point x="475" y="18"/>
    </contour>
  </outline>
</glyph>
<glyph name="VowelE.or" format="2">
  <advance width="709"/>
  <unicode hex="0B0F"/>
  <anchor x="554" y="1449" name="top2"/>
  <outline>
    <contour>
      <point x="521" y="0" type="line"/>
      <point x="589" y="0" type="line"/>
      <point x="589" y="1358" type="line"/>
      <point x="521" y="1358" type="line"/>
      <point x="242" y="835" type="line"/>
      <point x="280" y="835" type="line"/>
      <point x="540" y="1327" type="line"/>
      <point x="556" y="1327" type="line"/>
      <point x="555" y="1214"/>
      <point x="554" y="1102"/>
      <point x="554" y="990" type="curve" smooth="yes"/>
      <point x="554" y="33" type="line"/>
      <point x="541" y="33" type="line"/>
      <point x="12" y="956" type="line"/>
      <point x="12" y="892" type="line"/>
    </contour>
  </outline>
</glyph>
<glyph name="VowelAi.or" format="2">
  <advance width="974"/>
  <unicode hex="0B10"/>
  <anchor x="890" y="1499" name="top2"/>
  <outline>
    <contour>
      <point x="819" y="0" type="line"/>
      <point x="854" y="0" type="line"/>
      <point x="854" y="1362" type="line" smooth="yes"/>
      <point x="854" y="1522"/>
      <point x="789" y="1599"/>
      <point x="631" y="1599" type="curve" smooth="yes"/>
      <point x="442" y="1599" type="line" smooth="yes"/>
      <point x="335" y="1599"/>
      <point x="278" y="1631"/>
      <point x="278" y="1714" type="curve" smooth="yes"/>
      <point x="278" y="1738" type="line"/>
      <point x="245" y="1738" type="line"/>
      <point x="245" y="1714" type="line" smooth="yes"/>
      <point x="245" y="1609"/>
      <point x="320" y="1567"/>
      <point x="442" y="1567" type="curve" smooth="yes"/>
      <point x="631" y="1567" type="line" smooth="yes"/>
      <point x="768" y="1567"/>
      <point x="819" y="1504"/>
      <point x="819" y="1362" type="curve" smooth="yes"/>
    </contour>
    <contour>
      <point x="565" y="733" type="line"/>
      <point x="839" y="733" type="line"/>
      <point x="839" y="764" type="line"/>
      <point x="565" y="764" type="line"/>
    </contour>
    <component base="VowelE.or"/>
  </outline>
</glyph>
<glyph name="VowelO.or" format="2">
  <advance width="790"/>
  <unicode hex="0B13"/>
  <anchor x="699" y="1449" name="top2"/>
  <outline>
    <contour>
      <point x="420" y="-11" type="curve" smooth="yes"/>
      <point x="629" y="-11"/>
      <point x="713" y="124"/>
      <point x="713" y="329" type="curve" smooth="yes"/>
      <point x="713" y="357" type="line" smooth="yes"/>
      <point x="713" y="489"/>
      <point x="668" y="573"/>
      <point x="587" y="622" type="curve"/>
      <point x="559" y="604" type="line"/>
      <point x="639" y="551"/>
      <point x="678" y="480"/>
      <point x="678" y="357" type="curve" smooth="yes"/>
      <point x="678" y="329" type="line" smooth="yes"/>
      <point x="678" y="145"/>
      <point x="606" y="22"/>
      <point x="422" y="22" type="curve" smooth="yes"/>
      <point x="230" y="22"/>
      <point x="141" y="151"/>
      <point x="141" y="368" type="curve" smooth="yes"/>
      <point x="141" y="937" type="line" smooth="yes"/>
      <point x="141" y="1140"/>
      <point x="152" y="1232"/>
      <point x="190" y="1358" type="curve"/>
      <point x="153" y="1358" type="line"/>
      <point x="116" y="1230"/>
      <point x="106" y="1142"/>
      <point x="106" y="935" type="curve" smooth="yes"/>
      <point x="106" y="368" type="line" smooth="yes"/>
      <point x="106" y="129"/>
      <point x="206" y="-11"/>
    </contour>
    <contour>
      <point x="432" y="579" type="line"/>
      <point x="465" y="579" type="line" smooth="yes"/>
      <point x="504" y="579"/>
      <point x="549" y="584"/>
      <point x="579" y="599" type="curve"/>
      <point x="588" y="604" type="line"/>
      <point x="648" y="633"/>
      <point x="700" y="699"/>
      <point x="700" y="860" type="curve" smooth="yes"/>
      <point x="700" y="1154" type="line" smooth="yes"/>
      <point x="700" y="1298"/>
      <point x="642" y="1374"/>
      <point x="528" y="1374" type="curve" smooth="yes"/>
      <point x="413" y="1374"/>
      <point x="357" y="1297"/>
      <point x="357" y="1154" type="curve" smooth="yes"/>
      <point x="357" y="1046" type="line" smooth="yes"/>
      <point x="357" y="974"/>
      <point x="362" y="926"/>
      <point x="373" y="867" type="curve"/>
      <point x="408" y="860" type="line"/>
      <point x="397" y="923"/>
      <point x="391" y="971"/>
      <point x="391" y="1046" type="curve" smooth="yes"/>
      <point x="391" y="1154" type="line" smooth="yes"/>
      <point x="391" y="1277"/>
      <point x="434" y="1343"/>
      <point x="528" y="1343" type="curve" smooth="yes"/>
      <point x="620" y="1343"/>
      <point x="665" y="1277"/>
      <point x="665" y="1154" type="curve" smooth="yes"/>
      <point x="665" y="861" type="line" smooth="yes"/>
      <point x="665" y="704"/>
      <point x="621" y="611"/>
      <point x="466" y="611" type="curve" smooth="yes"/>
      <point x="432" y="611" type="line"/>
    </contour>
  </outline>
</glyph>
<glyph name="VowelAu.or" format="2">
  <advance width="1068"/>
  <unicode hex="0B14"/>
  <anchor x="984" y="1499" name="top2"/>
  <outline>
    <contour>
      <point x="913" y="0" type="line"/>
      <point x="948" y="0" type="line"/>
      <point x="948" y="1362" type="line" smooth="yes"/>
      <point x="948" y="1522"/>
      <point x="883" y="1599"/>
      <point x="725" y="1599" type="curve" smooth="yes"/>
      <point x="536" y="1599" type="line" smooth="yes"/>
      <point x="429" y="1599"/>
      <point x="372" y="1631"/>
      <point x="372" y="1714" type="curve" smooth="yes"/>
      <point x="372" y="1738" type="line"/>
      <point x="339" y="1738" type="line"/>
      <point x="339" y="1714" type="line" smooth="yes"/>
      <point x="339" y="1609"/>
      <point x="414" y="1567"/>
      <point x="536" y="1567" type="curve" smooth="yes"/>
      <point x="725" y="1567" type="line" smooth="yes"/>
      <point x="862" y="1567"/>
      <point x="913" y="1504"/>
      <point x="913" y="1362" type="curve" smooth="yes"/>
    </contour>
    <contour>
      <point x="696" y="368" type="line"/>
      <point x="929" y="368" type="line"/>
      <point x="929" y="399" type="line"/>
      <point x="696" y="399" type="line"/>
    </contour>
    <component base="VowelO.or"/>
  </outline>
</glyph>
<glyph name="Gha.or" format="2">
  <advance width="888"/>
  <unicode hex="0B18"/>
  <anchor x="768" y="13" name="bottom"/>
  <anchor x="485" y="13" name="nukta"/>
  <anchor x="965" y="-1" name="rasmall"/>
  <anchor x="437" y="1646" name="top1"/>
  <anchor x="733" y="1449" name="top2"/>
  <outline>
    <contour>
      <point x="198" y="541" type="curve"/>
      <point x="211" y="572" type="line"/>
      <point x="143" y="626"/>
      <point x="119" y="699"/>
      <point x="119" y="804" type="curve" smooth="yes"/>
      <point x="119" y="999" type="line" smooth="yes"/>
      <point x="119" y="1221"/>
      <point x="220" y="1347"/>
      <point x="422" y="1347" type="curve" smooth="yes"/>
      <point x="634" y="1347"/>
      <point x="729" y="1213"/>
      <point x="733" y="1020" type="curve"/>
      <point x="742" y="1115" type="line"/>
      <point x="726" y="1273"/>
      <point x="615" y="1378"/>
      <point x="424" y="1378" type="curve" smooth="yes"/>
      <point x="200" y="1378"/>
      <point x="84" y="1239"/>
      <point x="84" y="998" type="curve" smooth="yes"/>
      <point x="84" y="802" type="line" smooth="yes"/>
      <point x="84" y="683"/>
      <point x="116" y="596"/>
    </contour>
    <contour>
      <point x="343" y="-11" type="curve" smooth="yes"/>
      <point x="427" y="-11"/>
      <point x="478" y="39"/>
      <point x="485" y="130" type="curve"/>
      <point x="481" y="130" type="line"/>
      <point x="485" y="39"/>
      <point x="539" y="-11"/>
      <point x="613" y="-11" type="curve" smooth="yes"/>
      <point x="700" y="-11"/>
      <point x="737" y="50"/>
      <point x="746" y="140" type="curve"/>
      <point x="757" y="158" type="line"/>
      <point x="737" y="158" type="line"/>
      <point x="727" y="79"/>
      <point x="696" y="20"/>
      <point x="616" y="20" type="curve" smooth="yes"/>
      <point x="539" y="20"/>
      <point x="501" y="78"/>
      <point x="500" y="180" type="curve" smooth="yes"/>
      <point x="498" y="488" type="line"/>
      <point x="469" y="488" type="line"/>
      <point x="467" y="180" type="line" smooth="yes"/>
      <point x="466" y="78"/>
      <point x="425" y="20"/>
      <point x="346" y="20" type="curve" smooth="yes"/>
      <point x="262" y="20"/>
      <point x="226" y="80"/>
      <point x="226" y="182" type="curve" smooth="yes"/>
      <point x="226" y="513" type="line" smooth="yes"/>
      <point x="226" y="620"/>
      <point x="254" y="686"/>
      <point x="326" y="719" type="curve"/>
      <point x="326" y="756" type="line"/>
      <point x="232" y="716"/>
      <point x="191" y="640"/>
      <point x="191" y="513" type="curve" smooth="yes"/>
      <point x="191" y="504" type="line"/>
      <point x="191" y="499"/>
      <point x="191" y="491"/>
      <point x="191" y="486" type="curve"/>
      <point x="191" y="182" type="line" smooth="yes"/>
      <point x="191" y="54"/>
      <point x="242" y="-11"/>
    </contour>
    <contour>
      <point x="733" y="0" type="line"/>
      <point x="768" y="0" type="line"/>
      <point x="768" y="1358" type="line"/>
      <point x="733" y="1358" type="line"/>
      <point x="737" y="1125" type="line"/>
      <point x="733" y="1095" type="line"/>
      <point x="733" y="985" type="line"/>
      <point x="733" y="123" type="line"/>
      <point x="737" y="116" type="line"/>
    </contour>
  </outline>
</glyph>
<glyph name="Nga.or" format="2">
  <advance width="986"/>
  <unicode hex="0B19"/>
  <anchor x="471" y="13" name="bottom"/>
  <anchor x="458" y="13" name="nukta"/>
  <anchor x="431" y="1646" name="top1"/>
  <anchor x="694" y="1449" name="top2"/>
  <outline>
    <contour>
      <point x="253" y="504" type="curve"/>
      <point x="260" y="537" type="line"/>
      <point x="153" y="595"/>
      <point x="119" y="683"/>
      <point x="119" y="823" type="curve" smooth="yes"/>
      <point x="119" y="1001" type="line" smooth="yes"/>
      <point x="119" y="1218"/>
      <point x="223" y="1347"/>
      <point x="429" y="1347" type="curve" smooth="yes"/>
      <point x="555" y="1347"/>
      <point x="640" y="1303"/>
      <point x="691" y="1228" type="curve"/>
      <point x="707" y="1256" type="line"/>
      <point x="640" y="1339"/>
      <point x="554" y="1378"/>
      <point x="431" y="1378" type="curve" smooth="yes"/>
      <point x="202" y="1378"/>
      <point x="84" y="1242"/>
      <point x="84" y="1001" type="curve" smooth="yes"/>
      <point x="84" y="822" type="line" smooth="yes"/>
      <point x="84" y="669"/>
      <point x="130" y="566"/>
    </contour>
    <contour>
      <point x="433" y="-13" type="curve" smooth="yes"/>
      <point x="561" y="-13"/>
      <point x="624" y="67"/>
      <point x="624" y="226" type="curve" smooth="yes"/>
      <point x="624" y="410" type="line" smooth="yes"/>
      <point x="624" y="523"/>
      <point x="589" y="580"/>
      <point x="532" y="605" type="curve"/>
      <point x="532" y="609" type="line"/>
      <point x="522" y="574" type="line"/>
      <point x="568" y="552"/>
      <point x="589" y="500"/>
      <point x="589" y="410" type="curve" smooth="yes"/>
      <point x="589" y="226" type="line" smooth="yes"/>
      <point x="589" y="89"/>
      <point x="539" y="18"/>
      <point x="433" y="18" type="curve" smooth="yes"/>
      <point x="324" y="18"/>
      <point x="277" y="89"/>
      <point x="277" y="226" type="curve" smooth="yes"/>
      <point x="277" y="513" type="line" smooth="yes"/>
      <point x="277" y="620"/>
      <point x="303" y="686"/>
      <point x="364" y="719" type="curve"/>
      <point x="364" y="756" type="line"/>
      <point x="279" y="716"/>
      <point x="242" y="640"/>
      <point x="242" y="513" type="curve"/>
      <point x="242" y="504" type="line"/>
      <point x="242" y="497"/>
      <point x="242" y="491"/>
      <point x="242" y="486" type="curve" smooth="yes"/>
      <point x="242" y="226" type="line" smooth="yes"/>
      <point x="242" y="69"/>
      <point x="305" y="-13"/>
    </contour>
    <contour>
      <point x="395" y="388" type="line"/>
      <point x="526" y="574" type="line"/>
      <point x="533" y="587" type="line"/>
      <point x="640" y="743" type="line"/>
      <point x="640" y="799" type="line"/>
      <point x="395" y="442" type="line"/>
    </contour>
    <contour>
      <point x="804" y="851" type="curve" smooth="yes"/>
      <point x="889" y="851"/>
      <point x="937" y="906"/>
      <point x="937" y="1011" type="curve" smooth="yes"/>
      <point x="937" y="1175" type="line" smooth="yes"/>
      <point x="937" y="1281"/>
      <point x="889" y="1336"/>
      <point x="804" y="1336" type="curve" smooth="yes"/>
      <point x="759" y="1336"/>
      <point x="722" y="1318"/>
      <point x="700" y="1285" type="curve"/>
      <point x="692" y="1273" type="line"/>
      <point x="678" y="1248"/>
      <point x="670" y="1215"/>
      <point x="670" y="1175" type="curve" smooth="yes"/>
      <point x="670" y="1011" type="line" smooth="yes"/>
      <point x="670" y="906"/>
      <point x="719" y="851"/>
    </contour>
    <contour>
      <point x="804" y="880" type="curve" smooth="yes"/>
      <point x="738" y="880"/>
      <point x="703" y="926"/>
      <point x="703" y="1012" type="curve" smooth="yes"/>
      <point x="703" y="1175" type="line" smooth="yes"/>
      <point x="703" y="1260"/>
      <point x="739" y="1307"/>
      <point x="804" y="1307" type="curve" smooth="yes"/>
      <point x="870" y="1307"/>
      <point x="904" y="1260"/>
      <point x="904" y="1175" type="curve" smooth="yes"/>
      <point x="904" y="1012" type="line" smooth="yes"/>
      <point x="904" y="926"/>
      <point x="870" y="880"/>
    </contour>
  </outline>
</glyph>
<glyph name="Ca.or" format="2">
  <advance width="863"/>
  <unicode hex="0B1A"/>
  <anchor x="473" y="13" name="bottom"/>
  <anchor x="437" y="13" name="nukta"/>
  <anchor x="437" y="1646" name="top1"/>
  <anchor x="653" y="1449" name="top2"/>
  <outline>
    <contour>
      <point x="285" y="489" type="curve"/>
      <point x="294" y="520" type="line"/>
      <point x="161" y="579"/>
      <point x="119" y="672"/>
      <point x="119" y="823" type="curve" smooth="yes"/>
      <point x="119" y="1000" type="line" smooth="yes"/>
      <point x="119" y="1217"/>
      <point x="223" y="1347"/>
      <point x="435" y="1347" type="curve" smooth="yes"/>
      <point x="647" y="1347"/>
      <point x="742" y="1217"/>
      <point x="742" y="1000" type="curve" smooth="yes"/>
      <point x="742" y="783" type="line" smooth="yes"/>
      <point x="742" y="698"/>
      <point x="723" y="624"/>
      <point x="688" y="550" type="curve"/>
      <point x="727" y="556" type="line"/>
      <point x="758" y="624"/>
      <point x="777" y="689"/>
      <point x="777" y="787" type="curve" smooth="yes"/>
      <point x="777" y="1000" type="line" smooth="yes"/>
      <point x="777" y="1239"/>
      <point x="669" y="1378"/>
      <point x="437" y="1378" type="curve" smooth="yes"/>
      <point x="203" y="1378"/>
      <point x="84" y="1241"/>
      <point x="84" y="1000" type="curve" smooth="yes"/>
      <point x="84" y="822" type="line" smooth="yes"/>
      <point x="84" y="659"/>
      <point x="138" y="550"/>
    </contour>
    <contour>
      <point x="435" y="-13" type="curve" smooth="yes"/>
      <point x="549" y="-13"/>
      <point x="607" y="61"/>
      <point x="607" y="203" type="curve" smooth="yes"/>
      <point x="607" y="531" type="line" smooth="yes"/>
      <point x="607" y="673"/>
      <point x="549" y="749"/>
      <point x="435" y="749" type="curve" smooth="yes"/>
      <point x="321" y="749"/>
      <point x="263" y="670"/>
      <point x="263" y="531" type="curve"/>
      <point x="263" y="520" type="line"/>
      <point x="263" y="514"/>
      <point x="263" y="510"/>
      <point x="263" y="504" type="curve" smooth="yes"/>
      <point x="263" y="203" type="line" smooth="yes"/>
      <point x="263" y="61"/>
      <point x="321" y="-13"/>
    </contour>
    <contour>
      <point x="435" y="18" type="curve" smooth="yes"/>
      <point x="338" y="18"/>
      <point x="298" y="83"/>
      <point x="298" y="203" type="curve" smooth="yes"/>
      <point x="298" y="531" type="line" smooth="yes"/>
      <point x="298" y="651"/>
      <point x="338" y="718"/>
      <point x="435" y="718" type="curve" smooth="yes"/>
      <point x="527" y="718"/>
      <point x="572" y="651"/>
      <point x="572" y="531" type="curve" smooth="yes"/>
      <point x="572" y="203" type="line" smooth="yes"/>
      <point x="572" y="83"/>
      <point x="527" y="18"/>
    </contour>
  </outline>
</glyph>
<glyph name="Cha.or" format="2">
  <advance width="863"/>
  <unicode hex="0B1B"/>
  <anchor x="506" y="-94" name="bottom"/>
  <anchor x="437" y="-47" name="nukta"/>
  <anchor x="437" y="1646" name="top1"/>
  <anchor x="653" y="1449" name="top2"/>
  <outline>
    <contour>
      <point x="284" y="489" type="curve"/>
      <point x="293" y="520" type="line"/>
      <point x="161" y="579"/>
      <point x="119" y="673"/>
      <point x="119" y="823" type="curve" smooth="yes"/>
      <point x="119" y="1000" type="line" smooth="yes"/>
      <point x="119" y="1217"/>
      <point x="224" y="1347"/>
      <point x="435" y="1347" type="curve" smooth="yes"/>
      <point x="647" y="1347"/>
      <point x="742" y="1217"/>
      <point x="742" y="1000" type="curve" smooth="yes"/>
      <point x="742" y="783" type="line" smooth="yes"/>
      <point x="742" y="698"/>
      <point x="723" y="624"/>
      <point x="688" y="550" type="curve"/>
      <point x="727" y="556" type="line"/>
      <point x="758" y="624"/>
      <point x="777" y="689"/>
      <point x="777" y="787" type="curve" smooth="yes"/>
      <point x="777" y="1000" type="line" smooth="yes"/>
      <point x="777" y="1239"/>
      <point x="669" y="1378"/>
      <point x="437" y="1378" type="curve" smooth="yes"/>
      <point x="203" y="1378"/>
      <point x="84" y="1241"/>
      <point x="84" y="1000" type="curve" smooth="yes"/>
      <point x="84" y="822" type="line" smooth="yes"/>
      <point x="84" y="658"/>
      <point x="137" y="550"/>
    </contour>
    <contour>
      <point x="272" y="-171" type="curve" smooth="yes"/>
      <point x="354" y="-171"/>
      <point x="395" y="-124"/>
      <point x="441" y="-21" type="curve"/>
      <point x="449" y="0" type="line"/>
      <point x="498" y="115"/>
      <point x="539" y="158"/>
      <point x="599" y="158" type="curve" smooth="yes"/>
      <point x="660" y="158"/>
      <point x="691" y="108"/>
      <point x="691" y="34" type="curve" smooth="yes"/>
      <point x="691" y="-18" type="line" smooth="yes"/>
      <point x="691" y="-90"/>
      <point x="658" y="-140"/>
      <point x="597" y="-140" type="curve" smooth="yes"/>
      <point x="533" y="-140"/>
      <point x="491" y="-96"/>
      <point x="447" y="16" type="curve"/>
      <point x="437" y="37" type="line"/>
      <point x="392" y="141"/>
      <point x="333" y="188"/>
      <point x="270" y="188" type="curve" smooth="yes"/>
      <point x="191" y="188"/>
      <point x="146" y="125"/>
      <point x="146" y="36" type="curve" smooth="yes"/>
      <point x="146" y="-20" type="line" smooth="yes"/>
      <point x="146" y="-109"/>
      <point x="193" y="-171"/>
    </contour>
    <contour>
      <point x="599" y="-171" type="curve" smooth="yes"/>
      <point x="678" y="-171"/>
      <point x="725" y="-109"/>
      <point x="725" y="-20" type="curve" smooth="yes"/>
      <point x="725" y="35" type="line" smooth="yes"/>
      <point x="725" y="126"/>
      <point x="680" y="188"/>
      <point x="601" y="188" type="curve" smooth="yes"/>
      <point x="545" y="188"/>
      <point x="478" y="141"/>
      <point x="431" y="28" type="curve"/>
      <point x="424" y="16" type="line"/>
      <point x="378" y="-96"/>
      <point x="339" y="-140"/>
      <point x="274" y="-140" type="curve" smooth="yes"/>
      <point x="213" y="-140"/>
      <point x="180" y="-90"/>
      <point x="180" y="-18" type="curve" smooth="yes"/>
      <point x="180" y="35" type="line" smooth="yes"/>
      <point x="180" y="108"/>
      <point x="211" y="158"/>
      <point x="272" y="158" type="curve" smooth="yes"/>
      <point x="332" y="158"/>
      <point x="374" y="115"/>
      <point x="422" y="0" type="curve"/>
      <point x="430" y="-21" type="line"/>
      <point x="476" y="-124"/>
      <point x="518" y="-171"/>
    </contour>
    <contour>
      <point x="435" y="118" type="curve"/>
      <point x="549" y="118"/>
      <point x="607" y="192"/>
      <point x="607" y="334" type="curve" smooth="yes"/>
      <point x="607" y="567" type="line" smooth="yes"/>
      <point x="607" y="710"/>
      <point x="549" y="785"/>
      <point x="435" y="785" type="curve" smooth="yes"/>
      <point x="321" y="785"/>
      <point x="263" y="705"/>
      <point x="263" y="567" type="curve"/>
      <point x="263" y="556" type="line"/>
      <point x="263" y="550"/>
      <point x="263" y="545"/>
      <point x="263" y="539" type="curve" smooth="yes"/>
      <point x="263" y="334" type="line" smooth="yes"/>
      <point x="263" y="192"/>
      <point x="321" y="118"/>
    </contour>
    <contour>
      <point x="435" y="149" type="curve" smooth="yes"/>
      <point x="338" y="149"/>
      <point x="298" y="214"/>
      <point x="298" y="334" type="curve" smooth="yes"/>
      <point x="298" y="567" type="line" smooth="yes"/>
      <point x="298" y="687"/>
      <point x="340" y="754"/>
      <point x="435" y="754" type="curve" smooth="yes"/>
      <point x="527" y="754"/>
      <point x="572" y="688"/>
      <point x="572" y="567" type="curve" smooth="yes"/>
      <point x="572" y="334" type="line" smooth="yes"/>
      <point x="572" y="214"/>
      <point x="527" y="149"/>
    </contour>
  </outline>
</glyph>
<glyph name="Ja.or" format="2">
  <advance width="919"/>
  <unicode hex="0B1C"/>
  <anchor x="698" y="13" name="bottom"/>
  <anchor x="458" y="13" name="nukta"/>
  <anchor x="458" y="1633" name="top1"/>
  <anchor x="698" y="1436" name="top2"/>
  <outline>
    <contour>
      <point x="211" y="519" type="curve"/>
      <point x="221" y="551" type="line"/>
      <point x="150" y="595"/>
      <point x="119" y="676"/>
      <point x="119" y="815" type="curve" smooth="yes"/>
      <point x="119" y="985" type="line" smooth="yes"/>
      <point x="119" y="1213"/>
      <point x="230" y="1347"/>
      <point x="458" y="1347" type="curve" smooth="yes"/>
      <point x="692" y="1347"/>
      <point x="798" y="1213"/>
      <point x="798" y="985" type="curve" smooth="yes"/>
      <point x="798" y="769" type="line" smooth="yes"/>
      <point x="798" y="695"/>
      <point x="795" y="624"/>
      <point x="769" y="550" type="curve"/>
      <point x="804" y="558" type="line"/>
      <point x="828" y="627"/>
      <point x="833" y="691"/>
      <point x="833" y="773" type="curve" smooth="yes"/>
      <point x="833" y="985" type="line" smooth="yes"/>
      <point x="833" y="1235"/>
      <point x="715" y="1378"/>
      <point x="460" y="1378" type="curve" smooth="yes"/>
      <point x="209" y="1378"/>
      <point x="84" y="1237"/>
      <point x="84" y="985" type="curve" smooth="yes"/>
      <point x="84" y="813" type="line" smooth="yes"/>
      <point x="84" y="658"/>
      <point x="120" y="563"/>
    </contour>
    <contour>
      <point x="346" y="-9" type="curve" smooth="yes"/>
      <point x="446" y="-9"/>
      <point x="494" y="57"/>
      <point x="494" y="189" type="curve" smooth="yes"/>
      <point x="494" y="344" type="line" smooth="yes"/>
      <point x="494" y="460"/>
      <point x="472" y="513"/>
      <point x="428" y="540" type="curve"/>
      <point x="421" y="528" type="line"/>
      <point x="679" y="705" type="line"/>
      <point x="665" y="714" type="line"/>
      <point x="663" y="646"/>
      <point x="663" y="578"/>
      <point x="663" y="510" type="curve" smooth="yes"/>
      <point x="663" y="0" type="line"/>
      <point x="698" y="0" type="line"/>
      <point x="698" y="714" type="line"/>
      <point x="666" y="734" type="line"/>
      <point x="401" y="551" type="line"/>
      <point x="401" y="519" type="line"/>
      <point x="442" y="500"/>
      <point x="461" y="449"/>
      <point x="461" y="346" type="curve" smooth="yes"/>
      <point x="461" y="189" type="line" smooth="yes"/>
      <point x="461" y="79"/>
      <point x="426" y="22"/>
      <point x="346" y="22" type="curve" smooth="yes"/>
      <point x="265" y="22"/>
      <point x="231" y="79"/>
      <point x="231" y="189" type="curve" smooth="yes"/>
      <point x="231" y="513" type="line" smooth="yes"/>
      <point x="231" y="620"/>
      <point x="259" y="686"/>
      <point x="323" y="719" type="curve"/>
      <point x="323" y="756" type="line"/>
      <point x="235" y="716"/>
      <point x="196" y="640"/>
      <point x="196" y="513" type="curve"/>
      <point x="196" y="504" type="line"/>
      <point x="196" y="497"/>
      <point x="196" y="492"/>
      <point x="196" y="486" type="curve" smooth="yes"/>
      <point x="196" y="189" type="line" smooth="yes"/>
      <point x="196" y="59"/>
      <point x="245" y="-9"/>
    </contour>
  </outline>
</glyph>
<glyph name="Jha.or" format="2">
  <advance width="855"/>
  <unicode hex="0B1D"/>
  <anchor x="434" y="13" name="bottom"/>
  <anchor x="427" y="13" name="nukta"/>
  <anchor x="437" y="1646" name="top1"/>
  <anchor x="624" y="1449" name="top2"/>
  <outline>
    <contour>
      <point x="244" y="510" type="curve"/>
      <point x="246" y="545" type="line"/>
      <point x="151" y="604"/>
      <point x="119" y="684"/>
      <point x="119" y="822" type="curve" smooth="yes"/>
      <point x="119" y="995" type="line" smooth="yes"/>
      <point x="119" y="1212"/>
      <point x="204" y="1338"/>
      <point x="381" y="1338" type="curve" smooth="yes"/>
      <point x="418" y="1338"/>
      <point x="443" y="1332"/>
      <point x="463" y="1323" type="curve"/>
      <point x="449" y="1345" type="line"/>
      <point x="449" y="1290"/>
      <point x="449" y="1239"/>
      <point x="449" y="1176" type="curve" smooth="yes"/>
      <point x="449" y="994" type="line" smooth="yes"/>
      <point x="449" y="858"/>
      <point x="500" y="788"/>
      <point x="609" y="788" type="curve" smooth="yes"/>
      <point x="718" y="788"/>
      <point x="771" y="859"/>
      <point x="771" y="997" type="curve" smooth="yes"/>
      <point x="771" y="1176" type="line" smooth="yes"/>
      <point x="771" y="1237"/>
      <point x="771" y="1297"/>
      <point x="771" y="1358" type="curve"/>
      <point x="736" y="1358" type="line"/>
      <point x="736" y="1297"/>
      <point x="736" y="1237"/>
      <point x="736" y="1176" type="curve" smooth="yes"/>
      <point x="736" y="995" type="line" smooth="yes"/>
      <point x="736" y="877"/>
      <point x="695" y="819"/>
      <point x="609" y="819" type="curve" smooth="yes"/>
      <point x="521" y="819"/>
      <point x="482" y="878"/>
      <point x="482" y="992" type="curve" smooth="yes"/>
      <point x="482" y="1176" type="line" smooth="yes"/>
      <point x="482" y="1242"/>
      <point x="482" y="1288"/>
      <point x="482" y="1349" type="curve"/>
      <point x="456" y="1360"/>
      <point x="419" y="1369"/>
      <point x="379" y="1369" type="curve" smooth="yes"/>
      <point x="184" y="1369"/>
      <point x="84" y="1233"/>
      <point x="84" y="994" type="curve" smooth="yes"/>
      <point x="84" y="821" type="line" smooth="yes"/>
      <point x="84" y="666"/>
      <point x="125" y="571"/>
    </contour>
    <contour>
      <point x="787" y="-99" type="line"/>
      <point x="787" y="-53" type="line"/>
      <point x="542" y="153" type="line"/>
      <point x="535" y="116" type="line"/>
    </contour>
    <contour>
      <point x="396" y="-13" type="curve" smooth="yes"/>
      <point x="482" y="-13"/>
      <point x="536" y="30"/>
      <point x="558" y="111" type="curve"/>
      <point x="562" y="129" type="line"/>
      <point x="566" y="151"/>
      <point x="568" y="176"/>
      <point x="568" y="203" type="curve" smooth="yes"/>
      <point x="568" y="523" type="line" smooth="yes"/>
      <point x="568" y="665"/>
      <point x="510" y="741"/>
      <point x="396" y="741" type="curve" smooth="yes"/>
      <point x="282" y="741"/>
      <point x="224" y="662"/>
      <point x="224" y="523" type="curve"/>
      <point x="224" y="512" type="line"/>
      <point x="224" y="506"/>
      <point x="224" y="502"/>
      <point x="224" y="496" type="curve" smooth="yes"/>
      <point x="224" y="203" type="line" smooth="yes"/>
      <point x="224" y="61"/>
      <point x="282" y="-13"/>
    </contour>
    <contour>
      <point x="396" y="18" type="curve" smooth="yes"/>
      <point x="299" y="18"/>
      <point x="259" y="83"/>
      <point x="259" y="203" type="curve" smooth="yes"/>
      <point x="259" y="523" type="line" smooth="yes"/>
      <point x="259" y="643"/>
      <point x="299" y="710"/>
      <point x="396" y="710" type="curve" smooth="yes"/>
      <point x="488" y="710"/>
      <point x="533" y="643"/>
      <point x="533" y="523" type="curve" smooth="yes"/>
      <point x="533" y="203" type="line" smooth="yes"/>
      <point x="533" y="83"/>
      <point x="488" y="18"/>
    </contour>
  </outline>
</glyph>
<glyph name="Nya.or" format="2">
  <advance width="890"/>
  <unicode hex="0B1E"/>
  <anchor x="506" y="13" name="bottom"/>
  <anchor x="466" y="13" name="nukta"/>
  <anchor x="466" y="1646" name="top1"/>
  <anchor x="714" y="1449" name="top2"/>
  <outline>
    <contour>
      <point x="353" y="182" type="curve"/>
      <point x="387" y="175" type="line"/>
      <point x="367" y="237"/>
      <point x="356" y="286"/>
      <point x="356" y="359" type="curve" smooth="yes"/>
      <point x="356" y="528" type="line" smooth="yes"/>
      <point x="356" y="613"/>
      <point x="380" y="667"/>
      <point x="446" y="667" type="curve" smooth="yes"/>
      <point x="512" y="667"/>
      <point x="544" y="619"/>
      <point x="544" y="527" type="curve" smooth="yes"/>
      <point x="544" y="206" type="line"/>
      <point x="577" y="206" type="line"/>
      <point x="577" y="527" type="line" smooth="yes"/>
      <point x="577" y="627"/>
      <point x="610" y="675"/>
      <point x="671" y="675" type="curve" smooth="yes"/>
      <point x="741" y="675"/>
      <point x="765" y="625"/>
      <point x="765" y="531" type="curve" smooth="yes"/>
      <point x="765" y="318" type="line" smooth="yes"/>
      <point x="765" y="127"/>
      <point x="665" y="22"/>
      <point x="468" y="22" type="curve" smooth="yes"/>
      <point x="249" y="22"/>
      <point x="139" y="130"/>
      <point x="139" y="320" type="curve" smooth="yes"/>
      <point x="139" y="510" type="line" smooth="yes"/>
      <point x="139" y="628"/>
      <point x="155" y="684"/>
      <point x="194" y="765" type="curve"/>
      <point x="168" y="789" type="line"/>
      <point x="128" y="709"/>
      <point x="104" y="636"/>
      <point x="104" y="510" type="curve" smooth="yes"/>
      <point x="104" y="323" type="line" smooth="yes"/>
      <point x="104" y="109"/>
      <point x="227" y="-11"/>
      <point x="468" y="-11" type="curve" smooth="yes"/>
      <point x="685" y="-11"/>
      <point x="798" y="109"/>
      <point x="798" y="318" type="curve" smooth="yes"/>
      <point x="798" y="531" type="line" smooth="yes"/>
      <point x="798" y="649"/>
      <point x="758" y="706"/>
      <point x="672" y="706" type="curve" smooth="yes"/>
      <point x="612" y="706"/>
      <point x="565" y="661"/>
      <point x="558" y="579" type="curve"/>
      <point x="562" y="581" type="line"/>
      <point x="556" y="659"/>
      <point x="510" y="698"/>
      <point x="447" y="698" type="curve" smooth="yes"/>
      <point x="367" y="698"/>
      <point x="323" y="640"/>
      <point x="323" y="528" type="curve"/>
      <point x="323" y="360" type="line" smooth="yes"/>
      <point x="323" y="287"/>
      <point x="333" y="240"/>
    </contour>
    <contour>
      <point x="353" y="844" type="curve"/>
      <point x="387" y="837" type="line"/>
      <point x="367" y="899"/>
      <point x="356" y="948"/>
      <point x="356" y="1021" type="curve" smooth="yes"/>
      <point x="356" y="1190" type="line" smooth="yes"/>
      <point x="356" y="1275"/>
      <point x="380" y="1329"/>
      <point x="446" y="1329" type="curve" smooth="yes"/>
      <point x="512" y="1329"/>
      <point x="544" y="1281"/>
      <point x="544" y="1189" type="curve" smooth="yes"/>
      <point x="544" y="868" type="line"/>
      <point x="577" y="868" type="line"/>
      <point x="577" y="1189" type="line" smooth="yes"/>
      <point x="577" y="1281"/>
      <point x="610" y="1329"/>
      <point x="673" y="1329" type="curve" smooth="yes"/>
      <point x="741" y="1329"/>
      <point x="765" y="1279"/>
      <point x="765" y="1192" type="curve" smooth="yes"/>
      <point x="765" y="987" type="line" smooth="yes"/>
      <point x="765" y="802"/>
      <point x="662" y="698"/>
      <point x="462" y="698" type="curve" smooth="yes"/>
      <point x="254" y="698"/>
      <point x="135" y="811"/>
      <point x="135" y="989" type="curve" smooth="yes"/>
      <point x="135" y="1087" type="line" smooth="yes"/>
      <point x="135" y="1218"/>
      <point x="144" y="1277"/>
      <point x="174" y="1358" type="curve"/>
      <point x="137" y="1358" type="line"/>
      <point x="108" y="1275"/>
      <point x="100" y="1219"/>
      <point x="100" y="1085" type="curve" smooth="yes"/>
      <point x="100" y="997" type="line" smooth="yes"/>
      <point x="100" y="900"/>
      <point x="126" y="827"/>
      <point x="175" y="774" type="curve"/>
      <point x="188" y="759" type="line"/>
      <point x="232" y="710"/>
      <point x="315" y="676"/>
      <point x="399" y="667" type="curve"/>
      <point x="452" y="668" type="line"/>
      <point x="470" y="668" type="line"/>
      <point x="527" y="668"/>
      <point x="580" y="675"/>
      <point x="643" y="701" type="curve"/>
      <point x="741" y="749"/>
      <point x="798" y="844"/>
      <point x="798" y="987" type="curve" smooth="yes"/>
      <point x="798" y="1192" type="line" smooth="yes"/>
      <point x="798" y="1303"/>
      <point x="758" y="1360"/>
      <point x="677" y="1360" type="curve" smooth="yes"/>
      <point x="610" y="1360"/>
      <point x="565" y="1321"/>
      <point x="558" y="1243" type="curve"/>
      <point x="562" y="1243" type="line"/>
      <point x="556" y="1321"/>
      <point x="510" y="1360"/>
      <point x="447" y="1360" type="curve" smooth="yes"/>
      <point x="364" y="1360"/>
      <point x="323" y="1302"/>
      <point x="323" y="1190" type="curve" smooth="yes"/>
      <point x="323" y="1022" type="line" smooth="yes"/>
      <point x="323" y="949"/>
      <point x="333" y="902"/>
    </contour>
  </outline>
</glyph>
<glyph name="Tta.or" format="2">
  <advance width="852"/>
  <unicode hex="0B1F"/>
  <anchor x="471" y="13" name="bottom"/>
  <anchor x="437" y="13" name="nukta"/>
  <anchor x="426" y="1646" name="top1"/>
  <anchor x="633" y="1449" name="top2"/>
  <outline>
    <contour>
      <point x="281" y="495" type="curve"/>
      <point x="290" y="526" type="line"/>
      <point x="159" y="583"/>
      <point x="119" y="678"/>
      <point x="119" y="825" type="curve" smooth="yes"/>
      <point x="119" y="1007" type="line" smooth="yes"/>
      <point x="119" y="1224"/>
      <point x="219" y="1347"/>
      <point x="418" y="1347" type="curve" smooth="yes"/>
      <point x="626" y="1347"/>
      <point x="718" y="1213"/>
      <point x="722" y="1027" type="curve"/>
      <point x="731" y="1123" type="line"/>
      <point x="714" y="1276"/>
      <point x="607" y="1378"/>
      <point x="420" y="1378" type="curve" smooth="yes"/>
      <point x="199" y="1378"/>
      <point x="84" y="1243"/>
      <point x="84" y="1005" type="curve" smooth="yes"/>
      <point x="84" y="824" type="line" smooth="yes"/>
      <point x="84" y="664"/>
      <point x="133" y="554"/>
    </contour>
    <contour>
      <point x="433" y="-13" type="curve" smooth="yes"/>
      <point x="547" y="-13"/>
      <point x="605" y="61"/>
      <point x="605" y="203" type="curve" smooth="yes"/>
      <point x="605" y="531" type="line" smooth="yes"/>
      <point x="605" y="673"/>
      <point x="547" y="749"/>
      <point x="433" y="749" type="curve" smooth="yes"/>
      <point x="319" y="749"/>
      <point x="261" y="670"/>
      <point x="261" y="531" type="curve"/>
      <point x="261" y="520" type="line"/>
      <point x="261" y="514"/>
      <point x="261" y="510"/>
      <point x="261" y="504" type="curve" smooth="yes"/>
      <point x="261" y="203" type="line" smooth="yes"/>
      <point x="261" y="61"/>
      <point x="319" y="-13"/>
    </contour>
    <contour>
      <point x="433" y="18" type="curve" smooth="yes"/>
      <point x="336" y="18"/>
      <point x="296" y="83"/>
      <point x="296" y="203" type="curve" smooth="yes"/>
      <point x="296" y="531" type="line" smooth="yes"/>
      <point x="296" y="651"/>
      <point x="336" y="718"/>
      <point x="433" y="718" type="curve" smooth="yes"/>
      <point x="525" y="718"/>
      <point x="570" y="651"/>
      <point x="570" y="531" type="curve" smooth="yes"/>
      <point x="570" y="203" type="line" smooth="yes"/>
      <point x="570" y="83"/>
      <point x="525" y="18"/>
    </contour>
    <contour>
      <point x="722" y="828" type="line"/>
      <point x="757" y="828" type="line"/>
      <point x="757" y="1358" type="line"/>
      <point x="722" y="1358" type="line"/>
      <point x="726" y="1132" type="line"/>
      <point x="716" y="1132" type="line"/>
      <point x="722" y="1103" type="line"/>
    </contour>
  </outline>
</glyph>
<glyph name="Ttha.or" format="2">
  <advance width="777"/>
  <unicode hex="0B20"/>
  <anchor x="427" y="13" name="bottom"/>
  <anchor x="389" y="13" name="nukta"/>
  <anchor x="389" y="1646" name="top1"/>
  <anchor x="583" y="1449" name="top2"/>
  <outline>
    <contour>
      <point x="389" y="-11" type="curve" smooth="yes"/>
      <point x="578" y="-11"/>
      <point x="674" y="122"/>
      <point x="674" y="349" type="curve" smooth="yes"/>
      <point x="674" y="1018" type="line" smooth="yes"/>
      <point x="674" y="1245"/>
      <point x="578" y="1378"/>
      <point x="389" y="1378" type="curve" smooth="yes"/>
      <point x="200" y="1378"/>
      <point x="103" y="1245"/>
      <point x="103" y="1018" type="curve" smooth="yes"/>
      <point x="103" y="349" type="line" smooth="yes"/>
      <point x="103" y="122"/>
      <point x="200" y="-11"/>
    </contour>
    <contour>
      <point x="389" y="20" type="curve" smooth="yes"/>
      <point x="220" y="20"/>
      <point x="138" y="145"/>
      <point x="138" y="349" type="curve" smooth="yes"/>
      <point x="138" y="1018" type="line" smooth="yes"/>
      <point x="138" y="1222"/>
      <point x="220" y="1347"/>
      <point x="389" y="1347" type="curve" smooth="yes"/>
      <point x="554" y="1347"/>
      <point x="639" y="1222"/>
      <point x="639" y="1018" type="curve" smooth="yes"/>
      <point x="639" y="349" type="line" smooth="yes"/>
      <point x="639" y="145"/>
      <point x="554" y="20"/>
    </contour>
  </outline>
</glyph>
<glyph name="Dda.or" format="2">
  <advance width="887"/>
  <unicode hex="0B21"/>
  <anchor x="471" y="13" name="bottom"/>
  <anchor x="440" y="13" name="nukta"/>
  <anchor x="446" y="1646" name="top1"/>
  <anchor x="673" y="1449" name="top2"/>
  <outline>
    <contour>
      <point x="243" y="510" type="curve"/>
      <point x="250" y="543" type="line"/>
      <point x="151" y="600"/>
      <point x="119" y="686"/>
      <point x="119" y="823" type="curve" smooth="yes"/>
      <point x="119" y="991" type="line" smooth="yes"/>
      <point x="119" y="1214"/>
      <point x="227" y="1347"/>
      <point x="446" y="1347" type="curve" smooth="yes"/>
      <point x="667" y="1347"/>
      <point x="766" y="1214"/>
      <point x="766" y="991" type="curve" smooth="yes"/>
      <point x="766" y="783" type="line" smooth="yes"/>
      <point x="766" y="698"/>
      <point x="748" y="624"/>
      <point x="713" y="550" type="curve"/>
      <point x="751" y="556" type="line"/>
      <point x="782" y="624"/>
      <point x="801" y="691"/>
      <point x="801" y="787" type="curve" smooth="yes"/>
      <point x="801" y="991" type="line" smooth="yes"/>
      <point x="801" y="1236"/>
      <point x="689" y="1378"/>
      <point x="448" y="1378" type="curve" smooth="yes"/>
      <point x="207" y="1378"/>
      <point x="84" y="1238"/>
      <point x="84" y="991" type="curve" smooth="yes"/>
      <point x="84" y="822" type="line" smooth="yes"/>
      <point x="84" y="672"/>
      <point x="127" y="571"/>
    </contour>
    <contour>
      <point x="433" y="-13" type="curve" smooth="yes"/>
      <point x="561" y="-13"/>
      <point x="624" y="67"/>
      <point x="624" y="226" type="curve" smooth="yes"/>
      <point x="624" y="410" type="line" smooth="yes"/>
      <point x="624" y="523"/>
      <point x="589" y="580"/>
      <point x="532" y="605" type="curve"/>
      <point x="532" y="609" type="line"/>
      <point x="522" y="574" type="line"/>
      <point x="568" y="552"/>
      <point x="589" y="500"/>
      <point x="589" y="410" type="curve" smooth="yes"/>
      <point x="589" y="226" type="line" smooth="yes"/>
      <point x="589" y="89"/>
      <point x="539" y="18"/>
      <point x="433" y="18" type="curve" smooth="yes"/>
      <point x="324" y="18"/>
      <point x="277" y="89"/>
      <point x="277" y="226" type="curve" smooth="yes"/>
      <point x="277" y="513" type="line" smooth="yes"/>
      <point x="277" y="620"/>
      <point x="303" y="686"/>
      <point x="364" y="719" type="curve"/>
      <point x="364" y="756" type="line"/>
      <point x="279" y="716"/>
      <point x="242" y="640"/>
      <point x="242" y="513" type="curve"/>
      <point x="242" y="504" type="line"/>
      <point x="242" y="497"/>
      <point x="242" y="491"/>
      <point x="242" y="486" type="curve" smooth="yes"/>
      <point x="242" y="226" type="line" smooth="yes"/>
      <point x="242" y="69"/>
      <point x="305" y="-13"/>
    </contour>
    <contour>
      <point x="395" y="388" type="line"/>
      <point x="526" y="574" type="line"/>
      <point x="533" y="587" type="line"/>
      <point x="640" y="743" type="line"/>
      <point x="640" y="799" type="line"/>
      <point x="395" y="442" type="line"/>
    </contour>
  </outline>
</glyph>
<glyph name="Ddha.or" format="2">
  <advance width="887"/>
  <unicode hex="0B22"/>
  <anchor x="472" y="13" name="bottom"/>
  <anchor x="446" y="13" name="nukta"/>
  <anchor x="446" y="1646" name="top1"/>
  <anchor x="673" y="1449" name="top2"/>
  <outline>
    <contour>
      <point x="228" y="510" type="curve"/>
      <point x="235" y="543" type="line"/>
      <point x="147" y="600"/>
      <point x="119" y="686"/>
      <point x="119" y="823" type="curve" smooth="yes"/>
      <point x="119" y="991" type="line" smooth="yes"/>
      <point x="119" y="1215"/>
      <point x="227" y="1347"/>
      <point x="446" y="1347" type="curve" smooth="yes"/>
      <point x="666" y="1347"/>
      <point x="766" y="1215"/>
      <point x="766" y="991" type="curve" smooth="yes"/>
      <point x="766" y="783" type="line" smooth="yes"/>
      <point x="766" y="698"/>
      <point x="749" y="624"/>
      <point x="716" y="550" type="curve"/>
      <point x="755" y="556" type="line"/>
      <point x="784" y="624"/>
      <point x="801" y="689"/>
      <point x="801" y="787" type="curve" smooth="yes"/>
      <point x="801" y="991" type="line" smooth="yes"/>
      <point x="801" y="1237"/>
      <point x="689" y="1378"/>
      <point x="448" y="1378" type="curve" smooth="yes"/>
      <point x="207" y="1378"/>
      <point x="84" y="1239"/>
      <point x="84" y="991" type="curve" smooth="yes"/>
      <point x="84" y="822" type="line" smooth="yes"/>
      <point x="84" y="672"/>
      <point x="123" y="571"/>
    </contour>
    <contour>
      <point x="712" y="-75" type="curve"/>
      <point x="712" y="-38" type="line"/>
      <point x="659" y="-18"/>
      <point x="603" y="6"/>
      <point x="550" y="35" type="curve"/>
      <point x="522" y="17" type="line"/>
      <point x="584" y="-17"/>
      <point x="649" y="-50"/>
    </contour>
    <contour>
      <point x="433" y="-6" type="curve" smooth="yes"/>
      <point x="475" y="-6"/>
      <point x="507" y="2"/>
      <point x="535" y="16" type="curve"/>
      <point x="547" y="24" type="line"/>
      <point x="619" y="62"/>
      <point x="654" y="139"/>
      <point x="654" y="253" type="curve" smooth="yes"/>
      <point x="654" y="532" type="line" smooth="yes"/>
      <point x="654" y="630"/>
      <point x="613" y="681"/>
      <point x="534" y="681" type="curve" smooth="yes"/>
      <point x="454" y="681"/>
      <point x="412" y="628"/>
      <point x="412" y="532" type="curve" smooth="yes"/>
      <point x="412" y="215" type="line" smooth="yes"/>
      <point x="412" y="117"/>
      <point x="451" y="60"/>
      <point x="517" y="23" type="curve"/>
      <point x="541" y="40" type="line"/>
      <point x="481" y="80"/>
      <point x="445" y="120"/>
      <point x="445" y="215" type="curve" smooth="yes"/>
      <point x="445" y="534" type="line" smooth="yes"/>
      <point x="445" y="611"/>
      <point x="471" y="650"/>
      <point x="532" y="650" type="curve" smooth="yes"/>
      <point x="591" y="650"/>
      <point x="621" y="611"/>
      <point x="621" y="534" type="curve" smooth="yes"/>
      <point x="621" y="253" type="line" smooth="yes"/>
      <point x="621" y="143"/>
      <point x="590" y="71"/>
      <point x="516" y="40" type="curve"/>
      <point x="505" y="36" type="line"/>
      <point x="486" y="29"/>
      <point x="462" y="25"/>
      <point x="434" y="25" type="curve" smooth="yes"/>
      <point x="306" y="25"/>
      <point x="252" y="102"/>
      <point x="252" y="251" type="curve" smooth="yes"/>
      <point x="252" y="513" type="line" smooth="yes"/>
      <point x="252" y="620"/>
      <point x="280" y="688"/>
      <point x="344" y="719" type="curve"/>
      <point x="344" y="756" type="line"/>
      <point x="256" y="716"/>
      <point x="217" y="640"/>
      <point x="217" y="513" type="curve"/>
      <point x="217" y="504" type="line"/>
      <point x="217" y="497"/>
      <point x="217" y="492"/>
      <point x="217" y="486" type="curve" smooth="yes"/>
      <point x="217" y="251" type="line" smooth="yes"/>
      <point x="217" y="83"/>
      <point x="290" y="-6"/>
    </contour>
  </outline>
</glyph>
<glyph name="Ta.or" format="2">
  <advance width="892"/>
  <unicode hex="0B24"/>
  <anchor x="480" y="13" name="bottom"/>
  <anchor x="449" y="13" name="nukta"/>
  <anchor x="449" y="1646" name="top1"/>
  <anchor x="677" y="1449" name="top2"/>
  <outline>
    <contour>
      <point x="250" y="506" type="curve"/>
      <point x="257" y="539" type="line"/>
      <point x="153" y="597"/>
      <point x="119" y="684"/>
      <point x="119" y="822" type="curve" smooth="yes"/>
      <point x="119" y="992" type="line" smooth="yes"/>
      <point x="119" y="1215"/>
      <point x="228" y="1347"/>
      <point x="449" y="1347" type="curve" smooth="yes"/>
      <point x="672" y="1347"/>
      <point x="771" y="1215"/>
      <point x="771" y="992" type="curve" smooth="yes"/>
      <point x="771" y="782" type="line" smooth="yes"/>
      <point x="771" y="697"/>
      <point x="752" y="624"/>
      <point x="717" y="550" type="curve"/>
      <point x="756" y="556" type="line"/>
      <point x="787" y="624"/>
      <point x="806" y="690"/>
      <point x="806" y="786" type="curve" smooth="yes"/>
      <point x="806" y="992" type="line" smooth="yes"/>
      <point x="806" y="1237"/>
      <point x="693" y="1378"/>
      <point x="450" y="1378" type="curve" smooth="yes"/>
      <point x="207" y="1378"/>
      <point x="84" y="1239"/>
      <point x="84" y="992" type="curve" smooth="yes"/>
      <point x="84" y="821" type="line" smooth="yes"/>
      <point x="84" y="670"/>
      <point x="129" y="568"/>
    </contour>
    <contour>
      <point x="442" y="-13" type="curve" smooth="yes"/>
      <point x="573" y="-13"/>
      <point x="639" y="73"/>
      <point x="639" y="248" type="curve" smooth="yes"/>
      <point x="639" y="511" type="line" smooth="yes"/>
      <point x="639" y="642"/>
      <point x="596" y="691"/>
      <point x="538" y="691" type="curve" smooth="yes"/>
      <point x="505" y="691"/>
      <point x="487" y="671"/>
      <point x="487" y="630" type="curve"/>
      <point x="487" y="628" type="line"/>
      <point x="487" y="600"/>
      <point x="497" y="578"/>
      <point x="525" y="578" type="curve" smooth="yes"/>
      <point x="551" y="578"/>
      <point x="560" y="599"/>
      <point x="560" y="628" type="curve"/>
      <point x="560" y="629" type="line"/>
      <point x="560" y="658"/>
      <point x="544" y="668"/>
      <point x="527" y="671" type="curve"/>
      <point x="500" y="645" type="line"/>
      <point x="509" y="650"/>
      <point x="526" y="653"/>
      <point x="543" y="653" type="curve"/>
      <point x="575" y="653"/>
      <point x="604" y="619"/>
      <point x="604" y="507" type="curve" smooth="yes"/>
      <point x="604" y="248" type="line" smooth="yes"/>
      <point x="604" y="96"/>
      <point x="551" y="18"/>
      <point x="442" y="18" type="curve" smooth="yes"/>
      <point x="328" y="18"/>
      <point x="277" y="92"/>
      <point x="277" y="236" type="curve" smooth="yes"/>
      <point x="277" y="513" type="line" smooth="yes"/>
      <point x="277" y="620"/>
      <point x="305" y="686"/>
      <point x="369" y="719" type="curve"/>
      <point x="369" y="756" type="line"/>
      <point x="281" y="716"/>
      <point x="242" y="640"/>
      <point x="242" y="513" type="curve" smooth="yes"/>
      <point x="242" y="504" type="line"/>
      <point x="242" y="236" type="line" smooth="yes"/>
      <point x="242" y="72"/>
      <point x="305" y="-13"/>
    </contour>
  </outline>
</glyph>
<glyph name="Dha.or" format="2">
  <advance width="779"/>
  <unicode hex="0B27"/>
  <anchor x="659" y="13" name="bottom"/>
  <anchor x="395" y="13" name="nukta"/>
  <anchor x="368" y="1646" name="top1"/>
  <anchor x="624" y="1449" name="top2"/>
  <outline>
    <contour>
      <point x="370" y="-13" type="curve" smooth="yes"/>
      <point x="532" y="-13"/>
      <point x="633" y="83"/>
      <point x="639" y="239" type="curve"/>
      <point x="635" y="250" type="line"/>
      <point x="629" y="265" type="line"/>
      <point x="609" y="96"/>
      <point x="512" y="18"/>
      <point x="374" y="18" type="curve" smooth="yes"/>
      <point x="201" y="18"/>
      <point x="126" y="131"/>
      <point x="126" y="322" type="curve" smooth="yes"/>
      <point x="126" y="517" type="line" smooth="yes"/>
      <point x="126" y="684"/>
      <point x="179" y="791"/>
      <point x="353" y="828" type="curve"/>
      <point x="359" y="830"/>
      <point x="360" y="830"/>
      <point x="364" y="832" type="curve"/>
      <point x="350" y="861" type="line"/>
      <point x="346" y="859"/>
      <point x="343" y="859"/>
      <point x="337" y="857" type="curve"/>
      <point x="160" y="813"/>
      <point x="91" y="707"/>
      <point x="91" y="517" type="curve" smooth="yes"/>
      <point x="91" y="320" type="line" smooth="yes"/>
      <point x="91" y="110"/>
      <point x="176" y="-13"/>
    </contour>
    <contour>
      <point x="99" y="1358" type="line"/>
      <point x="60" y="1358" type="line"/>
      <point x="60" y="1358" type="line"/>
      <point x="337" y="847" type="line"/>
      <point x="344" y="834" type="line"/>
      <point x="470" y="604" type="line"/>
      <point x="478" y="604" type="line"/>
      <point x="478" y="651" type="line"/>
    </contour>
    <contour>
      <point x="624" y="0" type="line"/>
      <point x="659" y="0" type="line"/>
      <point x="659" y="1358" type="line"/>
      <point x="624" y="1358" type="line"/>
      <point x="624" y="184" type="line"/>
      <point x="617" y="177" type="line"/>
      <point x="626" y="177" type="line"/>
    </contour>
  </outline>
</glyph>
<glyph name="Pa.or" format="2">
  <advance width="854"/>
  <unicode hex="0B2A"/>
  <anchor x="734" y="13" name="bottom"/>
  <anchor x="492" y="13" name="nukta"/>
  <anchor x="412" y="1646" name="top1"/>
  <anchor x="699" y="1449" name="top2"/>
  <outline>
    <contour>
      <point x="699" y="0" type="line"/>
      <point x="734" y="0" type="line"/>
      <point x="734" y="1358" type="line"/>
      <point x="699" y="1358" type="line"/>
      <point x="702" y="1140" type="line"/>
      <point x="699" y="1111" type="line"/>
      <point x="699" y="1090" type="line"/>
      <point x="699" y="171" type="line"/>
      <point x="701" y="164" type="line"/>
    </contour>
    <contour>
      <point x="278" y="504" type="curve"/>
      <point x="282" y="539" type="line"/>
      <point x="154" y="585"/>
      <point x="119" y="689"/>
      <point x="119" y="843" type="curve" smooth="yes"/>
      <point x="119" y="1005" type="line" smooth="yes"/>
      <point x="119" y="1223"/>
      <point x="215" y="1347"/>
      <point x="405" y="1347" type="curve" smooth="yes"/>
      <point x="605" y="1347"/>
      <point x="695" y="1220"/>
      <point x="699" y="1039" type="curve"/>
      <point x="719" y="1039" type="line"/>
      <point x="710" y="1127" type="line"/>
      <point x="693" y="1277"/>
      <point x="588" y="1378"/>
      <point x="407" y="1378" type="curve" smooth="yes"/>
      <point x="193" y="1378"/>
      <point x="84" y="1242"/>
      <point x="84" y="1003" type="curve" smooth="yes"/>
      <point x="84" y="842" type="line" smooth="yes"/>
      <point x="84" y="674"/>
      <point x="129" y="556"/>
    </contour>
    <contour>
      <point x="491" y="-13" type="curve" smooth="yes"/>
      <point x="629" y="-13"/>
      <point x="710" y="80"/>
      <point x="713" y="230" type="curve"/>
      <point x="721" y="243" type="line"/>
      <point x="704" y="256" type="line"/>
      <point x="689" y="93"/>
      <point x="611" y="18"/>
      <point x="494" y="18" type="curve" smooth="yes"/>
      <point x="347" y="18"/>
      <point x="286" y="119"/>
      <point x="286" y="291" type="curve" smooth="yes"/>
      <point x="286" y="458" type="line" smooth="yes"/>
      <point x="286" y="600"/>
      <point x="338" y="695"/>
      <point x="437" y="723" type="curve"/>
      <point x="437" y="756" type="line"/>
      <point x="315" y="722"/>
      <point x="271" y="629"/>
      <point x="257" y="528" type="curve"/>
      <point x="255" y="517" type="line"/>
      <point x="252" y="508"/>
      <point x="251" y="480"/>
      <point x="251" y="458" type="curve"/>
      <point x="251" y="289" type="line" smooth="yes"/>
      <point x="251" y="98"/>
      <point x="324" y="-13"/>
    </contour>
  </outline>
</glyph>
<glyph name="Pha.or" format="2">
  <advance width="1007"/>
  <unicode hex="0B2B"/>
  <anchor x="734" y="13" name="bottom"/>
  <anchor x="492" y="13" name="nukta"/>
  <anchor x="416" y="1646" name="top1"/>
  <anchor x="703" y="1449" name="top2"/>
  <anchor x="734" y="1424" name="top3"/>
  <outline>
    <contour>
      <point x="278" y="504" type="curve"/>
      <point x="282" y="539" type="line"/>
      <point x="154" y="585"/>
      <point x="119" y="689"/>
      <point x="119" y="843" type="curve" smooth="yes"/>
      <point x="119" y="1005" type="line" smooth="yes"/>
      <point x="119" y="1223"/>
      <point x="215" y="1347"/>
      <point x="405" y="1347" type="curve" smooth="yes"/>
      <point x="605" y="1347"/>
      <point x="695" y="1220"/>
      <point x="699" y="1039" type="curve"/>
      <point x="714" y="1039" type="line"/>
      <point x="710" y="1127" type="line"/>
      <point x="693" y="1277"/>
      <point x="588" y="1378"/>
      <point x="407" y="1378" type="curve" smooth="yes"/>
      <point x="193" y="1378"/>
      <point x="84" y="1242"/>
      <point x="84" y="1003" type="curve" smooth="yes"/>
      <point x="84" y="842" type="line" smooth="yes"/>
      <point x="84" y="674"/>
      <point x="129" y="556"/>
    </contour>
    <contour>
      <point x="491" y="-13" type="curve" smooth="yes"/>
      <point x="629" y="-13"/>
      <point x="710" y="80"/>
      <point x="713" y="230" type="curve"/>
      <point x="721" y="243" type="line"/>
      <point x="704" y="256" type="line"/>
      <point x="689" y="93"/>
      <point x="611" y="18"/>
      <point x="494" y="18" type="curve" smooth="yes"/>
      <point x="347" y="18"/>
      <point x="286" y="119"/>
      <point x="286" y="291" type="curve" smooth="yes"/>
      <point x="286" y="458" type="line" smooth="yes"/>
      <point x="286" y="600"/>
      <point x="338" y="695"/>
      <point x="437" y="723" type="curve"/>
      <point x="437" y="756" type="line"/>
      <point x="315" y="722"/>
      <point x="271" y="629"/>
      <point x="257" y="528" type="curve"/>
      <point x="255" y="517" type="line"/>
      <point x="252" y="508"/>
      <point x="251" y="480"/>
      <point x="251" y="458" type="curve"/>
      <point x="251" y="289" type="line" smooth="yes"/>
      <point x="251" y="98"/>
      <point x="324" y="-13"/>
    </contour>
    <contour>
      <point x="699" y="0" type="line"/>
      <point x="734" y="0" type="line"/>
      <point x="734" y="1358" type="line"/>
      <point x="699" y="1358" type="line"/>
      <point x="702" y="1140" type="line"/>
      <point x="699" y="1111" type="line"/>
      <point x="699" y="1090" type="line"/>
      <point x="699" y="171" type="line"/>
      <point x="701" y="164" type="line"/>
    </contour>
    <contour>
      <point x="839" y="863" type="curve" smooth="yes"/>
      <point x="772" y="863"/>
      <point x="734" y="909"/>
      <point x="734" y="994" type="curve" smooth="yes"/>
      <point x="734" y="1138" type="line" smooth="yes"/>
      <point x="734" y="1221"/>
      <point x="771" y="1270"/>
      <point x="839" y="1270" type="curve" smooth="yes"/>
      <point x="905" y="1270"/>
      <point x="939" y="1223"/>
      <point x="939" y="1138" type="curve" smooth="yes"/>
      <point x="939" y="995" type="line" smooth="yes"/>
      <point x="939" y="909"/>
      <point x="905" y="863"/>
    </contour>
    <contour>
      <point x="842" y="834" type="curve" smooth="yes"/>
      <point x="923" y="834"/>
      <point x="972" y="889"/>
      <point x="972" y="994" type="curve" smooth="yes"/>
      <point x="972" y="1138" type="line" smooth="yes"/>
      <point x="972" y="1244"/>
      <point x="923" y="1299"/>
      <point x="844" y="1299" type="curve" smooth="yes"/>
      <point x="762" y="1299"/>
      <point x="723" y="1245"/>
      <point x="719" y="1155" type="curve"/>
      <point x="719" y="974" type="line"/>
      <point x="721" y="888"/>
      <point x="762" y="834"/>
    </contour>
  </outline>
</glyph>
<glyph name="Bha.or" format="2">
  <advance width="945"/>
  <unicode hex="0B2D"/>
  <anchor x="480" y="13" name="bottom"/>
  <anchor x="462" y="13" name="nukta"/>
  <anchor x="462" y="1646" name="top1"/>
  <anchor x="700" y="1449" name="top2"/>
  <outline>
    <contour>
      <point x="988" y="-90" type="line"/>
      <point x="988" y="-53" type="line"/>
      <point x="750" y="31" type="line"/>
      <point x="761" y="15" type="line"/>
      <point x="827" y="79"/>
      <point x="835" y="153"/>
      <point x="835" y="241" type="curve" smooth="yes"/>
      <point x="835" y="965" type="line" smooth="yes"/>
      <point x="835" y="1232"/>
      <point x="710" y="1378"/>
      <point x="464" y="1378" type="curve" smooth="yes"/>
      <point x="213" y="1378"/>
      <point x="84" y="1236"/>
      <point x="84" y="987" type="curve" smooth="yes"/>
      <point x="84" y="822" type="line" smooth="yes"/>
      <point x="84" y="682"/>
      <point x="110" y="583"/>
      <point x="209" y="526" type="curve"/>
      <point x="217" y="559" type="line"/>
      <point x="136" y="614"/>
      <point x="119" y="696"/>
      <point x="119" y="823" type="curve" smooth="yes"/>
      <point x="119" y="987" type="line" smooth="yes"/>
      <point x="119" y="1212"/>
      <point x="233" y="1347"/>
      <point x="462" y="1347" type="curve" smooth="yes"/>
      <point x="688" y="1347"/>
      <point x="800" y="1210"/>
      <point x="800" y="965" type="curve" smooth="yes"/>
      <point x="800" y="241" type="line" smooth="yes"/>
      <point x="800" y="166"/>
      <point x="798" y="83"/>
      <point x="717" y="13" type="curve"/>
    </contour>
    <contour>
      <point x="422" y="-13" type="curve" smooth="yes"/>
      <point x="561" y="-13"/>
      <point x="638" y="73"/>
      <point x="638" y="243" type="curve" smooth="yes"/>
      <point x="638" y="530" type="line" smooth="yes"/>
      <point x="638" y="585"/>
      <point x="638" y="642"/>
      <point x="638" y="697" type="curve"/>
      <point x="605" y="697" type="line"/>
      <point x="605" y="649"/>
      <point x="605" y="596"/>
      <point x="605" y="526" type="curve" smooth="yes"/>
      <point x="605" y="239" type="line"/>
      <point x="609" y="226" type="line"/>
      <point x="602" y="89"/>
      <point x="546" y="18"/>
      <point x="422" y="18" type="curve" smooth="yes"/>
      <point x="292" y="18"/>
      <point x="237" y="98"/>
      <point x="237" y="250" type="curve" smooth="yes"/>
      <point x="237" y="559" type="line" smooth="yes"/>
      <point x="237" y="642"/>
      <point x="248" y="698"/>
      <point x="281" y="753" type="curve"/>
      <point x="246" y="753" type="line"/>
      <point x="215" y="701"/>
      <point x="202" y="647"/>
      <point x="202" y="559" type="curve" smooth="yes"/>
      <point x="202" y="532" type="line"/>
      <point x="202" y="250" type="line" smooth="yes"/>
      <point x="202" y="78"/>
      <point x="275" y="-13"/>
    </contour>
    <contour>
      <point x="515" y="142" type="curve" smooth="yes"/>
      <point x="582" y="142"/>
      <point x="611" y="190"/>
      <point x="616" y="272" type="curve"/>
      <point x="633" y="272" type="line"/>
      <point x="605" y="303" type="line"/>
      <point x="605" y="212"/>
      <point x="572" y="171"/>
      <point x="518" y="171" type="curve" smooth="yes"/>
      <point x="459" y="171"/>
      <point x="434" y="212"/>
      <point x="434" y="294" type="curve" smooth="yes"/>
      <point x="434" y="530" type="line" smooth="yes"/>
      <point x="434" y="600"/>
      <point x="440" y="642"/>
      <point x="460" y="697" type="curve"/>
      <point x="426" y="697" type="line"/>
      <point x="406" y="645"/>
      <point x="401" y="605"/>
      <point x="401" y="528" type="curve" smooth="yes"/>
      <point x="401" y="295" type="line" smooth="yes"/>
      <point x="401" y="193"/>
      <point x="439" y="142"/>
    </contour>
  </outline>
</glyph>
<glyph name="Ra.or" format="2">
  <advance width="886"/>
  <unicode hex="0B30"/>
  <anchor x="430" y="13" name="bottom"/>
  <anchor x="468" y="13" name="nukta"/>
  <anchor x="432" y="1646" name="top1"/>
  <anchor x="651" y="1449" name="top2"/>
  <outline>
    <contour>
      <point x="929" y="-90" type="line"/>
      <point x="929" y="-53" type="line"/>
      <point x="691" y="31" type="line"/>
      <point x="702" y="15" type="line"/>
      <point x="768" y="79"/>
      <point x="776" y="153"/>
      <point x="776" y="241" type="curve" smooth="yes"/>
      <point x="776" y="981" type="line" smooth="yes"/>
      <point x="776" y="1239"/>
      <point x="660" y="1378"/>
      <point x="432" y="1378" type="curve" smooth="yes"/>
      <point x="202" y="1378"/>
      <point x="84" y="1242"/>
      <point x="84" y="1003" type="curve" smooth="yes"/>
      <point x="84" y="821" type="line" smooth="yes"/>
      <point x="84" y="677"/>
      <point x="123" y="580"/>
      <point x="233" y="521" type="curve"/>
      <point x="235" y="556" type="line"/>
      <point x="149" y="613"/>
      <point x="119" y="695"/>
      <point x="119" y="822" type="curve" smooth="yes"/>
      <point x="119" y="1003" type="line" smooth="yes"/>
      <point x="119" y="1218"/>
      <point x="222" y="1347"/>
      <point x="430" y="1347" type="curve" smooth="yes"/>
      <point x="638" y="1347"/>
      <point x="741" y="1217"/>
      <point x="741" y="981" type="curve" smooth="yes"/>
      <point x="741" y="241" type="line" smooth="yes"/>
      <point x="741" y="166"/>
      <point x="739" y="83"/>
      <point x="658" y="13" type="curve"/>
    </contour>
    <contour>
      <point x="392" y="-13" type="curve" smooth="yes"/>
      <point x="506" y="-13"/>
      <point x="564" y="61"/>
      <point x="564" y="203" type="curve" smooth="yes"/>
      <point x="564" y="531" type="line" smooth="yes"/>
      <point x="564" y="673"/>
      <point x="506" y="749"/>
      <point x="392" y="749" type="curve" smooth="yes"/>
      <point x="278" y="749"/>
      <point x="220" y="670"/>
      <point x="220" y="531" type="curve"/>
      <point x="220" y="520" type="line"/>
      <point x="220" y="514"/>
      <point x="220" y="510"/>
      <point x="220" y="504" type="curve" smooth="yes"/>
      <point x="220" y="203" type="line" smooth="yes"/>
      <point x="220" y="61"/>
      <point x="278" y="-13"/>
    </contour>
    <contour>
      <point x="392" y="18" type="curve" smooth="yes"/>
      <point x="295" y="18"/>
      <point x="255" y="83"/>
      <point x="255" y="203" type="curve" smooth="yes"/>
      <point x="255" y="531" type="line" smooth="yes"/>
      <point x="255" y="651"/>
      <point x="295" y="718"/>
      <point x="392" y="718" type="curve" smooth="yes"/>
      <point x="484" y="718"/>
      <point x="529" y="651"/>
      <point x="529" y="531" type="curve" smooth="yes"/>
      <point x="529" y="203" type="line" smooth="yes"/>
      <point x="529" y="83"/>
      <point x="484" y="18"/>
    </contour>
  </outline>
</glyph>
<glyph name="Ssa.or" format="2">
  <advance width="854"/>
  <unicode hex="0B37"/>
  <anchor x="734" y="13" name="bottom"/>
  <anchor x="496" y="13" name="nukta"/>
  <anchor x="415" y="1646" name="top1"/>
  <anchor x="699" y="1449" name="top2"/>
  <outline>
    <contour>
      <point x="278" y="504" type="curve"/>
      <point x="282" y="539" type="line"/>
      <point x="154" y="585"/>
      <point x="119" y="689"/>
      <point x="119" y="843" type="curve" smooth="yes"/>
      <point x="119" y="1005" type="line" smooth="yes"/>
      <point x="119" y="1175"/>
      <point x="178" y="1288"/>
      <point x="293" y="1329" type="curve"/>
      <point x="312" y="1335" type="line"/>
      <point x="340" y="1343"/>
      <point x="371" y="1347"/>
      <point x="405" y="1347" type="curve" smooth="yes"/>
      <point x="605" y="1347"/>
      <point x="695" y="1220"/>
      <point x="699" y="1039" type="curve"/>
      <point x="723" y="1039" type="line"/>
      <point x="710" y="1127" type="line"/>
      <point x="693" y="1277"/>
      <point x="588" y="1378"/>
      <point x="407" y="1378" type="curve" smooth="yes"/>
      <point x="193" y="1378"/>
      <point x="84" y="1242"/>
      <point x="84" y="1003" type="curve" smooth="yes"/>
      <point x="84" y="842" type="line" smooth="yes"/>
      <point x="84" y="674"/>
      <point x="129" y="556"/>
    </contour>
    <contour>
      <point x="491" y="-13" type="curve" smooth="yes"/>
      <point x="629" y="-13"/>
      <point x="710" y="80"/>
      <point x="713" y="230" type="curve"/>
      <point x="721" y="243" type="line"/>
      <point x="704" y="256" type="line"/>
      <point x="689" y="93"/>
      <point x="611" y="18"/>
      <point x="494" y="18" type="curve" smooth="yes"/>
      <point x="347" y="18"/>
      <point x="286" y="119"/>
      <point x="286" y="291" type="curve" smooth="yes"/>
      <point x="286" y="459" type="line" smooth="yes"/>
      <point x="286" y="604"/>
      <point x="349" y="708"/>
      <point x="469" y="731" type="curve" smooth="yes"/>
      <point x="476" y="732"/>
      <point x="482" y="733"/>
      <point x="486" y="733" type="curve"/>
      <point x="478" y="766" type="line"/>
      <point x="474" y="765"/>
      <point x="474" y="765"/>
      <point x="469" y="764" type="curve" smooth="yes"/>
      <point x="325" y="733"/>
      <point x="275" y="632"/>
      <point x="257" y="532" type="curve" smooth="yes"/>
      <point x="255" y="521" type="line"/>
      <point x="252" y="508"/>
      <point x="251" y="480"/>
      <point x="251" y="459" type="curve" smooth="yes"/>
      <point x="251" y="289" type="line" smooth="yes"/>
      <point x="251" y="98"/>
      <point x="324" y="-13"/>
    </contour>
    <contour>
      <point x="647" y="72" type="line"/>
      <point x="672" y="92" type="line"/>
      <point x="314" y="1352" type="line"/>
      <point x="284" y="1339" type="line"/>
    </contour>
    <contour>
      <point x="699" y="0" type="line"/>
      <point x="734" y="0" type="line"/>
      <point x="734" y="1358" type="line"/>
      <point x="699" y="1358" type="line"/>
      <point x="702" y="1140" type="line"/>
      <point x="699" y="1111" type="line"/>
      <point x="699" y="1090" type="line"/>
      <point x="699" y="171" type="line"/>
      <point x="701" y="164" type="line"/>
    </contour>
  </outline>
</glyph>
<glyph name="Ha.or" format="2">
  <advance width="864"/>
  <unicode hex="0B39"/>
  <anchor x="438" y="-62" name="bottom"/>
  <anchor x="436" y="-62" name="nukta"/>
  <anchor x="436" y="1646" name="top1"/>
  <anchor x="654" y="1449" name="top2"/>
  <outline>
    <contour>
      <point x="252" y="504" type="curve"/>
      <point x="261" y="535" type="line"/>
      <point x="154" y="594"/>
      <point x="119" y="683"/>
      <point x="119" y="822" type="curve" smooth="yes"/>
      <point x="119" y="1003" type="line" smooth="yes"/>
      <point x="119" y="1218"/>
      <point x="224" y="1347"/>
      <point x="436" y="1347" type="curve" smooth="yes"/>
      <point x="647" y="1347"/>
      <point x="743" y="1218"/>
      <point x="743" y="1003" type="curve" smooth="yes"/>
      <point x="743" y="784" type="line" smooth="yes"/>
      <point x="743" y="697"/>
      <point x="725" y="624"/>
      <point x="690" y="550" type="curve"/>
      <point x="728" y="556" type="line"/>
      <point x="760" y="624"/>
      <point x="778" y="688"/>
      <point x="778" y="786" type="curve" smooth="yes"/>
      <point x="778" y="1003" type="line" smooth="yes"/>
      <point x="778" y="1240"/>
      <point x="669" y="1378"/>
      <point x="438" y="1378" type="curve" smooth="yes"/>
      <point x="204" y="1378"/>
      <point x="84" y="1242"/>
      <point x="84" y="1003" type="curve" smooth="yes"/>
      <point x="84" y="821" type="line" smooth="yes"/>
      <point x="84" y="668"/>
      <point x="128" y="565"/>
    </contour>
    <contour>
      <point x="662" y="-184" type="line"/>
      <point x="662" y="-147" type="line"/>
      <point x="217" y="22" type="line"/>
      <point x="217" y="35" type="line"/>
      <point x="368" y="167" type="line"/>
      <point x="344" y="188" type="line"/>
      <point x="184" y="46" type="line"/>
      <point x="184" y="2" type="line"/>
    </contour>
    <contour>
      <point x="559" y="18" type="line"/>
      <point x="594" y="18" type="line"/>
      <point x="594" y="716" type="line"/>
      <point x="559" y="716" type="line"/>
      <point x="559" y="304" type="line"/>
      <point x="560" y="339" type="line"/>
      <point x="549" y="252"/>
      <point x="515" y="182"/>
      <point x="417" y="182" type="curve" smooth="yes"/>
      <point x="326" y="182"/>
      <point x="280" y="245"/>
      <point x="280" y="365" type="curve" smooth="yes"/>
      <point x="280" y="532" type="line" smooth="yes"/>
      <point x="280" y="627"/>
      <point x="300" y="683"/>
      <point x="364" y="719" type="curve"/>
      <point x="364" y="756" type="line"/>
      <point x="280" y="718"/>
      <point x="245" y="648"/>
      <point x="245" y="539" type="curve"/>
      <point x="245" y="532" type="line"/>
      <point x="245" y="527"/>
      <point x="245" y="519"/>
      <point x="245" y="512" type="curve" smooth="yes"/>
      <point x="245" y="363" type="line" smooth="yes"/>
      <point x="245" y="223"/>
      <point x="302" y="151"/>
      <point x="414" y="151" type="curve" smooth="yes"/>
      <point x="520" y="151"/>
      <point x="566" y="220"/>
      <point x="568" y="322" type="curve"/>
      <point x="560" y="289" type="line"/>
      <point x="559" y="131" type="line"/>
    </contour>
  </outline>
</glyph>
<glyph name="Nukta.or" format="2">
  <unicode hex="0B3C"/>
  <anchor x="-432" y="13" name="_nukta"/>
  <outline>
    <contour>
      <point x="-432" y="-290" type="curve" smooth="yes"/>
      <point x="-411" y="-290"/>
      <point x="-404" y="-269"/>
      <point x="-404" y="-225" type="curve" smooth="yes"/>
      <point x="-404" y="-211" type="line" smooth="yes"/>
      <point x="-404" y="-166"/>
      <point x="-411" y="-146"/>
      <point x="-432" y="-146" type="curve" smooth="yes"/>
      <point x="-452" y="-146"/>
      <point x="-459" y="-166"/>
      <point x="-459" y="-211" type="curve" smooth="yes"/>
      <point x="-459" y="-225" type="line" smooth="yes"/>
      <point x="-459" y="-269"/>
      <point x="-452" y="-290"/>
    </contour>
  </outline>
</glyph>
<glyph name="Avagraha.or" format="2">
  <advance width="517"/>
  <unicode hex="0B3D"/>
  <outline>
    <contour>
      <point x="82" y="1003" type="line"/>
      <point x="430" y="1376" type="line"/>
      <point x="430" y="1325" type="line"/>
      <point x="113" y="987" type="line"/>
      <point x="109" y="1001" type="line"/>
      <point x="420" y="681" type="line"/>
      <point x="420" y="662" type="line"/>
      <point x="111" y="351" type="line"/>
      <point x="109" y="365" type="line"/>
      <point x="429" y="32" type="line"/>
      <point x="429" y="-18" type="line"/>
      <point x="80" y="346" type="line"/>
      <point x="80" y="370" type="line"/>
      <point x="386" y="675" type="line"/>
      <point x="393" y="661" type="line"/>
      <point x="82" y="979" type="line"/>
    </contour>
  </outline>
</glyph>
<glyph name="MatraI.or" format="2">
  <unicode hex="0B3F"/>
  <anchor x="-443" y="1646" name="_top1"/>
  <outline>
    <contour>
      <point x="-754" y="1505" type="line"/>
      <point x="-668" y="1574"/>
      <point x="-570" y="1615"/>
      <point x="-443" y="1615" type="curve" smooth="yes"/>
      <point x="-319" y="1615"/>
      <point x="-220" y="1574"/>
      <point x="-134" y="1505" type="curve"/>
      <point x="-137" y="1539" type="line"/>
      <point x="-209" y="1598"/>
      <point x="-306" y="1646"/>
      <point x="-443" y="1646" type="curve" smooth="yes"/>
      <point x="-583" y="1646"/>
      <point x="-679" y="1598"/>
      <point x="-751" y="1539" type="curve"/>
    </contour>
  </outline>
</glyph>
<glyph name="MatraIi.or" format="2">
  <advance width="414"/>
  <unicode hex="0B40"/>
  <outline>
    <contour>
      <point x="258" y="0" type="line"/>
      <point x="293" y="0" type="line"/>
      <point x="294" y="1358" type="line"/>
      <point x="240" y="1358" type="line"/>
      <point x="22" y="1026" type="line"/>
      <point x="22" y="979" type="line"/>
      <point x="28" y="979" type="line"/>
      <point x="252" y="1320" type="line"/>
      <point x="259" y="1320" type="line"/>
    </contour>
  </outline>
</glyph>
<glyph name="MatraVocalicR.or" format="2">
  <unicode hex="0B43"/>
  <anchor x="-120" y="13" name="_bottom"/>
  <outline>
    <contour>
      <point x="-97" y="-297" type="curve" smooth="yes"/>
      <point x="-122" y="-297"/>
      <point x="-141" y="-301"/>
      <point x="-163" y="-311" type="curve"/>
      <point x="-163" y="-283" type="line"/>
      <point x="-143" y="-271"/>
      <point x="-117" y="-266"/>
      <point x="-93" y="-266" type="curve" smooth="yes"/>
      <point x="-20" y="-266"/>
      <point x="19" y="-310"/>
      <point x="19" y="-391" type="curve" smooth="yes"/>
      <point x="19" y="-398" type="line" smooth="yes"/>
      <point x="19" y="-499"/>
      <point x="-38" y="-553"/>
      <point x="-143" y="-553" type="curve" smooth="yes"/>
      <point x="-266" y="-553"/>
      <point x="-332" y="-480"/>
      <point x="-332" y="-347" type="curve" smooth="yes"/>
      <point x="-332" y="-337" type="line" smooth="yes"/>
      <point x="-332" y="-197"/>
      <point x="-263" y="-113"/>
      <point x="-120" y="-83" type="curve"/>
      <point x="-155" y="-100" type="line"/>
      <point x="-155" y="213" type="line"/>
      <point x="-120" y="213" type="line"/>
      <point x="-120" y="-114" type="line"/>
      <point x="-238" y="-137"/>
      <point x="-297" y="-211"/>
      <point x="-297" y="-337" type="curve" smooth="yes"/>
      <point x="-297" y="-347" type="line" smooth="yes"/>
      <point x="-297" y="-462"/>
      <point x="-244" y="-522"/>
      <point x="-143" y="-522" type="curve" smooth="yes"/>
      <point x="-59" y="-522"/>
      <point x="-14" y="-479"/>
      <point x="-14" y="-398" type="curve" smooth="yes"/>
      <point x="-14" y="-391" type="line" smooth="yes"/>
      <point x="-14" y="-330"/>
      <point x="-42" y="-297"/>
    </contour>
  </outline>
</glyph>
<glyph name="MatraVocalicRr.or" format="2">
  <unicode hex="0B44"/>
  <anchor x="-120" y="13" name="_bottom"/>
  <outline>
    <contour>
      <point x="-149" y="-609" type="curve" smooth="yes"/>
      <point x="-53" y="-609"/>
      <point x="15" y="-560"/>
      <point x="15" y="-486" type="curve" smooth="yes"/>
      <point x="15" y="-479" type="line" smooth="yes"/>
      <point x="15" y="-405"/>
      <point x="-29" y="-367"/>
      <point x="-97" y="-367" type="curve" smooth="yes"/>
      <point x="-123" y="-367"/>
      <point x="-148" y="-373"/>
      <point x="-167" y="-383" type="curve"/>
      <point x="-167" y="-411" type="line"/>
      <point x="-144" y="-401"/>
      <point x="-127" y="-397"/>
      <point x="-99" y="-397" type="curve" smooth="yes"/>
      <point x="-51" y="-397"/>
      <point x="-18" y="-424"/>
      <point x="-18" y="-479" type="curve" smooth="yes"/>
      <point x="-18" y="-486" type="line" smooth="yes"/>
      <point x="-18" y="-545"/>
      <point x="-72" y="-577"/>
      <point x="-149" y="-577" type="curve" smooth="yes"/>
      <point x="-247" y="-577"/>
      <point x="-301" y="-529"/>
      <point x="-301" y="-442" type="curve" smooth="yes"/>
      <point x="-301" y="-432" type="line" smooth="yes"/>
      <point x="-301" y="-361"/>
      <point x="-261" y="-305"/>
      <point x="-192" y="-296" type="curve"/>
      <point x="-192" y="-267" type="line"/>
      <point x="-259" y="-263"/>
      <point x="-295" y="-230"/>
      <point x="-295" y="-180" type="curve" smooth="yes"/>
      <point x="-295" y="-177" type="line" smooth="yes"/>
      <point x="-295" y="-124"/>
      <point x="-262" y="-99"/>
      <point x="-198" y="-99" type="curve" smooth="yes"/>
      <point x="-167" y="-99"/>
      <point x="-142" y="-104"/>
      <point x="-117" y="-113" type="curve"/>
      <point x="-120" y="-84" type="line"/>
      <point x="-138" y="-76"/>
      <point x="-169" y="-68"/>
      <point x="-201" y="-68" type="curve" smooth="yes"/>
      <point x="-283" y="-68"/>
      <point x="-328" y="-109"/>
      <point x="-328" y="-177" type="curve" smooth="yes"/>
      <point x="-328" y="-180" type="line" smooth="yes"/>
      <point x="-328" y="-236"/>
      <point x="-292" y="-273"/>
      <point x="-235" y="-285" type="curve"/>
      <point x="-237" y="-283" type="line"/>
      <point x="-300" y="-305"/>
      <point x="-335" y="-365"/>
      <point x="-335" y="-432" type="curve" smooth="yes"/>
      <point x="-335" y="-442" type="line" smooth="yes"/>
      <point x="-335" y="-548"/>
      <point x="-266" y="-609"/>
    </contour>
  </outline>
</glyph>
<glyph name="MatraE.or" format="2">
  <advance width="553"/>
  <unicode hex="0B47"/>
  <outline>
    <contour>
      <point x="295" y="-13" type="curve" smooth="yes"/>
      <point x="431" y="-13"/>
      <point x="495" y="77"/>
      <point x="495" y="255" type="curve"/>
      <point x="495" y="502" type="line"/>
      <point x="495" y="674"/>
      <point x="431" y="774"/>
      <point x="307" y="774" type="curve" smooth="yes"/>
      <point x="184" y="774"/>
      <point x="118" y="689"/>
      <point x="117" y="546" type="curve"/>
      <point x="105" y="546" type="line"/>
      <point x="124" y="524" type="line"/>
      <point x="137" y="673"/>
      <point x="195" y="743"/>
      <point x="302" y="743" type="curve" smooth="yes"/>
      <point x="411" y="743"/>
      <point x="460" y="651"/>
      <point x="460" y="497" type="curve"/>
      <point x="460" y="252" type="line"/>
      <point x="460" y="98"/>
      <point x="408" y="18"/>
      <point x="295" y="18" type="curve" smooth="yes"/>
      <point x="182" y="18"/>
      <point x="129" y="98"/>
      <point x="129" y="252" type="curve" smooth="yes"/>
      <point x="129" y="1066" type="line" smooth="yes"/>
      <point x="129" y="1248"/>
      <point x="181" y="1346"/>
      <point x="311" y="1346" type="curve" smooth="yes"/>
      <point x="382" y="1346"/>
      <point x="435" y="1321"/>
      <point x="485" y="1286" type="curve"/>
      <point x="480" y="1323" type="line"/>
      <point x="444" y="1349"/>
      <point x="388" y="1377"/>
      <point x="311" y="1377" type="curve" smooth="yes"/>
      <point x="160" y="1377"/>
      <point x="94" y="1267"/>
      <point x="94" y="1063" type="curve" smooth="yes"/>
      <point x="94" y="255" type="line" smooth="yes"/>
      <point x="94" y="77"/>
      <point x="159" y="-13"/>
    </contour>
  </outline>
</glyph>
<glyph name="Virama.or" format="2">
  <unicode hex="0B4D"/>
  <anchor x="-120" y="13" name="_bottom"/>
  <outline>
    <contour>
      <point x="-158" y="-100" type="line"/>
      <point x="-158" y="-96" type="line"/>
      <point x="-120" y="-96" type="line"/>
      <point x="18" y="-444" type="line"/>
      <point x="18" y="-448" type="line"/>
      <point x="-15" y="-448" type="line"/>
    </contour>
  </outline>
</glyph>
<glyph name="LengthmarkAi.or" format="2">
  <unicode hex="0B56"/>
  <outline>
    <contour>
      <point x="-696" y="1738" type="line"/>
      <point x="-696" y="1714" type="line" smooth="yes"/>
      <point x="-696" y="1631"/>
      <point x="-639" y="1599"/>
      <point x="-532" y="1599" type="curve" smooth="yes"/>
      <point x="-333" y="1599" type="line" smooth="yes"/>
      <point x="-201" y="1599"/>
      <point x="-120" y="1551"/>
      <point x="-120" y="1431" type="curve" smooth="yes"/>
      <point x="-120" y="1424" type="line"/>
      <point x="-155" y="1424" type="line"/>
      <point x="-155" y="1431" type="line" smooth="yes"/>
      <point x="-155" y="1529"/>
      <point x="-217" y="1567"/>
      <point x="-333" y="1567" type="curve" smooth="yes"/>
      <point x="-532" y="1567" type="line" smooth="yes"/>
      <point x="-654" y="1567"/>
      <point x="-729" y="1609"/>
      <point x="-729" y="1714" type="curve" smooth="yes"/>
      <point x="-729" y="1738" type="line"/>
    </contour>
  </outline>
</glyph>
<glyph name="LengthmarkAu.or" format="2">
  <advance width="275"/>
  <unicode hex="0B57"/>
  <outline>
    <contour>
      <point x="120" y="0" type="line"/>
      <point x="155" y="0" type="line"/>
      <point x="155" y="1362" type="line" smooth="yes"/>
      <point x="155" y="1522"/>
      <point x="90" y="1599"/>
      <point x="-68" y="1599" type="curve" smooth="yes"/>
      <point x="-257" y="1599" type="line" smooth="yes"/>
      <point x="-364" y="1599"/>
      <point x="-421" y="1631"/>
      <point x="-421" y="1714" type="curve" smooth="yes"/>
      <point x="-421" y="1738" type="line"/>
      <point x="-454" y="1738" type="line"/>
      <point x="-454" y="1714" type="line" smooth="yes"/>
      <point x="-454" y="1609"/>
      <point x="-379" y="1567"/>
      <point x="-257" y="1567" type="curve" smooth="yes"/>
      <point x="-68" y="1567" type="line" smooth="yes"/>
      <point x="69" y="1567"/>
      <point x="120" y="1504"/>
      <point x="120" y="1362" type="curve" smooth="yes"/>
    </contour>
  </outline>
</glyph>
<glyph name="Yya.or" format="2">
  <advance width="863"/>
  <unicode hex="0B5F"/>
  <anchor x="743" y="-170" name="bottom"/>
  <anchor x="421" y="1646" name="top1"/>
  <anchor x="708" y="1449" name="top2"/>
  <outline>
    <contour>
      <point x="886" y="-268" type="line"/>
      <point x="886" y="-231" type="line"/>
      <point x="666" y="-131" type="line"/>
      <point x="659" y="-145" type="line"/>
      <point x="674" y="-142" type="line"/>
      <point x="788" y="-142"/>
      <point x="832" y="-78"/>
      <point x="832" y="23" type="curve" smooth="yes"/>
      <point x="832" y="148" type="line" smooth="yes"/>
      <point x="832" y="230"/>
      <point x="796" y="280"/>
      <point x="730" y="280" type="curve"/>
      <point x="727" y="280" type="line"/>
      <point x="663" y="280"/>
      <point x="632" y="217"/>
      <point x="590" y="149" type="curve" smooth="yes"/>
      <point x="533" y="57"/>
      <point x="497" y="19"/>
      <point x="426" y="19" type="curve" smooth="yes"/>
      <point x="340" y="19"/>
      <point x="295" y="87"/>
      <point x="295" y="230" type="curve" smooth="yes"/>
      <point x="295" y="450" type="line" smooth="yes"/>
      <point x="295" y="526"/>
      <point x="301" y="561"/>
      <point x="331" y="601" type="curve"/>
      <point x="299" y="591" type="line"/>
      <point x="267" y="539"/>
      <point x="260" y="515"/>
      <point x="260" y="448" type="curve" smooth="yes"/>
      <point x="260" y="229" type="line" smooth="yes"/>
      <point x="260" y="67"/>
      <point x="317" y="-12"/>
      <point x="425" y="-12" type="curve" smooth="yes"/>
      <point x="514" y="-12"/>
      <point x="554" y="37"/>
      <point x="616" y="133" type="curve" smooth="yes"/>
      <point x="654" y="192"/>
      <point x="675" y="250"/>
      <point x="732" y="250" type="curve" smooth="yes"/>
      <point x="775" y="250"/>
      <point x="799" y="215"/>
      <point x="799" y="148" type="curve" smooth="yes"/>
      <point x="799" y="23" type="line" smooth="yes"/>
      <point x="799" y="-66"/>
      <point x="766" y="-119"/>
      <point x="655" y="-119" type="curve"/>
      <point x="637" y="-119" type="line"/>
      <point x="637" y="-145" type="line"/>
    </contour>
    <contour>
      <point x="32" y="277" type="line"/>
      <point x="284" y="547" type="line"/>
      <point x="297" y="562" type="line"/>
      <point x="480" y="764" type="line"/>
      <point x="480" y="811" type="line"/>
      <point x="270" y="578" type="line"/>
      <point x="259" y="567" type="line"/>
      <point x="32" y="326" type="line"/>
    </contour>
    <contour>
      <point x="271" y="556" type="curve"/>
      <point x="293" y="583" type="line"/>
      <point x="154" y="633"/>
      <point x="128" y="734"/>
      <point x="128" y="877" type="curve" smooth="yes"/>
      <point x="128" y="1005" type="line" smooth="yes"/>
      <point x="128" y="1223"/>
      <point x="224" y="1347"/>
      <point x="414" y="1347" type="curve" smooth="yes"/>
      <point x="614" y="1347"/>
      <point x="704" y="1220"/>
      <point x="708" y="1039" type="curve"/>
      <point x="727" y="1039" type="line"/>
      <point x="719" y="1127" type="line"/>
      <point x="702" y="1277"/>
      <point x="597" y="1378"/>
      <point x="416" y="1378" type="curve" smooth="yes"/>
      <point x="202" y="1378"/>
      <point x="93" y="1242"/>
      <point x="93" y="1003" type="curve" smooth="yes"/>
      <point x="93" y="876" type="line" smooth="yes"/>
      <point x="93" y="726"/>
      <point x="126" y="615"/>
    </contour>
    <contour>
      <point x="708" y="260" type="line"/>
      <point x="743" y="260" type="line"/>
      <point x="743" y="1358" type="line"/>
      <point x="708" y="1358" type="line"/>
      <point x="711" y="1140" type="line"/>
      <point x="708" y="1111" type="line"/>
      <point x="708" y="1090" type="line"/>
    </contour>
  </outline>
</glyph>
<glyph name="VocalicRr.or" format="2">
  <advance width="921"/>
  <unicode hex="0B60"/>
  <anchor x="448" y="1646" name="top1"/>
  <anchor x="685" y="1449" name="top2"/>
  <outline>
    <contour>
      <point x="899" y="-92" type="line"/>
      <point x="899" y="-55" type="line"/>
      <point x="679" y="45" type="line"/>
      <point x="672" y="31" type="line"/>
      <point x="687" y="34" type="line"/>
      <point x="801" y="34"/>
      <point x="845" y="98"/>
      <point x="845" y="199" type="curve" smooth="yes"/>
      <point x="845" y="221" type="line" smooth="yes"/>
      <point x="845" y="305"/>
      <point x="820" y="370"/>
      <point x="729" y="377" type="curve"/>
      <point x="729" y="374" type="line"/>
      <point x="820" y="381"/>
      <point x="845" y="443"/>
      <point x="845" y="526" type="curve" smooth="yes"/>
      <point x="845" y="541" type="line" smooth="yes"/>
      <point x="845" y="642"/>
      <point x="809" y="701"/>
      <point x="708" y="706" type="curve"/>
      <point x="712" y="695" type="line"/>
      <point x="782" y="710"/>
      <point x="811" y="765"/>
      <point x="811" y="869" type="curve" smooth="yes"/>
      <point x="811" y="964" type="line" smooth="yes"/>
      <point x="811" y="1233"/>
      <point x="689" y="1378"/>
      <point x="450" y="1378" type="curve" smooth="yes"/>
      <point x="208" y="1378"/>
      <point x="84" y="1237"/>
      <point x="84" y="986" type="curve" smooth="yes"/>
      <point x="84" y="822" type="line" smooth="yes"/>
      <point x="84" y="680"/>
      <point x="122" y="582"/>
      <point x="226" y="527" type="curve"/>
      <point x="237" y="558" type="line"/>
      <point x="151" y="608"/>
      <point x="119" y="697"/>
      <point x="119" y="823" type="curve" smooth="yes"/>
      <point x="119" y="986" type="line" smooth="yes"/>
      <point x="119" y="1211"/>
      <point x="229" y="1347"/>
      <point x="448" y="1347" type="curve" smooth="yes"/>
      <point x="667" y="1347"/>
      <point x="776" y="1211"/>
      <point x="776" y="964" type="curve" smooth="yes"/>
      <point x="776" y="869" type="line" smooth="yes"/>
      <point x="776" y="767"/>
      <point x="748" y="718"/>
      <point x="684" y="712" type="curve" smooth="yes"/>
      <point x="661" y="710" type="line"/>
      <point x="661" y="684" type="line"/>
      <point x="693" y="683" type="line" smooth="yes"/>
      <point x="784" y="680"/>
      <point x="812" y="627"/>
      <point x="812" y="541" type="curve" smooth="yes"/>
      <point x="812" y="526" type="line" smooth="yes"/>
      <point x="812" y="443"/>
      <point x="786" y="394"/>
      <point x="700" y="388" type="curve" smooth="yes"/>
      <point x="669" y="386" type="line"/>
      <point x="669" y="361" type="line"/>
      <point x="700" y="359" type="line" smooth="yes"/>
      <point x="786" y="353"/>
      <point x="812" y="304"/>
      <point x="812" y="221" type="curve" smooth="yes"/>
      <point x="812" y="199" type="line" smooth="yes"/>
      <point x="812" y="111"/>
      <point x="779" y="57"/>
      <point x="668" y="57" type="curve" smooth="yes"/>
      <point x="650" y="57" type="line"/>
      <point x="650" y="31" type="line"/>
    </contour>
    <contour>
      <point x="383" y="-13" type="curve" smooth="yes"/>
      <point x="497" y="-13"/>
      <point x="555" y="61"/>
      <point x="555" y="203" type="curve" smooth="yes"/>
      <point x="555" y="531" type="line" smooth="yes"/>
      <point x="555" y="673"/>
      <point x="497" y="749"/>
      <point x="383" y="749" type="curve" smooth="yes"/>
      <point x="269" y="749"/>
      <point x="211" y="670"/>
      <point x="211" y="531" type="curve"/>
      <point x="211" y="520" type="line"/>
      <point x="211" y="514"/>
      <point x="211" y="510"/>
      <point x="211" y="504" type="curve" smooth="yes"/>
      <point x="211" y="203" type="line" smooth="yes"/>
      <point x="211" y="61"/>
      <point x="269" y="-13"/>
    </contour>
    <contour>
      <point x="383" y="18" type="curve" smooth="yes"/>
      <point x="286" y="18"/>
      <point x="246" y="83"/>
      <point x="246" y="203" type="curve" smooth="yes"/>
      <point x="246" y="531" type="line" smooth="yes"/>
      <point x="246" y="651"/>
      <point x="286" y="718"/>
      <point x="383" y="718" type="curve" smooth="yes"/>
      <point x="475" y="718"/>
      <point x="520" y="651"/>
      <point x="520" y="531" type="curve" smooth="yes"/>
      <point x="520" y="203" type="line" smooth="yes"/>
      <point x="520" y="83"/>
      <point x="475" y="18"/>
    </contour>
  </outline>
</glyph>
<glyph name="VocalicLl.or" format="2">
  <advance width="734"/>
  <unicode hex="0B61"/>
  <anchor x="552" y="1449" name="top2"/>
  <outline>
    <contour>
      <point x="382" y="-6" type="curve" smooth="yes"/>
      <point x="429" y="-6"/>
      <point x="469" y="1"/>
      <point x="505" y="13" type="curve"/>
      <point x="521" y="21" type="line"/>
      <point x="623" y="66"/>
      <point x="674" y="164"/>
      <point x="674" y="305" type="curve" smooth="yes"/>
      <point x="674" y="475" type="line" smooth="yes"/>
      <point x="674" y="602"/>
      <point x="625" y="668"/>
      <point x="527" y="668" type="curve" smooth="yes"/>
      <point x="430" y="668"/>
      <point x="378" y="600"/>
      <point x="378" y="475" type="curve" smooth="yes"/>
      <point x="378" y="215" type="line" smooth="yes"/>
      <point x="378" y="116"/>
      <point x="417" y="59"/>
      <point x="483" y="22" type="curve"/>
      <point x="507" y="40" type="line"/>
      <point x="448" y="79"/>
      <point x="411" y="121"/>
      <point x="411" y="217" type="curve" smooth="yes"/>
      <point x="411" y="477" type="line" smooth="yes"/>
      <point x="411" y="583"/>
      <point x="446" y="637"/>
      <point x="525" y="637" type="curve" smooth="yes"/>
      <point x="605" y="637"/>
      <point x="641" y="583"/>
      <point x="641" y="477" type="curve" smooth="yes"/>
      <point x="641" y="305" type="line" smooth="yes"/>
      <point x="641" y="169"/>
      <point x="595" y="77"/>
      <point x="494" y="42" type="curve"/>
      <point x="472" y="35" type="line"/>
      <point x="441" y="27"/>
      <point x="415" y="25"/>
      <point x="382" y="25" type="curve" smooth="yes"/>
      <point x="196" y="25"/>
      <point x="117" y="124"/>
      <point x="117" y="313" type="curve" smooth="yes"/>
      <point x="117" y="443" type="line" smooth="yes"/>
      <point x="117" y="585"/>
      <point x="156" y="666"/>
      <point x="283" y="762" type="curve" smooth="yes"/>
      <point x="371" y="828" type="line" smooth="yes"/>
      <point x="494" y="920"/>
      <point x="546" y="977"/>
      <point x="546" y="1126" type="curve" smooth="yes"/>
      <point x="546" y="1161" type="line" smooth="yes"/>
      <point x="546" y="1303"/>
      <point x="485" y="1376"/>
      <point x="364" y="1376" type="curve" smooth="yes"/>
      <point x="242" y="1376"/>
      <point x="183" y="1297"/>
      <point x="183" y="1161" type="curve" smooth="yes"/>
      <point x="183" y="1141" type="line" smooth="yes"/>
      <point x="183" y="1069"/>
      <point x="192" y="1027"/>
      <point x="213" y="972" type="curve"/>
      <point x="246" y="972" type="line"/>
      <point x="226" y="1029"/>
      <point x="216" y="1073"/>
      <point x="216" y="1141" type="curve" smooth="yes"/>
      <point x="216" y="1161" type="line" smooth="yes"/>
      <point x="216" y="1277"/>
      <point x="260" y="1345"/>
      <point x="364" y="1345" type="curve" smooth="yes"/>
      <point x="463" y="1345"/>
      <point x="511" y="1281"/>
      <point x="511" y="1161" type="curve" smooth="yes"/>
      <point x="511" y="1124" type="line" smooth="yes"/>
      <point x="511" y="995"/>
      <point x="465" y="940"/>
      <point x="351" y="854" type="curve" smooth="yes"/>
      <point x="262" y="787" type="line" smooth="yes"/>
      <point x="130" y="688"/>
      <point x="82" y="596"/>
      <point x="82" y="443" type="curve" smooth="yes"/>
      <point x="82" y="311" type="line" smooth="yes"/>
      <point x="82" y="105"/>
      <point x="180" y="-6"/>
    </contour>
    <contour>
      <point x="684" y="-85" type="curve"/>
      <point x="684" y="-48" type="line"/>
      <point x="627" y="-20"/>
      <point x="568" y="7"/>
      <point x="511" y="35" type="curve"/>
      <point x="485" y="17" type="line"/>
      <point x="551" y="-17"/>
      <point x="617" y="-52"/>
    </contour>
  </outline>
</glyph>
<glyph name="MatraVocalicL.or" format="2">
  <unicode hex="0B62"/>
  <outline>
    <contour>
      <point x="-79" y="-591" type="curve" smooth="yes"/>
      <point x="3" y="-591"/>
      <point x="51" y="-540"/>
      <point x="51" y="-452" type="curve" smooth="yes"/>
      <point x="51" y="-380" type="line" smooth="yes"/>
      <point x="51" y="-324"/>
      <point x="28" y="-293"/>
      <point x="-19" y="-293" type="curve" smooth="yes"/>
      <point x="-64" y="-293"/>
      <point x="-89" y="-324"/>
      <point x="-89" y="-380" type="curve" smooth="yes"/>
      <point x="-89" y="-490" type="line" smooth="yes"/>
      <point x="-89" y="-534"/>
      <point x="-64" y="-560"/>
      <point x="-26" y="-577" type="curve"/>
      <point x="-12" y="-560" type="line"/>
      <point x="-40" y="-541"/>
      <point x="-58" y="-524"/>
      <point x="-58" y="-489" type="curve" smooth="yes"/>
      <point x="-58" y="-379" type="line" smooth="yes"/>
      <point x="-58" y="-343"/>
      <point x="-46" y="-322"/>
      <point x="-20" y="-322" type="curve" smooth="yes"/>
      <point x="8" y="-322"/>
      <point x="20" y="-343"/>
      <point x="20" y="-379" type="curve" smooth="yes"/>
      <point x="20" y="-454" type="line" smooth="yes"/>
      <point x="20" y="-506"/>
      <point x="2" y="-542"/>
      <point x="-36" y="-556" type="curve"/>
      <point x="-42" y="-558" type="line"/>
      <point x="-54" y="-562"/>
      <point x="-65" y="-562"/>
      <point x="-79" y="-562" type="curve" smooth="yes"/>
      <point x="-149" y="-562"/>
      <point x="-180" y="-521"/>
      <point x="-180" y="-447" type="curve" smooth="yes"/>
      <point x="-180" y="-401" type="line" smooth="yes"/>
      <point x="-180" y="-340"/>
      <point x="-165" y="-305"/>
      <point x="-113" y="-267" type="curve" smooth="yes"/>
      <point x="-81" y="-244" type="line" smooth="yes"/>
      <point x="-26" y="-205"/>
      <point x="-3" y="-175"/>
      <point x="-3" y="-108" type="curve" smooth="yes"/>
      <point x="-3" y="-94" type="line" smooth="yes"/>
      <point x="-3" y="-32"/>
      <point x="-31" y="0"/>
      <point x="-86" y="0" type="curve" smooth="yes"/>
      <point x="-142" y="0"/>
      <point x="-171" y="-35"/>
      <point x="-171" y="-94" type="curve" smooth="yes"/>
      <point x="-171" y="-102" type="line" smooth="yes"/>
      <point x="-171" y="-131"/>
      <point x="-167" y="-152"/>
      <point x="-157" y="-179" type="curve"/>
      <point x="-124" y="-179" type="line"/>
      <point x="-135" y="-149"/>
      <point x="-139" y="-128"/>
      <point x="-139" y="-102" type="curve" smooth="yes"/>
      <point x="-139" y="-94" type="line" smooth="yes"/>
      <point x="-139" y="-53"/>
      <point x="-123" y="-29"/>
      <point x="-86" y="-29" type="curve" smooth="yes"/>
      <point x="-51" y="-29"/>
      <point x="-35" y="-51"/>
      <point x="-35" y="-94" type="curve" smooth="yes"/>
      <point x="-35" y="-108" type="line" smooth="yes"/>
      <point x="-35" y="-162"/>
      <point x="-52" y="-187"/>
      <point x="-99" y="-220" type="curve" smooth="yes"/>
      <point x="-130" y="-242" type="line" smooth="yes"/>
      <point x="-193" y="-287"/>
      <point x="-213" y="-328"/>
      <point x="-213" y="-401" type="curve" smooth="yes"/>
      <point x="-213" y="-448" type="line" smooth="yes"/>
      <point x="-213" y="-541"/>
      <point x="-169" y="-591"/>
    </contour>
  </outline>
</glyph>
<glyph name="MatraVocalicLl.or" format="2">
  <unicode hex="0B63"/>
  <anchor x="-120" y="13" name="_bottom"/>
  <outline>
    <contour>
      <point x="-140" y="-659" type="curve" smooth="yes"/>
      <point x="-117" y="-659"/>
      <point x="-96" y="-655"/>
      <point x="-79" y="-646" type="curve"/>
      <point x="-68" y="-640" type="line"/>
      <point x="-31" y="-617"/>
      <point x="-10" y="-576"/>
      <point x="-10" y="-520" type="curve" smooth="yes"/>
      <point x="-10" y="-448" type="line" smooth="yes"/>
      <point x="-10" y="-392"/>
      <point x="-33" y="-361"/>
      <point x="-80" y="-361" type="curve" smooth="yes"/>
      <point x="-125" y="-361"/>
      <point x="-150" y="-392"/>
      <point x="-150" y="-448" type="curve" smooth="yes"/>
      <point x="-150" y="-558" type="line" smooth="yes"/>
      <point x="-150" y="-602"/>
      <point x="-125" y="-628"/>
      <point x="-87" y="-645" type="curve"/>
      <point x="-73" y="-628" type="line"/>
      <point x="-101" y="-609"/>
      <point x="-119" y="-592"/>
      <point x="-119" y="-557" type="curve" smooth="yes"/>
      <point x="-119" y="-447" type="line" smooth="yes"/>
      <point x="-119" y="-411"/>
      <point x="-107" y="-390"/>
      <point x="-81" y="-390" type="curve" smooth="yes"/>
      <point x="-53" y="-390"/>
      <point x="-41" y="-411"/>
      <point x="-41" y="-447" type="curve" smooth="yes"/>
      <point x="-41" y="-522" type="line" smooth="yes"/>
      <point x="-41" y="-574"/>
      <point x="-59" y="-610"/>
      <point x="-97" y="-624" type="curve"/>
      <point x="-103" y="-626" type="line"/>
      <point x="-115" y="-630"/>
      <point x="-126" y="-630"/>
      <point x="-140" y="-630" type="curve" smooth="yes"/>
      <point x="-210" y="-630"/>
      <point x="-241" y="-589"/>
      <point x="-241" y="-515" type="curve" smooth="yes"/>
      <point x="-241" y="-469" type="line" smooth="yes"/>
      <point x="-241" y="-408"/>
      <point x="-226" y="-373"/>
      <point x="-174" y="-335" type="curve" smooth="yes"/>
      <point x="-142" y="-312" type="line" smooth="yes"/>
      <point x="-87" y="-273"/>
      <point x="-64" y="-243"/>
      <point x="-64" y="-176" type="curve" smooth="yes"/>
      <point x="-64" y="-162" type="line" smooth="yes"/>
      <point x="-64" y="-100"/>
      <point x="-92" y="-68"/>
      <point x="-147" y="-68" type="curve" smooth="yes"/>
      <point x="-203" y="-68"/>
      <point x="-232" y="-103"/>
      <point x="-232" y="-162" type="curve" smooth="yes"/>
      <point x="-232" y="-170" type="line" smooth="yes"/>
      <point x="-232" y="-199"/>
      <point x="-228" y="-220"/>
      <point x="-218" y="-247" type="curve"/>
      <point x="-185" y="-247" type="line"/>
      <point x="-196" y="-217"/>
      <point x="-200" y="-196"/>
      <point x="-200" y="-170" type="curve" smooth="yes"/>
      <point x="-200" y="-162" type="line" smooth="yes"/>
      <point x="-200" y="-121"/>
      <point x="-184" y="-97"/>
      <point x="-147" y="-97" type="curve" smooth="yes"/>
      <point x="-112" y="-97"/>
      <point x="-96" y="-119"/>
      <point x="-96" y="-162" type="curve" smooth="yes"/>
      <point x="-96" y="-176" type="line" smooth="yes"/>
      <point x="-96" y="-230"/>
      <point x="-113" y="-255"/>
      <point x="-160" y="-288" type="curve" smooth="yes"/>
      <point x="-191" y="-310" type="line" smooth="yes"/>
      <point x="-254" y="-355"/>
      <point x="-274" y="-396"/>
      <point x="-274" y="-469" type="curve" smooth="yes"/>
      <point x="-274" y="-516" type="line" smooth="yes"/>
      <point x="-274" y="-609"/>
      <point x="-230" y="-659"/>
    </contour>
    <contour>
      <point x="1" y="-697" type="curve"/>
      <point x="1" y="-663" type="line"/>
      <point x="-28" y="-651"/>
      <point x="-54" y="-639"/>
      <point x="-83" y="-624" type="curve"/>
      <point x="-107" y="-639" type="line"/>
      <point x="-70" y="-659"/>
      <point x="-36" y="-678"/>
    </contour>
  </outline>
</glyph>
<glyph name="zero.or" format="2">
  <advance width="624"/>
  <unicode hex="0B66"/>
  <outline>
    <contour>
      <point x="85" y="1095" type="curve" smooth="yes"/>
      <point x="85" y="272" type="line" smooth="yes"/>
      <point x="85" y="88"/>
      <point x="164" y="-11"/>
      <point x="312" y="-11" type="curve" smooth="yes"/>
      <point x="460" y="-11"/>
      <point x="539" y="88"/>
      <point x="539" y="272" type="curve" smooth="yes"/>
      <point x="539" y="1095" type="line" smooth="yes"/>
      <point x="539" y="1279"/>
      <point x="462" y="1378"/>
      <point x="312" y="1378" type="curve" smooth="yes"/>
      <point x="162" y="1378"/>
      <point x="85" y="1279"/>
    </contour>
    <contour>
      <point x="120" y="272" type="curve" smooth="yes"/>
      <point x="120" y="1095" type="line" smooth="yes"/>
      <point x="120" y="1257"/>
      <point x="184" y="1347"/>
      <point x="312" y="1347" type="curve" smooth="yes"/>
      <point x="440" y="1347"/>
      <point x="504" y="1256"/>
      <point x="504" y="1095" type="curve" smooth="yes"/>
      <point x="504" y="272" type="line" smooth="yes"/>
      <point x="504" y="112"/>
      <point x="440" y="20"/>
      <point x="312" y="20" type="curve" smooth="yes"/>
      <point x="184" y="20"/>
      <point x="120" y="111"/>
    </contour>
  </outline>
</glyph>
<glyph name="one.or" format="2">
  <advance width="545"/>
  <unicode hex="0B67"/>
  <outline>
    <contour>
      <point x="278" y="1378" type="curve" smooth="yes"/>
      <point x="410" y="1378"/>
      <point x="474" y="1294"/>
      <point x="474" y="1126" type="curve" smooth="yes"/>
      <point x="474" y="823" type="line" smooth="yes"/>
      <point x="474" y="673"/>
      <point x="412" y="591"/>
      <point x="289" y="591" type="curve" smooth="yes"/>
      <point x="167" y="591"/>
      <point x="112" y="660"/>
      <point x="106" y="788" type="curve"/>
      <point x="100" y="788" type="line"/>
      <point x="120" y="823" type="line"/>
      <point x="120" y="681"/>
      <point x="184" y="622"/>
      <point x="285" y="622" type="curve" smooth="yes"/>
      <point x="393" y="622"/>
      <point x="439" y="693"/>
      <point x="439" y="823" type="curve" smooth="yes"/>
      <point x="439" y="1126" type="line" smooth="yes"/>
      <point x="439" y="1272"/>
      <point x="388" y="1347"/>
      <point x="280" y="1347" type="curve" smooth="yes"/>
      <point x="169" y="1347"/>
      <point x="120" y="1272"/>
      <point x="120" y="1126" type="curve" smooth="yes"/>
      <point x="120" y="762" type="line"/>
      <point x="118" y="731" type="line"/>
      <point x="118" y="405" type="line" smooth="yes"/>
      <point x="118" y="154"/>
      <point x="212" y="28"/>
      <point x="404" y="28" type="curve" smooth="yes"/>
      <point x="459" y="28" type="line"/>
      <point x="449" y="-5" type="line"/>
      <point x="404" y="-5" type="line" smooth="yes"/>
      <point x="188" y="-5"/>
      <point x="85" y="130"/>
      <point x="85" y="405" type="curve" smooth="yes"/>
      <point x="85" y="1126" type="line" smooth="yes"/>
      <point x="85" y="1294"/>
      <point x="147" y="1378"/>
    </contour>
  </outline>
</glyph>
<glyph name="two.or" format="2">
  <advance width="545"/>
  <unicode hex="0B68"/>
  <outline>
    <contour>
      <point x="267" y="1378" type="curve" smooth="yes"/>
      <point x="398" y="1378"/>
      <point x="460" y="1294"/>
      <point x="460" y="1126" type="curve" smooth="yes"/>
      <point x="460" y="405" type="line" smooth="yes"/>
      <point x="460" y="130"/>
      <point x="356" y="-5"/>
      <point x="141" y="-5" type="curve" smooth="yes"/>
      <point x="101" y="-5" type="line"/>
      <point x="91" y="28" type="line"/>
      <point x="141" y="28" type="line" smooth="yes"/>
      <point x="332" y="28"/>
      <point x="427" y="154"/>
      <point x="427" y="405" type="curve" smooth="yes"/>
      <point x="427" y="740" type="line"/>
      <point x="425" y="762" type="line"/>
      <point x="425" y="1126" type="line" smooth="yes"/>
      <point x="425" y="1272"/>
      <point x="376" y="1347"/>
      <point x="265" y="1347" type="curve" smooth="yes"/>
      <point x="157" y="1347"/>
      <point x="106" y="1272"/>
      <point x="106" y="1126" type="curve" smooth="yes"/>
      <point x="106" y="823" type="line" smooth="yes"/>
      <point x="106" y="693"/>
      <point x="152" y="622"/>
      <point x="260" y="622" type="curve" smooth="yes"/>
      <point x="361" y="622"/>
      <point x="425" y="681"/>
      <point x="425" y="823" type="curve"/>
      <point x="445" y="788" type="line"/>
      <point x="439" y="788" type="line"/>
      <point x="433" y="660"/>
      <point x="378" y="591"/>
      <point x="256" y="591" type="curve" smooth="yes"/>
      <point x="133" y="591"/>
      <point x="71" y="673"/>
      <point x="71" y="823" type="curve" smooth="yes"/>
      <point x="71" y="1126" type="line" smooth="yes"/>
      <point x="71" y="1294"/>
      <point x="135" y="1378"/>
    </contour>
  </outline>
</glyph>
<glyph name="three.or" format="2">
  <advance width="848"/>
  <unicode hex="0B69"/>
  <outline>
    <contour>
      <point x="246" y="1378" type="curve" smooth="yes"/>
      <point x="135" y="1378"/>
      <point x="71" y="1309"/>
      <point x="71" y="1173" type="curve" smooth="yes"/>
      <point x="71" y="801" type="line" smooth="yes"/>
      <point x="71" y="668"/>
      <point x="133" y="590"/>
      <point x="240" y="590" type="curve" smooth="yes"/>
      <point x="356" y="590"/>
      <point x="399" y="665"/>
      <point x="401" y="777" type="curve"/>
      <point x="417" y="793" type="line"/>
      <point x="392" y="801" type="line"/>
      <point x="392" y="681"/>
      <point x="342" y="621"/>
      <point x="247" y="621" type="curve" smooth="yes"/>
      <point x="151" y="621"/>
      <point x="106" y="681"/>
      <point x="106" y="801" type="curve" smooth="yes"/>
      <point x="106" y="1178" type="line" smooth="yes"/>
      <point x="106" y="1286"/>
      <point x="149" y="1347"/>
      <point x="246" y="1347" type="curve" smooth="yes"/>
      <point x="344" y="1347"/>
      <point x="392" y="1283"/>
      <point x="392" y="1175" type="curve" smooth="yes"/>
      <point x="392" y="991" type="line"/>
      <point x="392" y="925" type="line"/>
      <point x="392" y="841" type="line"/>
      <point x="392" y="0" type="line"/>
      <point x="425" y="0" type="line"/>
      <point x="425" y="1175" type="line" smooth="yes"/>
      <point x="425" y="1283"/>
      <point x="478" y="1347"/>
      <point x="571" y="1347" type="curve" smooth="yes"/>
      <point x="660" y="1347"/>
      <point x="697" y="1286"/>
      <point x="697" y="1178" type="curve" smooth="yes"/>
      <point x="697" y="0" type="line"/>
      <point x="732" y="0" type="line"/>
      <point x="732" y="1177" type="line" smooth="yes"/>
      <point x="732" y="1311"/>
      <point x="680" y="1378"/>
      <point x="575" y="1378" type="curve" smooth="yes"/>
      <point x="475" y="1378"/>
      <point x="415" y="1327"/>
      <point x="406" y="1223" type="curve"/>
      <point x="410" y="1223" type="line"/>
      <point x="404" y="1327"/>
      <point x="343" y="1378"/>
    </contour>
  </outline>
</glyph>
<glyph name="four.or" format="2">
  <advance width="648"/>
  <unicode hex="0B6A"/>
  <outline>
    <contour>
      <point x="338" y="811" type="line"/>
      <point x="636" y="1365" type="line"/>
      <point x="636" y="1365" type="line"/>
      <point x="598" y="1365" type="line"/>
      <point x="313" y="837" type="line"/>
    </contour>
    <contour>
      <point x="324" y="810" type="line"/>
      <point x="348" y="834" type="line"/>
      <point x="50" y="1368" type="line"/>
      <point x="12" y="1368" type="line"/>
      <point x="12" y="1368" type="line"/>
    </contour>
    <contour>
      <point x="324" y="-11" type="curve" smooth="yes"/>
      <point x="462" y="-11"/>
      <point x="536" y="74"/>
      <point x="536" y="239" type="curve" smooth="yes"/>
      <point x="536" y="354" type="line" smooth="yes"/>
      <point x="536" y="484"/>
      <point x="495" y="571"/>
      <point x="436" y="679" type="curve" smooth="yes"/>
      <point x="343" y="850" type="line"/>
      <point x="316" y="830" type="line"/>
      <point x="406" y="663" type="line" smooth="yes"/>
      <point x="457" y="568"/>
      <point x="501" y="474"/>
      <point x="501" y="354" type="curve" smooth="yes"/>
      <point x="501" y="239" type="line" smooth="yes"/>
      <point x="501" y="97"/>
      <point x="440" y="20"/>
      <point x="324" y="20" type="curve" smooth="yes"/>
      <point x="204" y="20"/>
      <point x="147" y="97"/>
      <point x="147" y="239" type="curve" smooth="yes"/>
      <point x="147" y="354" type="line" smooth="yes"/>
      <point x="147" y="470"/>
      <point x="186" y="567"/>
      <point x="241" y="658" type="curve" smooth="yes"/>
      <point x="336" y="815" type="line"/>
      <point x="311" y="841" type="line"/>
      <point x="210" y="673" type="line" smooth="yes"/>
      <point x="150" y="573"/>
      <point x="112" y="475"/>
      <point x="112" y="354" type="curve" smooth="yes"/>
      <point x="112" y="239" type="line" smooth="yes"/>
      <point x="112" y="72"/>
      <point x="183" y="-11"/>
    </contour>
  </outline>
</glyph>
<glyph name="five.or" format="2">
  <advance width="762"/>
  <unicode hex="0B6B"/>
  <outline>
    <contour>
      <point x="391" y="679" type="curve" smooth="yes"/>
      <point x="500" y="679"/>
      <point x="558" y="606"/>
      <point x="558" y="431" type="curve" smooth="yes"/>
      <point x="558" y="239" type="line" smooth="yes"/>
      <point x="558" y="97"/>
      <point x="501" y="20"/>
      <point x="391" y="20" type="curve" smooth="yes"/>
      <point x="277" y="20"/>
      <point x="224" y="97"/>
      <point x="224" y="239" type="curve" smooth="yes"/>
      <point x="224" y="431" type="line" smooth="yes"/>
      <point x="224" y="606"/>
      <point x="278" y="679"/>
    </contour>
    <contour>
      <point x="391" y="708" type="curve" smooth="yes"/>
      <point x="280" y="708"/>
      <point x="224" y="780"/>
      <point x="224" y="956" type="curve" smooth="yes"/>
      <point x="224" y="1127" type="line" smooth="yes"/>
      <point x="224" y="1267"/>
      <point x="280" y="1347"/>
      <point x="391" y="1347" type="curve" smooth="yes"/>
      <point x="502" y="1347"/>
      <point x="558" y="1267"/>
      <point x="558" y="1127" type="curve" smooth="yes"/>
      <point x="558" y="956" type="line" smooth="yes"/>
      <point x="558" y="780"/>
      <point x="501" y="708"/>
    </contour>
    <contour>
      <point x="391" y="1378" type="curve" smooth="yes"/>
      <point x="259" y="1378"/>
      <point x="189" y="1287"/>
      <point x="189" y="1127" type="curve" smooth="yes"/>
      <point x="189" y="958" type="line" smooth="yes"/>
      <point x="189" y="810"/>
      <point x="213" y="763"/>
      <point x="324" y="694" type="curve"/>
      <point x="324" y="699" type="line"/>
      <point x="224" y="666"/>
      <point x="189" y="580"/>
      <point x="189" y="431" type="curve" smooth="yes"/>
      <point x="189" y="239" type="line" smooth="yes"/>
      <point x="189" y="72"/>
      <point x="256" y="-11"/>
      <point x="391" y="-11" type="curve" smooth="yes"/>
      <point x="523" y="-11"/>
      <point x="593" y="74"/>
      <point x="593" y="239" type="curve" smooth="yes"/>
      <point x="593" y="431" type="line" smooth="yes"/>
      <point x="593" y="580"/>
      <point x="566" y="624"/>
      <point x="460" y="692" type="curve"/>
      <point x="458" y="694" type="line"/>
      <point x="550" y="711"/>
      <point x="593" y="799"/>
      <point x="593" y="956" type="curve" smooth="yes"/>
      <point x="593" y="1127" type="line" smooth="yes"/>
      <point x="593" y="1289"/>
      <point x="524" y="1378"/>
    </contour>
    <contour>
      <point x="762" y="521" type="line"/>
      <point x="762" y="557" type="line"/>
      <point x="447" y="703" type="line"/>
      <point x="508" y="641" type="line"/>
    </contour>
    <contour>
      <point x="0" y="869" type="line"/>
      <point x="0" y="833" type="line"/>
      <point x="326" y="680" type="line"/>
      <point x="335" y="708" type="line"/>
    </contour>
  </outline>
</glyph>
<glyph name="six.or" format="2">
  <advance width="643"/>
  <unicode hex="0B6C"/>
  <outline>
    <contour>
      <point x="320" y="1347" type="curve" smooth="yes"/>
      <point x="452" y="1347"/>
      <point x="522" y="1249"/>
      <point x="522" y="1051" type="curve" smooth="yes"/>
      <point x="522" y="507" type="line" smooth="yes"/>
      <point x="522" y="196"/>
      <point x="427" y="28"/>
      <point x="172" y="28" type="curve" smooth="yes"/>
      <point x="102" y="28" type="line"/>
      <point x="112" y="-5" type="line"/>
      <point x="172" y="-5" type="line" smooth="yes"/>
      <point x="452" y="-5"/>
      <point x="556" y="172"/>
      <point x="557" y="507" type="curve" smooth="yes"/>
      <point x="558" y="1051" type="line" smooth="yes"/>
      <point x="558" y="1275"/>
      <point x="474" y="1378"/>
      <point x="321" y="1378" type="curve" smooth="yes"/>
      <point x="198" y="1378"/>
      <point x="102" y="1302"/>
      <point x="83" y="1125" type="curve"/>
      <point x="83" y="1101" type="line"/>
      <point x="205" y="1093"/>
      <point x="275" y="1071"/>
      <point x="275" y="923" type="curve" smooth="yes"/>
      <point x="275" y="742" type="line" smooth="yes"/>
      <point x="275" y="632"/>
      <point x="235" y="573"/>
      <point x="155" y="573" type="curve" smooth="yes"/>
      <point x="112" y="573"/>
      <point x="72" y="595"/>
      <point x="45" y="618" type="curve"/>
      <point x="48" y="580" type="line"/>
      <point x="71" y="561"/>
      <point x="108" y="542"/>
      <point x="157" y="542" type="curve" smooth="yes"/>
      <point x="255" y="542"/>
      <point x="310" y="607"/>
      <point x="310" y="739" type="curve" smooth="yes"/>
      <point x="310" y="923" type="line" smooth="yes"/>
      <point x="310" y="1092"/>
      <point x="229" y="1124"/>
      <point x="101" y="1133" type="curve"/>
      <point x="116" y="1127" type="line"/>
      <point x="133" y="1272"/>
      <point x="217" y="1347"/>
    </contour>
  </outline>
</glyph>
<glyph name="seven.or" format="2">
  <advance width="694"/>
  <unicode hex="0B6D"/>
  <outline>
    <contour>
      <point x="344" y="1378" type="curve" smooth="yes"/>
      <point x="520" y="1378"/>
      <point x="609" y="1258"/>
      <point x="609" y="1031" type="curve" smooth="yes"/>
      <point x="608" y="507" type="line" smooth="yes"/>
      <point x="607" y="175"/>
      <point x="503" y="-5"/>
      <point x="223" y="-5" type="curve" smooth="yes"/>
      <point x="153" y="-5" type="line"/>
      <point x="143" y="28" type="line"/>
      <point x="223" y="28" type="line" smooth="yes"/>
      <point x="478" y="28"/>
      <point x="573" y="199"/>
      <point x="573" y="507" type="curve" smooth="yes"/>
      <point x="573" y="1031" type="line" smooth="yes"/>
      <point x="573" y="1232"/>
      <point x="499" y="1347"/>
      <point x="344" y="1347" type="curve" smooth="yes"/>
      <point x="183" y="1347"/>
      <point x="104" y="1232"/>
      <point x="104" y="1034" type="curve" smooth="yes"/>
      <point x="104" y="963" type="line"/>
      <point x="106" y="963" type="line"/>
      <point x="106" y="699" type="line" smooth="yes"/>
      <point x="106" y="594"/>
      <point x="144" y="538"/>
      <point x="222" y="538" type="curve" smooth="yes"/>
      <point x="300" y="538"/>
      <point x="336" y="593"/>
      <point x="336" y="699" type="curve" smooth="yes"/>
      <point x="336" y="920" type="line" smooth="yes"/>
      <point x="336" y="1018"/>
      <point x="302" y="1068"/>
      <point x="225" y="1068" type="curve" smooth="yes"/>
      <point x="153" y="1068"/>
      <point x="106" y="1020"/>
      <point x="106" y="913" type="curve"/>
      <point x="85" y="939" type="line"/>
      <point x="91" y="939" type="line"/>
      <point x="96" y="1040"/>
      <point x="142" y="1099"/>
      <point x="231" y="1099" type="curve" smooth="yes"/>
      <point x="323" y="1099"/>
      <point x="371" y="1039"/>
      <point x="371" y="920" type="curve" smooth="yes"/>
      <point x="371" y="699" type="line" smooth="yes"/>
      <point x="371" y="570"/>
      <point x="320" y="507"/>
      <point x="220" y="507" type="curve" smooth="yes"/>
      <point x="119" y="507"/>
      <point x="71" y="570"/>
      <point x="71" y="699" type="curve" smooth="yes"/>
      <point x="71" y="1034" type="line" smooth="yes"/>
      <point x="71" y="1261"/>
      <point x="164" y="1378"/>
    </contour>
  </outline>
</glyph>
<glyph name="eight.or" format="2">
  <advance width="581"/>
  <unicode hex="0B6E"/>
  <outline>
    <contour>
      <point x="155" y="0" type="line"/>
      <point x="120" y="0" type="line"/>
      <point x="120" y="1358" type="line"/>
      <point x="541" y="1358" type="line"/>
      <point x="541" y="1327" type="line"/>
      <point x="155" y="1327" type="line"/>
    </contour>
  </outline>
</glyph>
<glyph name="nine.or" format="2">
  <advance width="626"/>
  <unicode hex="0B6F"/>
  <outline>
    <contour>
      <point x="536" y="740" type="line"/>
      <point x="536" y="1358" type="line"/>
      <point x="501" y="1358" type="line"/>
      <point x="501" y="935" type="line" smooth="yes"/>
      <point x="501" y="865"/>
      <point x="502" y="817"/>
      <point x="502" y="769" type="curve"/>
      <point x="503" y="773" type="line"/>
      <point x="127" y="1362" type="line"/>
      <point x="92" y="1362" type="line"/>
      <point x="92" y="1170"/>
      <point x="92" y="1082"/>
      <point x="92" y="903" type="curve" smooth="yes"/>
      <point x="92" y="477" type="line" smooth="yes"/>
      <point x="92" y="157"/>
      <point x="223" y="-5"/>
      <point x="481" y="-5" type="curve" smooth="yes"/>
      <point x="506" y="-5" type="line"/>
      <point x="516" y="28" type="line"/>
      <point x="481" y="28" type="line" smooth="yes"/>
      <point x="248" y="28"/>
      <point x="127" y="181"/>
      <point x="127" y="477" type="curve" smooth="yes"/>
      <point x="127" y="903" type="line" smooth="yes"/>
      <point x="127" y="1082"/>
      <point x="125" y="1170"/>
      <point x="125" y="1340" type="curve"/>
      <point x="107" y="1332" type="line"/>
      <point x="486" y="740" type="line"/>
    </contour>
  </outline>
</glyph>
<glyph name="Isshar.or" format="2">
  <advance width="842"/>
  <unicode hex="0B70"/>
  <outline>
    <contour>
      <point x="108" y="788" type="line"/>
      <point x="360" y="31" type="line"/>
      <point x="369" y="31" type="line"/>
      <point x="736" y="1406" type="line"/>
      <point x="772" y="1406" type="line"/>
      <point x="397" y="0" type="line"/>
      <point x="334" y="0" type="line"/>
      <point x="70" y="788" type="line"/>
    </contour>
    <contour>
      <point x="352" y="675" type="curve" smooth="yes"/>
      <point x="373" y="675"/>
      <point x="380" y="696"/>
      <point x="380" y="740" type="curve" smooth="yes"/>
      <point x="380" y="754" type="line" smooth="yes"/>
      <point x="380" y="799"/>
      <point x="373" y="819"/>
      <point x="352" y="819" type="curve" smooth="yes"/>
      <point x="332" y="819"/>
      <point x="325" y="799"/>
      <point x="325" y="754" type="curve" smooth="yes"/>
      <point x="325" y="740" type="line" smooth="yes"/>
      <point x="325" y="696"/>
      <point x="332" y="675"/>
    </contour>
  </outline>
</glyph>
<glyph name="Wa.or" format="2">
  <advance width="731"/>
  <unicode hex="0B71"/>
  <anchor x="586" y="53" name="bottom"/>
  <anchor x="783" y="-1" name="rasmall"/>
  <anchor x="360" y="1646" name="top1"/>
  <outline>
    <contour>
      <point x="337" y="1016" type="curve"/>
      <point x="372" y="1012" type="line"/>
      <point x="363" y="1051"/>
      <point x="359" y="1082"/>
      <point x="359" y="1130" type="curve" smooth="yes"/>
      <point x="359" y="1180" type="line" smooth="yes"/>
      <point x="359" y="1289"/>
      <point x="398" y="1349"/>
      <point x="483" y="1349" type="curve" smooth="yes"/>
      <point x="566" y="1349"/>
      <point x="607" y="1289"/>
      <point x="607" y="1180" type="curve" smooth="yes"/>
      <point x="607" y="1087" type="line" smooth="yes"/>
      <point x="607" y="949"/>
      <point x="566" y="871"/>
      <point x="422" y="871" type="curve" smooth="yes"/>
      <point x="404" y="871" type="line"/>
      <point x="404" y="839" type="line"/>
      <point x="422" y="839" type="line" smooth="yes"/>
      <point x="465" y="839"/>
      <point x="502" y="845"/>
      <point x="533" y="859" type="curve"/>
      <point x="541" y="864" type="line"/>
      <point x="596" y="890"/>
      <point x="642" y="944"/>
      <point x="642" y="1087" type="curve" smooth="yes"/>
      <point x="642" y="1180" type="line" smooth="yes"/>
      <point x="642" y="1310"/>
      <point x="588" y="1380"/>
      <point x="483" y="1380" type="curve" smooth="yes"/>
      <point x="377" y="1380"/>
      <point x="325" y="1309"/>
      <point x="325" y="1180" type="curve" smooth="yes"/>
      <point x="325" y="1130" type="line" smooth="yes"/>
      <point x="325" y="1084"/>
      <point x="329" y="1054"/>
    </contour>
    <contour>
      <point x="390" y="423" type="curve" smooth="yes"/>
      <point x="574" y="423"/>
      <point x="655" y="529"/>
      <point x="655" y="671" type="curve" smooth="yes"/>
      <point x="655" y="692" type="line" smooth="yes"/>
      <point x="655" y="787"/>
      <point x="611" y="844"/>
      <point x="546" y="875" type="curve"/>
      <point x="518" y="859" type="line"/>
      <point x="581" y="827"/>
      <point x="620" y="781"/>
      <point x="620" y="690" type="curve" smooth="yes"/>
      <point x="620" y="671" type="line" smooth="yes"/>
      <point x="620" y="549"/>
      <point x="553" y="456"/>
      <point x="390" y="456" type="curve" smooth="yes"/>
      <point x="206" y="456"/>
      <point x="123" y="580"/>
      <point x="123" y="781" type="curve" smooth="yes"/>
      <point x="123" y="1047" type="line" smooth="yes"/>
      <point x="123" y="1171"/>
      <point x="134" y="1250"/>
      <point x="172" y="1358" type="curve"/>
      <point x="135" y="1358" type="line"/>
      <point x="98" y="1248"/>
      <point x="88" y="1173"/>
      <point x="88" y="1046" type="curve" smooth="yes"/>
      <point x="88" y="781" type="line" smooth="yes"/>
      <point x="88" y="557"/>
      <point x="184" y="423"/>
    </contour>
    <contour>
      <point x="202" y="300" type="curve" smooth="yes"/>
      <point x="202" y="349" type="line" smooth="yes"/>
      <point x="202" y="394"/>
      <point x="212" y="434"/>
      <point x="232" y="469" type="curve"/>
      <point x="202" y="484" type="line"/>
      <point x="178" y="444"/>
      <point x="167" y="400"/>
      <point x="167" y="349" type="curve" smooth="yes"/>
      <point x="167" y="298" type="line" smooth="yes"/>
      <point x="167" y="158"/>
      <point x="238" y="81"/>
      <point x="366" y="81" type="curve" smooth="yes"/>
      <point x="493" y="81"/>
      <point x="557" y="162"/>
      <point x="560" y="279" type="curve"/>
      <point x="552" y="246" type="line"/>
      <point x="551" y="100" type="line"/>
      <point x="551" y="0" type="line"/>
      <point x="586" y="0" type="line"/>
      <point x="586" y="509" type="line"/>
      <point x="551" y="489" type="line"/>
      <point x="551" y="260" type="line"/>
      <point x="552" y="295" type="line"/>
      <point x="538" y="192"/>
      <point x="486" y="112"/>
      <point x="369" y="112" type="curve" smooth="yes"/>
      <point x="261" y="112"/>
      <point x="202" y="179"/>
    </contour>
  </outline>
</glyph>
<glyph name="onehalf.or" format="2">
  <advance width="512"/>
  <unicode hex="0B73"/>
  <outline>
    <contour>
      <point x="120" y="1150" type="curve"/>
      <point x="85" y="1150" type="line"/>
      <point x="85" y="1079"/>
      <point x="85" y="1037"/>
      <point x="85" y="966" type="curve" smooth="yes"/>
      <point x="85" y="748" type="line" smooth="yes"/>
      <point x="85" y="621"/>
      <point x="133" y="556"/>
      <point x="232" y="556" type="curve" smooth="yes"/>
      <point x="323" y="556"/>
      <point x="363" y="613"/>
      <point x="370" y="712" type="curve"/>
      <point x="383" y="712" type="line"/>
      <point x="361" y="741" type="line"/>
      <point x="354" y="631"/>
      <point x="309" y="587"/>
      <point x="237" y="587" type="curve" smooth="yes"/>
      <point x="154" y="587"/>
      <point x="120" y="642"/>
      <point x="120" y="747" type="curve" smooth="yes"/>
      <point x="120" y="966" type="line" smooth="yes"/>
      <point x="120" y="1037"/>
      <point x="120" y="1079"/>
    </contour>
    <contour>
      <point x="357" y="0" type="line"/>
      <point x="392" y="0" type="line"/>
      <point x="392" y="1150" type="line"/>
      <point x="357" y="1150" type="line"/>
      <point x="357" y="684" type="line"/>
      <point x="359" y="669" type="line"/>
      <point x="357" y="524" type="line"/>
    </contour>
  </outline>
</glyph>
<glyph name="threequarter.or" format="2">
  <advance width="770"/>
  <unicode hex="0B74"/>
  <outline>
    <contour>
      <point x="385" y="1150" type="curve"/>
      <point x="350" y="1150" type="line"/>
      <point x="350" y="1079"/>
      <point x="350" y="1037"/>
      <point x="350" y="966" type="curve" smooth="yes"/>
      <point x="350" y="745" type="line" smooth="yes"/>
      <point x="350" y="620"/>
      <point x="398" y="556"/>
      <point x="494" y="556" type="curve" smooth="yes"/>
      <point x="583" y="556"/>
      <point x="622" y="611"/>
      <point x="628" y="708" type="curve"/>
      <point x="641" y="708" type="line"/>
      <point x="619" y="737" type="line"/>
      <point x="612" y="630"/>
      <point x="569" y="587"/>
      <point x="500" y="587" type="curve" smooth="yes"/>
      <point x="419" y="587"/>
      <point x="385" y="640"/>
      <point x="385" y="743" type="curve" smooth="yes"/>
      <point x="385" y="966" type="line" smooth="yes"/>
      <point x="385" y="1037"/>
      <point x="385" y="1079"/>
    </contour>
    <contour>
      <point x="615" y="0" type="line"/>
      <point x="650" y="0" type="line"/>
      <point x="650" y="1150" type="line"/>
      <point x="615" y="1150" type="line"/>
      <point x="615" y="680" type="line"/>
      <point x="617" y="666" type="line"/>
      <point x="615" y="520" type="line"/>
    </contour>
    <contour>
      <point x="120" y="1150" type="curve"/>
      <point x="85" y="1150" type="line"/>
      <point x="85" y="1079"/>
      <point x="85" y="1037"/>
      <point x="85" y="966" type="curve" smooth="yes"/>
      <point x="85" y="745" type="line" smooth="yes"/>
      <point x="85" y="620"/>
      <point x="132" y="556"/>
      <point x="229" y="556" type="curve" smooth="yes"/>
      <point x="318" y="556"/>
      <point x="363" y="611"/>
      <point x="370" y="708" type="curve"/>
      <point x="376" y="708" type="line"/>
      <point x="354" y="737" type="line"/>
      <point x="347" y="630"/>
      <point x="304" y="587"/>
      <point x="234" y="587" type="curve" smooth="yes"/>
      <point x="153" y="587"/>
      <point x="120" y="640"/>
      <point x="120" y="743" type="curve" smooth="yes"/>
      <point x="120" y="966" type="line" smooth="yes"/>
      <point x="120" y="1037"/>
      <point x="120" y="1079"/>
    </contour>
  </outline>
</glyph>
<glyph name="onesixteenth.or" format="2">
  <advance width="517"/>
  <unicode hex="0B75"/>
  <outline>
    <contour>
      <point x="23" y="0" type="line"/>
      <point x="454" y="1150" type="line"/>
      <point x="491" y="1150" type="line"/>
      <point x="60" y="0" type="line"/>
    </contour>
  </outline>
</glyph>
<glyph name="oneeigth.or" format="2">
  <advance width="1042"/>
  <unicode hex="0B76"/>
  <outline>
    <contour>
      <point x="226" y="-13" type="curve" smooth="yes"/>
      <point x="119" y="-13"/>
      <point x="65" y="55"/>
      <point x="65" y="185" type="curve" smooth="yes"/>
      <point x="65" y="440" type="line" smooth="yes"/>
      <point x="65" y="646"/>
      <point x="157" y="764"/>
      <point x="338" y="764" type="curve" smooth="yes"/>
      <point x="518" y="764"/>
      <point x="604" y="644"/>
      <point x="604" y="440" type="curve" smooth="yes"/>
      <point x="604" y="260"/>
      <point x="606" y="167"/>
      <point x="590" y="57" type="curve"/>
      <point x="585" y="57" type="line"/>
      <point x="632" y="206"/>
      <point x="652" y="262"/>
      <point x="688" y="359" type="curve" smooth="yes"/>
      <point x="985" y="1150" type="line"/>
      <point x="1022" y="1150" type="line"/>
      <point x="591" y="0" type="line"/>
      <point x="552" y="0" type="line"/>
      <point x="564" y="71"/>
      <point x="569" y="127"/>
      <point x="569" y="224" type="curve" smooth="yes"/>
      <point x="569" y="440" type="line" smooth="yes"/>
      <point x="569" y="622"/>
      <point x="503" y="732"/>
      <point x="336" y="732" type="curve" smooth="yes"/>
      <point x="171" y="732"/>
      <point x="99" y="622"/>
      <point x="99" y="440" type="curve" smooth="yes"/>
      <point x="99" y="372" type="line"/>
      <point x="100" y="313" type="line"/>
      <point x="100" y="185" type="line" smooth="yes"/>
      <point x="100" y="77"/>
      <point x="137" y="18"/>
      <point x="226" y="18" type="curve" smooth="yes"/>
      <point x="311" y="18"/>
      <point x="352" y="77"/>
      <point x="352" y="185" type="curve" smooth="yes"/>
      <point x="352" y="278" type="line" smooth="yes"/>
      <point x="352" y="389"/>
      <point x="315" y="446"/>
      <point x="233" y="446" type="curve" smooth="yes"/>
      <point x="151" y="446"/>
      <point x="104" y="393"/>
      <point x="100" y="291" type="curve"/>
      <point x="74" y="315" type="line"/>
      <point x="89" y="315" type="line"/>
      <point x="91" y="411"/>
      <point x="136" y="477"/>
      <point x="237" y="477" type="curve" smooth="yes"/>
      <point x="336" y="477"/>
      <point x="387" y="406"/>
      <point x="387" y="278" type="curve" smooth="yes"/>
      <point x="387" y="185" type="line" smooth="yes"/>
      <point x="387" y="55"/>
      <point x="333" y="-13"/>
    </contour>
  </outline>
</glyph>
<glyph name="threesixteenth.or" format="2">
  <advance width="1050"/>
  <unicode hex="0B77"/>
  <outline>
    <contour>
      <point x="210" y="660" type="curve" smooth="yes"/>
      <point x="286" y="660"/>
      <point x="330" y="620"/>
      <point x="339" y="537" type="curve"/>
      <point x="335" y="537" type="line"/>
      <point x="343" y="620"/>
      <point x="389" y="660"/>
      <point x="463" y="660" type="curve" smooth="yes"/>
      <point x="556" y="660"/>
      <point x="602" y="599"/>
      <point x="602" y="481" type="curve" smooth="yes"/>
      <point x="602" y="335"/>
      <point x="604" y="196"/>
      <point x="597" y="40" type="curve"/>
      <point x="589" y="40" type="line"/>
      <point x="606" y="112"/>
      <point x="644" y="215"/>
      <point x="698" y="359" type="curve" smooth="yes"/>
      <point x="993" y="1150" type="line"/>
      <point x="1030" y="1150" type="line"/>
      <point x="599" y="0" type="line"/>
      <point x="567" y="0" type="line"/>
      <point x="567" y="481" type="line" smooth="yes"/>
      <point x="567" y="575"/>
      <point x="539" y="629"/>
      <point x="461" y="629" type="curve" smooth="yes"/>
      <point x="389" y="629"/>
      <point x="353" y="576"/>
      <point x="353" y="481" type="curve" smooth="yes"/>
      <point x="353" y="0" type="line"/>
      <point x="320" y="0" type="line"/>
      <point x="320" y="481" type="line" smooth="yes"/>
      <point x="320" y="576"/>
      <point x="284" y="629"/>
      <point x="212" y="629" type="curve" smooth="yes"/>
      <point x="133" y="629"/>
      <point x="106" y="575"/>
      <point x="106" y="481" type="curve" smooth="yes"/>
      <point x="106" y="267" type="line" smooth="yes"/>
      <point x="106" y="170"/>
      <point x="106" y="94"/>
      <point x="124" y="0" type="curve"/>
      <point x="89" y="0" type="line"/>
      <point x="71" y="91"/>
      <point x="71" y="172"/>
      <point x="71" y="267" type="curve" smooth="yes"/>
      <point x="71" y="481" type="line" smooth="yes"/>
      <point x="71" y="599"/>
      <point x="117" y="660"/>
    </contour>
  </outline>
</glyph>
<glyph name="ninesuperior" format="2">
  <advance width="359"/>
  <unicode hex="2079"/>
  <outline>
    <contour>
      <point x="175" y="1391" type="curve" smooth="yes"/>
      <point x="90" y="1391"/>
      <point x="50" y="1340"/>
      <point x="50" y="1240" type="curve"/>
      <point x="50" y="1106" type="line"/>
      <point x="50" y="1010"/>
      <point x="87" y="953"/>
      <point x="164" y="953" type="curve" smooth="yes"/>
      <point x="238" y="953"/>
      <point x="271" y="995"/>
      <point x="274" y="1072" type="curve"/>
      <point x="288" y="1072" type="line"/>
      <point x="270" y="1099" type="line"/>
      <point x="260" y="1016"/>
      <point x="231" y="982"/>
      <point x="172" y="982" type="curve" smooth="yes"/>
      <point x="110" y="982"/>
      <point x="84" y="1031"/>
      <point x="84" y="1111" type="curve"/>
      <point x="84" y="1243" type="line"/>
      <point x="84" y="1321"/>
      <point x="112" y="1362"/>
      <point x="175" y="1362" type="curve" smooth="yes"/>
      <point x="236" y="1362"/>
      <point x="265" y="1323"/>
      <point x="265" y="1248" type="curve"/>
      <point x="265" y="861" type="line"/>
      <point x="265" y="767"/>
      <point x="234" y="721"/>
      <point x="158" y="721" type="curve" smooth="yes"/>
      <point x="122" y="721"/>
      <point x="86" y="734"/>
      <point x="60" y="752" type="curve"/>
      <point x="64" y="717" type="line"/>
      <point x="83" y="703"/>
      <point x="121" y="689"/>
      <point x="160" y="689" type="curve" smooth="yes"/>
      <point x="279" y="689"/>
      <point x="299" y="780"/>
      <point x="299" y="860" type="curve" smooth="yes"/>
      <point x="299" y="1245" type="line" smooth="yes"/>
      <point x="299" y="1342"/>
      <point x="258" y="1391"/>
    </contour>
  </outline>
</glyph>
<glyph name="BaBa.or" format="2">
  <advance width="921"/>
  <anchor x="708" y="13" name="bottom"/>
  <anchor x="905" y="-1" name="rasmall"/>
  <anchor x="464" y="1646" name="top1"/>
  <anchor x="702" y="1449" name="top2"/>
  <outline>
    <contour>
      <point x="207" y="524" type="curve"/>
      <point x="217" y="556" type="line"/>
      <point x="145" y="606"/>
      <point x="119" y="672"/>
      <point x="119" y="815" type="curve" smooth="yes"/>
      <point x="119" y="989" type="line" smooth="yes"/>
      <point x="119" y="1214"/>
      <point x="233" y="1347"/>
      <point x="464" y="1347" type="curve" smooth="yes"/>
      <point x="695" y="1347"/>
      <point x="800" y="1214"/>
      <point x="800" y="989" type="curve" smooth="yes"/>
      <point x="800" y="769" type="line" smooth="yes"/>
      <point x="800" y="695"/>
      <point x="797" y="624"/>
      <point x="776" y="550" type="curve"/>
      <point x="811" y="558" type="line"/>
      <point x="831" y="627"/>
      <point x="835" y="691"/>
      <point x="835" y="773" type="curve" smooth="yes"/>
      <point x="835" y="989" type="line" smooth="yes"/>
      <point x="835" y="1236"/>
      <point x="717" y="1378"/>
      <point x="466" y="1378" type="curve" smooth="yes"/>
      <point x="211" y="1378"/>
      <point x="84" y="1238"/>
      <point x="84" y="989" type="curve" smooth="yes"/>
      <point x="84" y="813" type="line" smooth="yes"/>
      <point x="84" y="654"/>
      <point x="120" y="574"/>
    </contour>
    <contour>
      <point x="336" y="163" type="curve" smooth="yes"/>
      <point x="267" y="163"/>
      <point x="234" y="212"/>
      <point x="234" y="298" type="curve" smooth="yes"/>
      <point x="234" y="561" type="line" smooth="yes"/>
      <point x="234" y="657"/>
      <point x="264" y="708"/>
      <point x="335" y="708" type="curve" smooth="yes"/>
      <point x="405" y="708"/>
      <point x="438" y="655"/>
      <point x="438" y="565" type="curve" smooth="yes"/>
      <point x="438" y="299" type="line" smooth="yes"/>
      <point x="438" y="211"/>
      <point x="400" y="163"/>
    </contour>
    <contour>
      <point x="673" y="0" type="line"/>
      <point x="708" y="0" type="line"/>
      <point x="708" y="563" type="line"/>
      <point x="708" y="681"/>
      <point x="664" y="739"/>
      <point x="576" y="739" type="curve" smooth="yes"/>
      <point x="505" y="739"/>
      <point x="460" y="698"/>
      <point x="451" y="616" type="curve"/>
      <point x="454" y="616" type="line"/>
      <point x="449" y="698"/>
      <point x="404" y="739"/>
      <point x="332" y="739" type="curve" smooth="yes"/>
      <point x="247" y="739"/>
      <point x="199" y="678"/>
      <point x="199" y="562" type="curve"/>
      <point x="199" y="552" type="line"/>
      <point x="199" y="540"/>
      <point x="199" y="537"/>
      <point x="199" y="528" type="curve" smooth="yes"/>
      <point x="199" y="298" type="line" smooth="yes"/>
      <point x="199" y="190"/>
      <point x="246" y="132"/>
      <point x="332" y="132" type="curve" smooth="yes"/>
      <point x="405" y="132"/>
      <point x="451" y="176"/>
      <point x="456" y="260" type="curve"/>
      <point x="453" y="260" type="line"/>
      <point x="457" y="176"/>
      <point x="503" y="132"/>
      <point x="568" y="132" type="curve" smooth="yes"/>
      <point x="645" y="132"/>
      <point x="681" y="190"/>
      <point x="682" y="275" type="curve"/>
      <point x="699" y="275" type="line"/>
      <point x="673" y="299" type="line"/>
      <point x="673" y="210"/>
      <point x="632" y="163"/>
      <point x="573" y="163" type="curve" smooth="yes"/>
      <point x="507" y="163"/>
      <point x="471" y="211"/>
      <point x="471" y="299" type="curve" smooth="yes"/>
      <point x="471" y="566" type="line" smooth="yes"/>
      <point x="471" y="657"/>
      <point x="506" y="708"/>
      <point x="575" y="708" type="curve" smooth="yes"/>
      <point x="645" y="708"/>
      <point x="673" y="656"/>
      <point x="673" y="563" type="curve" smooth="yes"/>
      <point x="673" y="264" type="line"/>
      <point x="675" y="254" type="line"/>
      <point x="673" y="101" type="line"/>
    </contour>
  </outline>
</glyph>
<glyph name="BaDa.or" format="2">
  <advance width="921"/>
  <anchor x="698" y="13" name="bottom"/>
  <anchor x="895" y="-1" name="rasmall"/>
  <anchor x="464" y="1646" name="top1"/>
  <anchor x="702" y="1449" name="top2"/>
  <outline>
    <contour>
      <point x="207" y="524" type="curve"/>
      <point x="217" y="556" type="line"/>
      <point x="145" y="606"/>
      <point x="119" y="672"/>
      <point x="119" y="815" type="curve" smooth="yes"/>
      <point x="119" y="989" type="line" smooth="yes"/>
      <point x="119" y="1214"/>
      <point x="233" y="1347"/>
      <point x="464" y="1347" type="curve" smooth="yes"/>
      <point x="695" y="1347"/>
      <point x="800" y="1214"/>
      <point x="800" y="989" type="curve" smooth="yes"/>
      <point x="800" y="769" type="line" smooth="yes"/>
      <point x="800" y="695"/>
      <point x="797" y="624"/>
      <point x="776" y="550" type="curve"/>
      <point x="811" y="558" type="line"/>
      <point x="831" y="627"/>
      <point x="835" y="691"/>
      <point x="835" y="773" type="curve" smooth="yes"/>
      <point x="835" y="989" type="line" smooth="yes"/>
      <point x="835" y="1236"/>
      <point x="717" y="1378"/>
      <point x="466" y="1378" type="curve" smooth="yes"/>
      <point x="211" y="1378"/>
      <point x="84" y="1238"/>
      <point x="84" y="989" type="curve" smooth="yes"/>
      <point x="84" y="813" type="line" smooth="yes"/>
      <point x="84" y="654"/>
      <point x="120" y="574"/>
    </contour>
    <contour>
      <point x="335" y="163" type="curve" smooth="yes"/>
      <point x="267" y="163"/>
      <point x="234" y="212"/>
      <point x="234" y="298" type="curve" smooth="yes"/>
      <point x="234" y="561" type="line" smooth="yes"/>
      <point x="234" y="657"/>
      <point x="264" y="708"/>
      <point x="334" y="708" type="curve" smooth="yes"/>
      <point x="404" y="708"/>
      <point x="437" y="657"/>
      <point x="437" y="561" type="curve" smooth="yes"/>
      <point x="437" y="299" type="line" smooth="yes"/>
      <point x="437" y="211"/>
      <point x="399" y="163"/>
    </contour>
    <contour>
      <point x="331" y="132" type="curve" smooth="yes"/>
      <point x="404" y="132"/>
      <point x="450" y="176"/>
      <point x="455" y="260" type="curve"/>
      <point x="452" y="260" type="line"/>
      <point x="456" y="176"/>
      <point x="500" y="132"/>
      <point x="562" y="132" type="curve" smooth="yes"/>
      <point x="637" y="132"/>
      <point x="671" y="189"/>
      <point x="672" y="273" type="curve"/>
      <point x="689" y="273" type="line"/>
      <point x="663" y="297" type="line"/>
      <point x="663" y="209"/>
      <point x="624" y="163"/>
      <point x="567" y="163" type="curve" smooth="yes"/>
      <point x="504" y="163"/>
      <point x="470" y="211"/>
      <point x="470" y="299" type="curve" smooth="yes"/>
      <point x="470" y="562" type="line" smooth="yes"/>
      <point x="470" y="675"/>
      <point x="427" y="739"/>
      <point x="334" y="739" type="curve" smooth="yes"/>
      <point x="246" y="739"/>
      <point x="199" y="678"/>
      <point x="199" y="562" type="curve"/>
      <point x="199" y="552" type="line"/>
      <point x="199" y="540"/>
      <point x="199" y="537"/>
      <point x="199" y="528" type="curve" smooth="yes"/>
      <point x="199" y="298" type="line" smooth="yes"/>
      <point x="199" y="190"/>
      <point x="246" y="132"/>
    </contour>
    <contour>
      <point x="663" y="0" type="line"/>
      <point x="698" y="0" type="line"/>
      <point x="698" y="716" type="line"/>
      <point x="663" y="716" type="line"/>
      <point x="663" y="262" type="line"/>
      <point x="665" y="252" type="line"/>
      <point x="663" y="101" type="line"/>
    </contour>
  </outline>
</glyph>
<glyph name="BaJa.or" format="2">
  <advance width="864"/>
  <anchor x="703" y="-468" name="bottom"/>
  <anchor x="870" y="-427" name="rasmall"/>
  <anchor x="436" y="1646" name="top1"/>
  <anchor x="654" y="1449" name="top2"/>
  <outline>
    <contour>
      <point x="432" y="193" type="curve" smooth="yes"/>
      <point x="341" y="193"/>
      <point x="298" y="259"/>
      <point x="298" y="381" type="curve" smooth="yes"/>
      <point x="298" y="534" type="line" smooth="yes"/>
      <point x="298" y="652"/>
      <point x="339" y="718"/>
      <point x="432" y="718" type="curve" smooth="yes"/>
      <point x="521" y="718"/>
      <point x="566" y="652"/>
      <point x="566" y="534" type="curve" smooth="yes"/>
      <point x="566" y="377" type="line" smooth="yes"/>
      <point x="566" y="261"/>
      <point x="518" y="193"/>
    </contour>
    <contour>
      <point x="566" y="-20" type="line"/>
      <point x="601" y="-20" type="line"/>
      <point x="601" y="534" type="line" smooth="yes"/>
      <point x="601" y="674"/>
      <point x="543" y="749"/>
      <point x="432" y="749" type="curve" smooth="yes"/>
      <point x="321" y="749"/>
      <point x="263" y="670"/>
      <point x="263" y="534" type="curve" smooth="yes"/>
      <point x="263" y="518" type="line"/>
      <point x="263" y="381" type="line" smooth="yes"/>
      <point x="263" y="238"/>
      <point x="321" y="162"/>
      <point x="427" y="162" type="curve" smooth="yes"/>
      <point x="531" y="162"/>
      <point x="575" y="237"/>
      <point x="577" y="346" type="curve"/>
      <point x="568" y="302" type="line"/>
      <point x="566" y="142" type="line"/>
    </contour>
    <contour>
      <point x="265" y="499" type="curve"/>
      <point x="274" y="530" type="line"/>
      <point x="156" y="587"/>
      <point x="119" y="677"/>
      <point x="119" y="822" type="curve" smooth="yes"/>
      <point x="119" y="1003" type="line" smooth="yes"/>
      <point x="119" y="1218"/>
      <point x="224" y="1347"/>
      <point x="436" y="1347" type="curve" smooth="yes"/>
      <point x="648" y="1347"/>
      <point x="743" y="1218"/>
      <point x="743" y="1003" type="curve" smooth="yes"/>
      <point x="743" y="782" type="line" smooth="yes"/>
      <point x="743" y="697"/>
      <point x="725" y="624"/>
      <point x="690" y="550" type="curve"/>
      <point x="728" y="556" type="line"/>
      <point x="759" y="624"/>
      <point x="778" y="688"/>
      <point x="778" y="786" type="curve" smooth="yes"/>
      <point x="778" y="1003" type="line" smooth="yes"/>
      <point x="778" y="1240"/>
      <point x="670" y="1378"/>
      <point x="438" y="1378" type="curve" smooth="yes"/>
      <point x="204" y="1378"/>
      <point x="84" y="1242"/>
      <point x="84" y="1003" type="curve" smooth="yes"/>
      <point x="84" y="821" type="line" smooth="yes"/>
      <point x="84" y="663"/>
      <point x="133" y="558"/>
    </contour>
    <contour>
      <point x="418" y="-489" type="curve" smooth="yes"/>
      <point x="503" y="-489"/>
      <point x="544" y="-435"/>
      <point x="544" y="-331" type="curve" smooth="yes"/>
      <point x="544" y="-234" type="line" smooth="yes"/>
      <point x="544" y="-159"/>
      <point x="526" y="-116"/>
      <point x="486" y="-94" type="curve"/>
      <point x="483" y="-107" type="line"/>
      <point x="681" y="34" type="line"/>
      <point x="671" y="49" type="line"/>
      <point x="669" y="-6"/>
      <point x="669" y="-61"/>
      <point x="669" y="-115" type="curve" smooth="yes"/>
      <point x="669" y="-481" type="line"/>
      <point x="703" y="-481" type="line"/>
      <point x="703" y="46" type="line"/>
      <point x="674" y="66" type="line"/>
      <point x="463" y="-87" type="line"/>
      <point x="463" y="-113" type="line"/>
      <point x="497" y="-128"/>
      <point x="512" y="-169"/>
      <point x="512" y="-232" type="curve" smooth="yes"/>
      <point x="512" y="-331" type="line" smooth="yes"/>
      <point x="512" y="-416"/>
      <point x="482" y="-459"/>
      <point x="419" y="-459" type="curve" smooth="yes"/>
      <point x="352" y="-459"/>
      <point x="324" y="-416"/>
      <point x="324" y="-331" type="curve" smooth="yes"/>
      <point x="324" y="-153" type="line" smooth="yes"/>
      <point x="324" y="-72"/>
      <point x="344" y="-20"/>
      <point x="398" y="7" type="curve"/>
      <point x="398" y="42" type="line"/>
      <point x="323" y="10"/>
      <point x="290" y="-51"/>
      <point x="290" y="-153" type="curve" smooth="yes"/>
      <point x="290" y="-331" type="line" smooth="yes"/>
      <point x="290" y="-435"/>
      <point x="332" y="-489"/>
    </contour>
  </outline>
</glyph>
<glyph name="BaLla.or" format="2">
  <advance width="864"/>
  <guideline x="476"/>
  <anchor x="704" y="-469" name="bottom"/>
  <anchor x="871" y="-428" name="rasmall"/>
  <anchor x="436" y="1646" name="top1"/>
  <anchor x="654" y="1449" name="top2"/>
  <outline>
    <contour>
      <point x="432" y="193" type="curve" smooth="yes"/>
      <point x="341" y="193"/>
      <point x="298" y="259"/>
      <point x="298" y="381" type="curve" smooth="yes"/>
      <point x="298" y="534" type="line" smooth="yes"/>
      <point x="298" y="652"/>
      <point x="339" y="718"/>
      <point x="432" y="718" type="curve" smooth="yes"/>
      <point x="521" y="718"/>
      <point x="566" y="652"/>
      <point x="566" y="534" type="curve" smooth="yes"/>
      <point x="566" y="377" type="line" smooth="yes"/>
      <point x="566" y="261"/>
      <point x="518" y="193"/>
    </contour>
    <contour>
      <point x="566" y="30" type="line"/>
      <point x="601" y="30" type="line"/>
      <point x="601" y="534" type="line" smooth="yes"/>
      <point x="601" y="674"/>
      <point x="543" y="749"/>
      <point x="432" y="749" type="curve" smooth="yes"/>
      <point x="321" y="749"/>
      <point x="263" y="670"/>
      <point x="263" y="534" type="curve" smooth="yes"/>
      <point x="263" y="518" type="line"/>
      <point x="263" y="381" type="line" smooth="yes"/>
      <point x="263" y="238"/>
      <point x="321" y="162"/>
      <point x="427" y="162" type="curve" smooth="yes"/>
      <point x="531" y="162"/>
      <point x="575" y="237"/>
      <point x="577" y="346" type="curve"/>
      <point x="568" y="302" type="line"/>
      <point x="566" y="142" type="line"/>
    </contour>
    <contour>
      <point x="265" y="499" type="curve"/>
      <point x="274" y="530" type="line"/>
      <point x="156" y="587"/>
      <point x="119" y="677"/>
      <point x="119" y="822" type="curve" smooth="yes"/>
      <point x="119" y="1003" type="line" smooth="yes"/>
      <point x="119" y="1218"/>
      <point x="224" y="1347"/>
      <point x="436" y="1347" type="curve" smooth="yes"/>
      <point x="648" y="1347"/>
      <point x="743" y="1218"/>
      <point x="743" y="1003" type="curve" smooth="yes"/>
      <point x="743" y="782" type="line" smooth="yes"/>
      <point x="743" y="697"/>
      <point x="725" y="624"/>
      <point x="690" y="550" type="curve"/>
      <point x="728" y="556" type="line"/>
      <point x="759" y="624"/>
      <point x="778" y="688"/>
      <point x="778" y="786" type="curve" smooth="yes"/>
      <point x="778" y="1003" type="line" smooth="yes"/>
      <point x="778" y="1240"/>
      <point x="670" y="1378"/>
      <point x="438" y="1378" type="curve" smooth="yes"/>
      <point x="204" y="1378"/>
      <point x="84" y="1242"/>
      <point x="84" y="1003" type="curve" smooth="yes"/>
      <point x="84" y="821" type="line" smooth="yes"/>
      <point x="84" y="663"/>
      <point x="133" y="558"/>
    </contour>
    <contour>
      <point x="281" y="-482" type="line"/>
      <point x="315" y="-482" type="line"/>
      <point x="315" y="-87" type="line" smooth="yes"/>
      <point x="315" y="-19"/>
      <point x="336" y="21"/>
      <point x="396" y="21" type="curve" smooth="yes"/>
      <point x="447" y="21"/>
      <point x="476" y="-19"/>
      <point x="476" y="-88" type="curve" smooth="yes"/>
      <point x="476" y="-482" type="line"/>
      <point x="509" y="-482" type="line"/>
      <point x="509" y="-88" type="line" smooth="yes"/>
      <point x="509" y="-19"/>
      <point x="538" y="21"/>
      <point x="590" y="21" type="curve" smooth="yes"/>
      <point x="648" y="21"/>
      <point x="670" y="-19"/>
      <point x="670" y="-87" type="curve" smooth="yes"/>
      <point x="670" y="-482" type="line"/>
      <point x="704" y="-482" type="line"/>
      <point x="704" y="-87" type="line" smooth="yes"/>
      <point x="704" y="3"/>
      <point x="668" y="51"/>
      <point x="595" y="51" type="curve" smooth="yes"/>
      <point x="536" y="51"/>
      <point x="498" y="16"/>
      <point x="492" y="-52" type="curve"/>
      <point x="495" y="-52" type="line"/>
      <point x="488" y="16"/>
      <point x="449" y="51"/>
      <point x="392" y="51" type="curve" smooth="yes"/>
      <point x="318" y="51"/>
      <point x="281" y="3"/>
      <point x="281" y="-87" type="curve" smooth="yes"/>
    </contour>
  </outline>
</glyph>
<glyph name="BaSmall.or" format="2">
  <anchor x="-209" y="-562" name="bottom"/>
  <anchor x="-42" y="-521" name="rasmall"/>
  <outline>
    <contour>
      <point x="-460" y="-214" type="curve" smooth="yes"/>
      <point x="-460" y="-330" type="line" smooth="yes"/>
      <point x="-460" y="-423"/>
      <point x="-418" y="-475"/>
      <point x="-341" y="-475" type="curve" smooth="yes"/>
      <point x="-269" y="-475"/>
      <point x="-238" y="-427"/>
      <point x="-237" y="-357" type="curve"/>
      <point x="-242" y="-382" type="line"/>
      <point x="-243" y="-501" type="line"/>
      <point x="-243" y="-575" type="line"/>
      <point x="-209" y="-575" type="line"/>
      <point x="-209" y="-57" type="line"/>
      <point x="-243" y="-57" type="line"/>
      <point x="-243" y="-371" type="line"/>
      <point x="-243" y="-345" type="line"/>
      <point x="-250" y="-399"/>
      <point x="-273" y="-444"/>
      <point x="-336" y="-444" type="curve" smooth="yes"/>
      <point x="-397" y="-444"/>
      <point x="-426" y="-402"/>
      <point x="-426" y="-329" type="curve" smooth="yes"/>
      <point x="-426" y="-214" type="line" smooth="yes"/>
      <point x="-426" y="-153"/>
      <point x="-411" y="-106"/>
      <point x="-381" y="-57" type="curve"/>
      <point x="-416" y="-57" type="line"/>
      <point x="-444" y="-102"/>
      <point x="-460" y="-149"/>
    </contour>
  </outline>
</glyph>
<glyph name="BhaSmall.or" format="2">
  <anchor x="-212" y="-642" name="bottom"/>
  <anchor x="192" y="-597" name="rasmall"/>
  <outline>
    <contour>
      <point x="55" y="-701" type="line"/>
      <point x="55" y="-667" type="line"/>
      <point x="-74" y="-630" type="line"/>
      <point x="-67" y="-637" type="line"/>
      <point x="-27" y="-603"/>
      <point x="-27" y="-561"/>
      <point x="-27" y="-522" type="curve" smooth="yes"/>
      <point x="-27" y="-233" type="line" smooth="yes"/>
      <point x="-27" y="-83"/>
      <point x="-95" y="0"/>
      <point x="-246" y="0" type="curve" smooth="yes"/>
      <point x="-399" y="0"/>
      <point x="-469" y="-81"/>
      <point x="-469" y="-224" type="curve" smooth="yes"/>
      <point x="-469" y="-260" type="line" smooth="yes"/>
      <point x="-469" y="-331"/>
      <point x="-453" y="-382"/>
      <point x="-396" y="-411" type="curve"/>
      <point x="-383" y="-386" type="line"/>
      <point x="-425" y="-361"/>
      <point x="-435" y="-323"/>
      <point x="-435" y="-260" type="curve" smooth="yes"/>
      <point x="-435" y="-224" type="line" smooth="yes"/>
      <point x="-435" y="-102"/>
      <point x="-380" y="-30"/>
      <point x="-246" y="-30" type="curve" smooth="yes"/>
      <point x="-115" y="-30"/>
      <point x="-60" y="-104"/>
      <point x="-60" y="-235" type="curve" smooth="yes"/>
      <point x="-60" y="-527" type="line" smooth="yes"/>
      <point x="-60" y="-561"/>
      <point x="-60" y="-609"/>
      <point x="-106" y="-646" type="curve"/>
    </contour>
    <contour>
      <point x="-274" y="-661" type="curve" smooth="yes"/>
      <point x="-181" y="-661"/>
      <point x="-144" y="-612"/>
      <point x="-144" y="-514" type="curve" smooth="yes"/>
      <point x="-144" y="-413" type="line" smooth="yes"/>
      <point x="-144" y="-382"/>
      <point x="-144" y="-353"/>
      <point x="-144" y="-323" type="curve"/>
      <point x="-174" y="-323" type="line"/>
      <point x="-174" y="-348"/>
      <point x="-174" y="-379"/>
      <point x="-174" y="-415" type="curve" smooth="yes"/>
      <point x="-174" y="-503" type="line"/>
      <point x="-170" y="-521" type="line"/>
      <point x="-175" y="-593"/>
      <point x="-195" y="-632"/>
      <point x="-272" y="-632" type="curve" smooth="yes"/>
      <point x="-350" y="-632"/>
      <point x="-371" y="-591"/>
      <point x="-371" y="-513" type="curve" smooth="yes"/>
      <point x="-371" y="-399" type="line" smooth="yes"/>
      <point x="-371" y="-365"/>
      <point x="-369" y="-331"/>
      <point x="-347" y="-296" type="curve"/>
      <point x="-377" y="-296" type="line"/>
      <point x="-394" y="-323"/>
      <point x="-402" y="-358"/>
      <point x="-404" y="-393" type="curve"/>
      <point x="-404" y="-405" type="line"/>
      <point x="-404" y="-513" type="line" smooth="yes"/>
      <point x="-404" y="-611"/>
      <point x="-367" y="-661"/>
    </contour>
    <contour>
      <point x="-226" y="-580" type="curve" smooth="yes"/>
      <point x="-181" y="-580"/>
      <point x="-170" y="-550"/>
      <point x="-167" y="-506" type="curve"/>
      <point x="-160" y="-506" type="line"/>
      <point x="-174" y="-491" type="line"/>
      <point x="-174" y="-528"/>
      <point x="-186" y="-553"/>
      <point x="-216" y="-553" type="curve" smooth="yes"/>
      <point x="-247" y="-553"/>
      <point x="-259" y="-531"/>
      <point x="-259" y="-487" type="curve" smooth="yes"/>
      <point x="-259" y="-411" type="line" smooth="yes"/>
      <point x="-259" y="-381"/>
      <point x="-257" y="-354"/>
      <point x="-244" y="-323" type="curve"/>
      <point x="-275" y="-323" type="line"/>
      <point x="-286" y="-351"/>
      <point x="-289" y="-374"/>
      <point x="-289" y="-413" type="curve" smooth="yes"/>
      <point x="-289" y="-488" type="line" smooth="yes"/>
      <point x="-289" y="-548"/>
      <point x="-269" y="-580"/>
    </contour>
  </outline>
</glyph>
<glyph name="CaCa.or" format="2">
  <advance width="921"/>
  <anchor x="583" y="13" name="bottom"/>
  <anchor x="818" y="-1" name="rasmall"/>
  <anchor x="464" y="1646" name="top1"/>
  <anchor x="702" y="1449" name="top2"/>
  <outline>
    <contour>
      <point x="192" y="524" type="curve"/>
      <point x="202" y="556" type="line"/>
      <point x="141" y="606"/>
      <point x="119" y="672"/>
      <point x="119" y="815" type="curve" smooth="yes"/>
      <point x="119" y="989" type="line" smooth="yes"/>
      <point x="119" y="1214"/>
      <point x="233" y="1347"/>
      <point x="464" y="1347" type="curve" smooth="yes"/>
      <point x="695" y="1347"/>
      <point x="800" y="1214"/>
      <point x="800" y="989" type="curve" smooth="yes"/>
      <point x="800" y="769" type="line" smooth="yes"/>
      <point x="800" y="695"/>
      <point x="797" y="624"/>
      <point x="776" y="550" type="curve"/>
      <point x="811" y="558" type="line"/>
      <point x="831" y="627"/>
      <point x="835" y="691"/>
      <point x="835" y="773" type="curve" smooth="yes"/>
      <point x="835" y="989" type="line" smooth="yes"/>
      <point x="835" y="1236"/>
      <point x="717" y="1378"/>
      <point x="466" y="1378" type="curve" smooth="yes"/>
      <point x="211" y="1378"/>
      <point x="84" y="1238"/>
      <point x="84" y="989" type="curve" smooth="yes"/>
      <point x="84" y="813" type="line" smooth="yes"/>
      <point x="84" y="654"/>
      <point x="116" y="574"/>
    </contour>
    <contour>
      <point x="326" y="20" type="curve" smooth="yes"/>
      <point x="253" y="20"/>
      <point x="224" y="74"/>
      <point x="224" y="169" type="curve" smooth="yes"/>
      <point x="224" y="552" type="line" smooth="yes"/>
      <point x="224" y="652"/>
      <point x="253" y="708"/>
      <point x="326" y="708" type="curve" smooth="yes"/>
      <point x="396" y="708"/>
      <point x="433" y="652"/>
      <point x="433" y="552" type="curve" smooth="yes"/>
      <point x="433" y="177" type="line" smooth="yes"/>
      <point x="433" y="74"/>
      <point x="396" y="20"/>
    </contour>
    <contour>
      <point x="326" y="-11" type="curve" smooth="yes"/>
      <point x="396" y="-11"/>
      <point x="444" y="33"/>
      <point x="451" y="123" type="curve"/>
      <point x="447" y="123" type="line"/>
      <point x="456" y="33"/>
      <point x="499" y="-11"/>
      <point x="578" y="-11" type="curve" smooth="yes"/>
      <point x="666" y="-11"/>
      <point x="710" y="48"/>
      <point x="710" y="167" type="curve" smooth="yes"/>
      <point x="710" y="561" type="line" smooth="yes"/>
      <point x="710" y="679"/>
      <point x="666" y="739"/>
      <point x="576" y="739" type="curve" smooth="yes"/>
      <point x="499" y="739"/>
      <point x="456" y="696"/>
      <point x="447" y="606" type="curve"/>
      <point x="451" y="606" type="line"/>
      <point x="444" y="696"/>
      <point x="396" y="739"/>
      <point x="328" y="739" type="curve" smooth="yes"/>
      <point x="236" y="739"/>
      <point x="189" y="680"/>
      <point x="189" y="549" type="curve"/>
      <point x="189" y="557" type="line"/>
      <point x="189" y="545"/>
      <point x="189" y="542"/>
      <point x="189" y="533" type="curve" smooth="yes"/>
      <point x="189" y="167" type="line" smooth="yes"/>
      <point x="189" y="48"/>
      <point x="232" y="-11"/>
    </contour>
    <contour>
      <point x="574" y="20" type="curve" smooth="yes"/>
      <point x="502" y="20"/>
      <point x="466" y="74"/>
      <point x="466" y="177" type="curve" smooth="yes"/>
      <point x="466" y="552" type="line" smooth="yes"/>
      <point x="466" y="652"/>
      <point x="502" y="708"/>
      <point x="572" y="708" type="curve" smooth="yes"/>
      <point x="649" y="708"/>
      <point x="675" y="654"/>
      <point x="675" y="561" type="curve" smooth="yes"/>
      <point x="675" y="167" type="line" smooth="yes"/>
      <point x="675" y="74"/>
      <point x="649" y="20"/>
    </contour>
  </outline>
</glyph>
